<svg xmlns="http://www.w3.org/2000/svg" width="478" height="512" viewBox="0 0 478 512">
  <g id="home-icon1" transform="translate(-23 -12)">
    <g id="Union_1" data-name="Union 1" transform="translate(23 12)" fill="rgba(255,255,255,0)" stroke-linejoin="round">
      <path d="M 457.9992065429688 492.0001525878906 L 19.99978828430176 492.0001525878906 L 20.00002861022949 185.7362976074219 L 238.9995574951172 24.81857681274414 L 457.9999389648438 185.7363128662109 L 457.9999389648438 491.9993896484375 L 457.9992065429688 492.0001525878906 Z" stroke="none"/>
      <path d="M 437.9999389648438 472.0001831054688 L 437.9999389648438 195.8592224121094 L 238.9996185302734 49.63726806640625 L 40.00006484985352 195.8592529296875 L 40.00006484985352 472.0001831054688 L 437.9999389648438 472.0001831054688 M 457.9991760253906 512.0001831054688 L 19.99984359741211 512.0001831054688 C 8.954065322875977 512.0001831054688 6.533474515890703e-05 503.045166015625 6.533474515890703e-05 491.9993896484375 L 6.533474515890703e-05 175.6133880615234 L 238.99951171875 6.103515625e-05 L 477.9999389648438 175.6133880615234 L 477.9999389648438 491.9993896484375 C 477.9999389648438 503.045166015625 469.0449523925781 512.0001831054688 457.9991760253906 512.0001831054688 Z" stroke="none" fill="#000"/>
    </g>
    <g id="Rectangle_2" data-name="Rectangle 2" transform="translate(180 256)" fill="rgba(255,255,255,0)" stroke="#000" stroke-width="40">
      <rect width="164" height="267" stroke="none"/>
      <rect x="20" y="20" width="124" height="227" fill="none"/>
    </g>
  </g>
</svg>
