<svg version="1.2" baseProfile="tiny-ps" xmlns="http://www.w3.org/2000/svg" viewBox="0 0 33 23" width="33" height="23">
	<title>Menu</title>
	<style>
		tspan { white-space:pre }
		.shp0 { fill: #121212 } 
	</style>
	<g id="Menu">
		<path id="Rectangle 1" class="shp0" d="M1.5 0L31.5 0C32.33 0 33 0.67 33 1.5C33 2.33 32.33 3 31.5 3L1.5 3C0.67 3 0 2.33 0 1.5C0 0.67 0.67 0 1.5 0Z" />
		<path id="Rectangle 1 copy" class="shp0" d="M1.5 13L31.5 13C32.33 13 33 13.67 33 14.5C33 15.33 32.33 16 31.5 16L1.5 16C0.67 16 0 15.33 0 14.5C0 13.67 0.67 13 1.5 13Z" />
		<path id="Rectangle 1 copy 2" class="shp0" d="M1.5 7L24.5 7C25.33 7 26 7.67 26 8.5C26 9.33 25.33 10 24.5 10L1.5 10C0.67 10 0 9.33 0 8.5C0 7.67 0.67 7 1.5 7Z" />
		<path id="Rectangle 1 copy 3" class="shp0" d="M1.5 20L24.5 20C25.33 20 26 20.67 26 21.5C26 22.33 25.33 23 24.5 23L1.5 23C0.67 23 0 22.33 0 21.5C0 20.67 0.67 20 1.5 20Z" />
	</g>
</svg>