<svg xmlns="http://www.w3.org/2000/svg" xmlns:xlink="http://www.w3.org/1999/xlink" width="512" height="512" viewBox="0 0 512 512">
  <defs>
    <clipPath id="clip-user-icon1">
      <rect width="512" height="512"/>
    </clipPath>
  </defs>
  <g id="user-icon1" clip-path="url(#clip-user-icon1)">
    <rect width="512" height="512" fill="rgba(255,255,255,0)"/>
    <g id="user-icon1-2" data-name="user-icon1">
      <g id="Ellipse_2" data-name="Ellipse 2" transform="translate(116 16)" fill="rgba(255,255,255,0)" stroke="#000" stroke-width="40">
        <circle cx="140" cy="140" r="140" stroke="none"/>
        <circle cx="140" cy="140" r="120" fill="none"/>
      </g>
      <g id="Rectangle_3" data-name="Rectangle 3" transform="translate(0 343)" fill="rgba(255,255,255,0)" stroke="#000" stroke-linejoin="round" stroke-width="40">
        <path d="M120,0H392A120,120,0,0,1,512,120V260a0,0,0,0,1,0,0H0a0,0,0,0,1,0,0V120A120,120,0,0,1,120,0Z" stroke="none"/>
        <path d="M120,20H392A100,100,0,0,1,492,120V220a20,20,0,0,1-20,20H40a20,20,0,0,1-20-20V120A100,100,0,0,1,120,20Z" fill="none"/>
      </g>
    </g>
  </g>
</svg>
