<svg version="1.2" baseProfile="tiny-ps" xmlns="http://www.w3.org/2000/svg" viewBox="0 0 512 448" width="512" height="448">
	<title>heart-svg</title>
	<style>
		tspan { white-space:pre }
		.shp0 { fill: #000000 } 
	</style>
	<path id="Layer" fill-rule="evenodd" class="shp0" d="M458.4 32.3C533.7 95.7 522.5 198.9 469 253.6L293.6 432.3C283.6 442.5 270.3 448.1 256 448.1C241.8 448.1 228.4 442.4 218.4 432.2L43 253.5C-10.6 198.8 -21.6 95.6 53.6 32.3C111.4 -16.4 200.7 -9 256 47.3C311.3 -9 400.6 -16.3 458.4 32.3ZM434.8 219.8C471 182.9 478.6 112.1 427.5 69C388.8 36.4 328.8 41.1 291 79.6L256 115.3L221 79.6C183.4 41.3 123.4 36.4 84.5 69.1C33.3 112.2 40.7 182.6 77.2 219.8L252.6 398.5C255 400.9 257 400.9 259.4 398.5L434.8 219.8Z" />
</svg>