<?xml version="1.0" standalone="no"?>
<!DOCTYPE svg PUBLIC "-//W3C//DTD SVG 1.1//EN" "http://www.w3.org/Graphics/SVG/1.1/DTD/svg11.dtd" >
<svg xmlns="http://www.w3.org/2000/svg" xmlns:xlink="http://www.w3.org/1999/xlink" version="1.1">
<metadata>
Created by FontForge 20170731 at Fri Jan 11 02:48:05 2019
 By Aleksey,,,
Copyright (c) 2015 Monotype Imaging Inc.  All rights reserved.
</metadata>
<defs>
<font id="NeueHaasUnica-Bold" horiz-adv-x="600" >
  <font-face 
    font-family="Neue Haas Unica"
    font-weight="700"
    font-stretch="normal"
    units-per-em="1000"
    panose-1="2 11 8 4 3 2 6 2 2 3"
    ascent="750"
    descent="-250"
    x-height="508"
    cap-height="712"
    bbox="-1000 -275 1159 1116"
    underline-thickness="50"
    underline-position="-300"
    unicode-range="U+0020-FEFF"
  />
<missing-glyph horiz-adv-x="642" 
d="M151 777h340q62 0 98.5 -36.5t36.5 -98.5v-572q0 -62 -36.5 -98.5t-98.5 -36.5h-340q-62 0 -98.5 36.5t-36.5 98.5v572q0 62 36.5 98.5t98.5 36.5zM491 713h-340q-33 0 -52 -19t-19 -52v-572q0 -33 19 -52t52 -19h340q33 0 52 19t19 52v572q0 33 -19 52t-52 19zM379 177
v-112h-128v112h128zM323 647q84 0 132 -40.5t48 -110.5q0 -41 -15 -69.5t-57 -67.5q-40 -37 -52.5 -64t-12.5 -76h-102q-1 11 -1 31q0 55 13 85t54 72q30 30 38.5 46.5t8.5 40.5t-14 38t-40 14q-63 0 -64 -80h-125q1 88 50.5 134.5t138.5 46.5z" />
    <glyph glyph-name="f_f" unicode="ff" horiz-adv-x="652" 
d="M617 616q-38 0 -56 -18.5t-18 -60.5v-29h96v-104h-96v-404h-138v404h-173v-404h-138v404h-84v104h84v46q0 166 168 166q35 0 69 -8v-99q-9 3 -25 3q-38 0 -56 -18.5t-18 -60.5v-29h173v46q0 166 168 166q35 0 69 -8v-99q-9 3 -25 3z" />
    <glyph glyph-name="f_f_i" unicode="ffi" horiz-adv-x="928" 
d="M232 508h173v46q0 166 168 166q35 0 69 -8v-99q-9 3 -25 3q-38 0 -56 -18.5t-18 -60.5v-29h96v-104h-96v-404h-138v404h-173v-404h-138v404h-84v104h84v46q0 166 168 166q35 0 69 -8v-99q-9 3 -25 3q-38 0 -56 -18.5t-18 -60.5v-29zM720 0v508h140v-508h-140zM720 712
h140v-120h-140v120z" />
    <glyph glyph-name="f_f_l" unicode="ffl" horiz-adv-x="928" 
d="M232 508h173v46q0 166 168 166q35 0 69 -8v-99q-9 3 -25 3q-38 0 -56 -18.5t-18 -60.5v-29h96v-104h-96v-404h-138v404h-173v-404h-138v404h-84v104h84v46q0 166 168 166q35 0 69 -8v-99q-9 3 -25 3q-38 0 -56 -18.5t-18 -60.5v-29zM720 712h140v-712h-140v712z" />
    <glyph glyph-name="f_i" unicode="fi" horiz-adv-x="617" 
d="M10 508h84v46q0 166 168 166q35 0 69 -8v-99q-9 3 -25 3q-38 0 -56 -18.5t-18 -60.5v-29h96v-104h-96v-404h-138v404h-84v104zM409 0v508h140v-508h-140zM409 712h140v-120h-140v120z" />
    <glyph glyph-name="f_l" unicode="fl" horiz-adv-x="617" 
d="M10 508h84v46q0 166 168 166q35 0 69 -8v-99q-9 3 -25 3q-38 0 -56 -18.5t-18 -60.5v-29h96v-104h-96v-404h-138v404h-84v104zM409 712h140v-712h-140v712z" />
    <glyph glyph-name=".notdef" horiz-adv-x="642" 
d="M151 777h340q62 0 98.5 -36.5t36.5 -98.5v-572q0 -62 -36.5 -98.5t-98.5 -36.5h-340q-62 0 -98.5 36.5t-36.5 98.5v572q0 62 36.5 98.5t98.5 36.5zM491 713h-340q-33 0 -52 -19t-19 -52v-572q0 -33 19 -52t52 -19h340q33 0 52 19t19 52v572q0 33 -19 52t-52 19zM379 177
v-112h-128v112h128zM323 647q84 0 132 -40.5t48 -110.5q0 -41 -15 -69.5t-57 -67.5q-40 -37 -52.5 -64t-12.5 -76h-102q-1 11 -1 31q0 55 13 85t54 72q30 30 38.5 46.5t8.5 40.5t-14 38t-40 14q-63 0 -64 -80h-125q1 88 50.5 134.5t138.5 46.5z" />
    <glyph glyph-name=".null" horiz-adv-x="0" 
 />
    <glyph glyph-name="nonmarkingreturn" horiz-adv-x="333" 
 />
    <glyph glyph-name="space" unicode=" " horiz-adv-x="230" 
 />
    <glyph glyph-name="space" unicode="&#xa0;" horiz-adv-x="230" 
 />
    <glyph glyph-name="exclam" unicode="!" horiz-adv-x="324" 
d="M239 132v-132h-154v132h154zM247 712l-31 -514h-108l-31 514h170z" />
    <glyph glyph-name="quotedbl" unicode="&#x22;" horiz-adv-x="436" 
d="M192 712l-15 -273h-102l-15 273h132zM376 712l-15 -273h-102l-15 273h132z" />
    <glyph glyph-name="numbersign" unicode="#" horiz-adv-x="672" 
d="M621 402h-99l-21 -129h100l-16 -100h-100l-27 -173h-120l27 173h-111l-27 -173h-120l27 173h-99l16 100h99l21 129h-100l16 100h100l27 172h120l-27 -172h111l27 172h120l-27 -172h99zM381 273l20 129h-111l-20 -129h111z" />
    <glyph glyph-name="dollar" unicode="$" 
d="M564 189q0 -85 -60.5 -139t-163.5 -64v-85h-81v84q-107 9 -165 69t-58 166h133q0 -108 90 -127v197q-37 11 -61.5 19.5t-56.5 25.5t-50.5 36t-32 50t-13.5 69q0 84 58 137.5t156 61.5v75h81v-76q202 -22 202 -222h-131q0 94 -71 115v-182q52 -13 82.5 -24.5t68 -35
t55.5 -61t18 -89.5zM340 267v-175q89 13 89 90q0 32 -21.5 51t-67.5 34zM181 503q0 -32 18.5 -50t59.5 -31v162q-78 -13 -78 -81z" />
    <glyph glyph-name="percent" unicode="%" horiz-adv-x="909" 
d="M699 380q79 0 122 -51.5t43 -146.5t-43 -146.5t-122 -51.5t-122 51.5t-43 146.5t43 146.5t122 51.5zM699 300q-58 0 -58 -118t58 -118t58 118t-58 118zM210 690q79 0 122 -51.5t43 -146.5t-43 -146.5t-122 -51.5t-122 51.5t-43 146.5t43 146.5t122 51.5zM210 610
q-58 0 -58 -118t58 -118t58 118t-58 118zM684 704l-377 -734h-82l377 734h82z" />
    <glyph glyph-name="ampersand" unicode="&#x26;" horiz-adv-x="753" 
d="M757 0h-190l-53 55q-77 -71 -212 -71q-124 0 -191.5 56t-67.5 152q0 142 147 205q-41 43 -57 77t-16 82q0 78 56 125t148 47t146 -44.5t54 -120.5q0 -57 -29.5 -103t-95.5 -88l123 -127q32 57 32 157h139q-3 -153 -78 -253zM317 104q61 0 114 35l-165 170
q-75 -43 -75 -107q0 -43 33.5 -70.5t92.5 -27.5zM321 614q-31 0 -48.5 -18t-17.5 -49q0 -24 12.5 -45t47.5 -57q72 50 72 105q0 29 -18.5 46.5t-47.5 17.5z" />
    <glyph glyph-name="quotesingle" unicode="'" horiz-adv-x="252" 
d="M192 712l-15 -273h-102l-15 273h132z" />
    <glyph glyph-name="parenleft" unicode="(" horiz-adv-x="328" 
d="M183 741h115q-56 -114 -81 -219t-25 -225q0 -229 106 -444h-115q-73 105 -107 211t-34 233t34 233.5t107 210.5z" />
    <glyph glyph-name="parenright" unicode=")" horiz-adv-x="328" 
d="M30 741h115q73 -104 107 -210.5t34 -233.5t-34 -233t-107 -211h-115q106 215 106 444q0 120 -25 225t-81 219z" />
    <glyph glyph-name="asterisk" unicode="*" horiz-adv-x="426" 
d="M263 712l-16 -134l123 57l30 -96l-132 -26l91 -99l-80 -58l-66 117l-66 -117l-80 58l91 99l-132 26l30 96l123 -57l-16 134h100z" />
    <glyph glyph-name="plus" unicode="+" horiz-adv-x="566" 
d="M337 536v-165h165v-109h-165v-165h-108v165h-165v109h165v165h108z" />
    <glyph glyph-name="comma" unicode="," horiz-adv-x="258" 
d="M206 167v-167l-74 -172h-84l55 172h-51v167h154z" />
    <glyph glyph-name="hyphen" unicode="-" horiz-adv-x="320" 
d="M290 347v-110h-260v110h260z" />
    <glyph glyph-name="period" unicode="." horiz-adv-x="258" 
d="M206 167v-167h-154v167h154z" />
    <glyph glyph-name="slash" unicode="/" horiz-adv-x="488" 
d="M437 745l-298 -834h-109l298 834h109z" />
    <glyph glyph-name="zero" unicode="0" 
d="M300 690q129 0 199 -92t70 -261q0 -170 -69.5 -261.5t-199.5 -91.5t-199.5 91.5t-69.5 261.5q0 169 70 261t199 92zM300 569q-58 0 -88.5 -60.5t-30.5 -171.5q0 -113 30.5 -173.5t88.5 -60.5t88.5 60.5t30.5 173.5q0 111 -30.5 171.5t-88.5 60.5z" />
    <glyph glyph-name="one" unicode="1" 
d="M403 674v-674h-144v457h-163v102q85 0 126 27t50 88h131z" />
    <glyph glyph-name="two" unicode="2" 
d="M299 690q108 0 172.5 -52t64.5 -141q0 -83 -41.5 -133t-128.5 -101q-90 -53 -119 -82t-31 -63h337v-118h-509q-1 8 -1 22q0 104 40 171t154 133q82 48 115.5 81.5t33.5 83.5q0 36 -23 58t-64 22q-100 0 -102 -108h-145q3 110 68 168.5t179 58.5z" />
    <glyph glyph-name="three" unicode="3" 
d="M301 690q111 0 175 -51.5t64 -138.5q0 -57 -28.5 -93t-89.5 -58v-2q66 -22 97 -62t31 -104q0 -90 -67.5 -143.5t-179.5 -53.5q-126 0 -193.5 60.5t-67.5 175.5h145q0 -117 116 -117q46 0 73.5 23.5t27.5 61.5q0 91 -135 91h-21v116h21q59 0 93 24.5t34 66.5
q0 38 -27 61.5t-72 23.5q-102 0 -102 -111h-145q0 109 66 169.5t185 60.5z" />
    <glyph glyph-name="four" unicode="4" 
d="M579 264v-113h-95v-151h-144v151h-326v120l276 403h194v-410h95zM214 358l-66 -94h196v82q0 119 7 224h-2q-59 -101 -135 -212z" />
    <glyph glyph-name="five" unicode="5" 
d="M517 674v-117h-309l-17 -159h2q49 51 132 51q101 0 163.5 -62t62.5 -162q0 -110 -71.5 -175.5t-188.5 -65.5q-111 0 -176.5 54t-65.5 147h145q1 -39 29.5 -61t68.5 -22q52 0 80.5 30t28.5 87q0 56 -29 85.5t-78 29.5q-38 0 -63.5 -19t-32.5 -51l-143 9l38 401h424z" />
    <glyph glyph-name="six" unicode="6" 
d="M324 690q100 0 160 -53t65 -147h-146q-11 82 -87 82q-58 0 -94.5 -49.5t-39.5 -152.5h2q59 70 154 70q99 0 159.5 -61t60.5 -159q0 -106 -70 -171t-183 -65q-125 0 -192 84t-67 249q0 179 72.5 276t205.5 97zM307 331q-46 0 -74 -32.5t-28 -86.5q0 -50 27 -80t73 -30
q47 0 75 30.5t28 82.5q0 53 -27.5 84.5t-73.5 31.5z" />
    <glyph glyph-name="seven" unicode="7" 
d="M43 674h503v-124q-75 -107 -132 -251t-84 -299h-157q35 172 99.5 318t134.5 234h-364v122z" />
    <glyph glyph-name="eight" unicode="8" 
d="M300 690q108 0 175.5 -51t67.5 -135q0 -55 -32.5 -95.5t-89.5 -57.5v-2q63 -17 99.5 -61t36.5 -107q0 -92 -70 -144.5t-187 -52.5t-187 52.5t-70 144.5q0 63 36.5 107t99.5 61v2q-57 17 -89.5 57.5t-32.5 95.5q0 84 67.5 135t175.5 51zM300 289q-51 0 -81.5 -25.5
t-30.5 -67.5q0 -43 30 -68t82 -25t82 25t30 68q0 42 -30.5 67.5t-81.5 25.5zM300 573q-47 0 -75.5 -22t-28.5 -59q0 -41 28 -64.5t76 -23.5t76 23.5t28 64.5q0 37 -28.5 59t-75.5 22z" />
    <glyph glyph-name="nine" unicode="9" 
d="M256 -16q-100 0 -160 53t-65 147h146q11 -82 87 -82q58 0 94.5 49.5t39.5 152.5h-2q-59 -70 -154 -70q-99 0 -159.5 61t-60.5 159q0 106 70 171t183 65q125 0 192 -84t67 -249q0 -179 -72.5 -276t-205.5 -97zM273 343q46 0 74 32.5t28 86.5q0 50 -27 80t-73 30
q-47 0 -75 -30.5t-28 -82.5q0 -53 27.5 -84.5t73.5 -31.5z" />
    <glyph glyph-name="colon" unicode=":" horiz-adv-x="258" 
d="M206 167v-167h-154v167h154zM206 508v-167h-154v167h154z" />
    <glyph glyph-name="semicolon" unicode=";" horiz-adv-x="258" 
d="M206 508v-167h-154v167h154zM206 167v-167l-74 -172h-84l55 172h-51v167h154z" />
    <glyph glyph-name="less" unicode="&#x3c;" horiz-adv-x="566" 
d="M502 559v-118l-309 -123v-2l309 -123v-118l-438 181v122z" />
    <glyph glyph-name="equal" unicode="=" horiz-adv-x="566" 
d="M502 466v-109h-438v109h438zM502 276v-109h-438v109h438z" />
    <glyph glyph-name="greater" unicode="&#x3e;" horiz-adv-x="566" 
d="M64 559l438 -181v-122l-438 -181v118l309 123v2l-309 123v118z" />
    <glyph glyph-name="question" unicode="?" horiz-adv-x="547" 
d="M339 132v-132h-154v132h154zM277 727q109 0 171 -50t62 -136q0 -52 -20 -87t-80 -87q-54 -46 -70.5 -80t-16.5 -101h-119q-1 12 -1 32q0 73 18 113t77 94q42 38 54 59.5t12 52.5q0 32 -22.5 50.5t-64.5 18.5q-97 0 -101 -101h-146q3 109 66.5 165.5t180.5 56.5z" />
    <glyph glyph-name="at" unicode="@" horiz-adv-x="872" 
d="M448 704q176 0 281.5 -102.5t105.5 -272.5q0 -126 -59 -193t-145 -67q-103 0 -124 83h-2q-42 -83 -131 -83q-70 0 -110 51t-41 146q1 112 55 182t139 70q77 0 105 -68h2q9 46 12 58h111q-41 -196 -41 -287q0 -60 44 -60q42 0 70.5 43t28.5 125q0 131 -82 210.5t-219 79.5
q-153 0 -239 -96t-86 -245q0 -145 84 -227.5t226 -82.5q130 0 218 53l39 -76q-108 -62 -257 -62q-182 0 -289 105.5t-107 289.5q0 181 112 303.5t299 122.5zM436 415q-40 0 -66.5 -38.5t-26.5 -106.5q0 -47 17.5 -72t48.5 -25q38 0 64.5 40t26.5 113q0 42 -16.5 65.5
t-47.5 23.5z" />
    <glyph glyph-name="A" unicode="A" horiz-adv-x="698" 
d="M541 0l-55 174h-273l-56 -174h-154l247 712h198l247 -712h-154zM253 300h193l-15 47q-49 156 -81 278h-2q-37 -140 -80 -278z" />
    <glyph glyph-name="B" unicode="B" horiz-adv-x="650" 
d="M82 0v712h256q129 0 194 -49t65 -134q0 -120 -124 -166v-2q73 -16 107 -56.5t34 -109.5q0 -90 -67.5 -142.5t-186.5 -52.5h-278zM334 303h-105v-182h109q67 0 97 21.5t30 67.5q0 49 -30.5 71t-100.5 22zM340 592h-111v-173h104q64 0 93.5 21t29.5 67q0 44 -27.5 64.5
t-88.5 20.5z" />
    <glyph glyph-name="B" unicode="&#xe000;" horiz-adv-x="650" 
d="M82 0v712h256q129 0 194 -49t65 -134q0 -120 -124 -166v-2q73 -16 107 -56.5t34 -109.5q0 -90 -67.5 -142.5t-186.5 -52.5h-278zM334 303h-105v-182h109q67 0 97 21.5t30 67.5q0 49 -30.5 71t-100.5 22zM340 592h-111v-173h104q64 0 93.5 21t29.5 67q0 44 -27.5 64.5
t-88.5 20.5z" />
    <glyph glyph-name="C" unicode="C" horiz-adv-x="701" 
d="M363 728q130 0 210 -72.5t85 -190.5h-148q-7 62 -46 97.5t-101 35.5q-81 0 -127.5 -64.5t-46.5 -177.5t45.5 -177.5t125.5 -64.5q63 0 102.5 35.5t47.5 100.5h151q-10 -126 -90 -196t-211 -70q-150 0 -236.5 99.5t-86.5 272.5t87.5 272.5t238.5 99.5z" />
    <glyph glyph-name="D" unicode="D" horiz-adv-x="734" 
d="M82 0v712h237q182 0 280 -92.5t98 -263.5t-98 -263.5t-280 -92.5h-237zM317 586h-89v-460h89q228 0 228 230t-228 230z" />
    <glyph glyph-name="E" unicode="E" horiz-adv-x="633" 
d="M574 712v-126h-345v-161h322v-125h-322v-174h354v-126h-501v712h492z" />
    <glyph glyph-name="E" unicode="&#xe001;" horiz-adv-x="633" 
d="M574 712v-126h-345v-161h322v-125h-322v-174h354v-126h-501v712h492z" />
    <glyph glyph-name="F" unicode="F" horiz-adv-x="584" 
d="M557 712v-126h-328v-194h303v-126h-303v-266h-147v712h475z" />
    <glyph glyph-name="G" unicode="G" horiz-adv-x="744" 
d="M375 728q130 0 208 -63.5t89 -174.5h-158q-20 108 -139 108q-86 0 -136 -65.5t-50 -179.5q0 -117 49 -184t134 -67q77 0 118 43.5t42 125.5h-169v120h306v-391h-124v77h-2q-65 -91 -208 -91q-137 0 -217.5 98.5t-80.5 268.5q0 174 91 274.5t247 100.5z" />
    <glyph glyph-name="H" unicode="H" horiz-adv-x="750" 
d="M668 712v-712h-147v307h-292v-307h-147v712h147v-279h292v279h147z" />
    <glyph glyph-name="I" unicode="I" horiz-adv-x="311" 
d="M229 712v-712h-147v712h147z" />
    <glyph glyph-name="J" unicode="J" horiz-adv-x="392" 
d="M168 712h147v-485q0 -121 -56.5 -177.5t-178.5 -56.5q-38 0 -65 8v125q27 -5 47 -5q57 0 81.5 28.5t24.5 108.5v454z" />
    <glyph glyph-name="K" unicode="K" horiz-adv-x="663" 
d="M636 712l-271 -338l294 -374h-187l-241 336h-2v-336h-147v712h147v-313h2l233 313h172z" />
    <glyph glyph-name="L" unicode="L" horiz-adv-x="575" 
d="M229 712v-586h336v-126h-483v712h147z" />
    <glyph glyph-name="M" unicode="M" horiz-adv-x="984" 
d="M902 712v-712h-141v354q0 134 6 267h-2q-33 -126 -76 -262l-113 -359h-168l-113 359q-43 136 -76 262h-2q6 -133 6 -267v-354h-141v712h236l103 -327q42 -134 70 -262h2q28 128 70 262l103 327h236z" />
    <glyph glyph-name="N" unicode="N" horiz-adv-x="776" 
d="M694 712v-712h-209l-138 289q-76 161 -130 294h-2q8 -165 8 -309v-274h-141v712h209l138 -289q76 -161 130 -294h2q-8 165 -8 309v274h141z" />
    <glyph glyph-name="O" unicode="O" horiz-adv-x="748" 
d="M374 728q157 0 247 -99.5t90 -272.5t-90 -272.5t-247 -99.5t-247 99.5t-90 272.5t90 272.5t247 99.5zM374 598q-86 0 -135.5 -64.5t-49.5 -177.5t49.5 -177.5t135.5 -64.5t135.5 64.5t49.5 177.5t-49.5 177.5t-135.5 64.5z" />
    <glyph glyph-name="P" unicode="P" horiz-adv-x="636" 
d="M82 0v712h269q127 0 194 -62t67 -168t-67 -168t-194 -62h-122v-252h-147zM331 590h-102v-216h102q131 0 131 108t-131 108z" />
    <glyph glyph-name="Q" unicode="Q" horiz-adv-x="748" 
d="M711 356q0 -170 -86 -267l81 -91l-78 -73l-87 97q-71 -38 -167 -38q-157 0 -247 99.5t-90 272.5t90 272.5t247 99.5t247 -99.5t90 -272.5zM377 106q41 0 74 15l-99 110l81 74l97 -109q35 61 35 156q0 114 -50 180t-138 66t-138 -66t-50 -180t50 -180t138 -66z" />
    <glyph glyph-name="R" unicode="R" horiz-adv-x="666" 
d="M82 0v712h262q260 0 260 -201q0 -65 -35 -111t-95 -63v-2q38 -14 60 -42.5t47 -95.5l71 -197h-160l-57 169q-20 58 -46.5 80.5t-78.5 22.5h-81v-272h-147zM325 593h-96v-204h104q123 0 123 105q0 99 -131 99z" />
    <glyph glyph-name="S" unicode="S" horiz-adv-x="630" 
d="M301 728q133 0 201.5 -59.5t68.5 -174.5h-149q0 56 -32 86.5t-92 30.5q-49 0 -79 -21.5t-30 -56.5q0 -39 32.5 -59t122.5 -42q49 -12 78.5 -21t66.5 -27t57 -39.5t34 -56t14 -79.5q0 -101 -76.5 -163t-201.5 -62q-135 0 -211.5 65t-76.5 185h152q0 -131 138 -131
q56 0 89.5 24.5t33.5 66.5q0 44 -30 61.5t-117 39.5q-52 13 -79.5 21.5t-67 26.5t-59.5 38.5t-35 55.5t-15 80q0 94 73 152.5t190 58.5z" />
    <glyph glyph-name="S" unicode="&#xe002;" horiz-adv-x="630" 
d="M301 728q133 0 201.5 -59.5t68.5 -174.5h-149q0 56 -32 86.5t-92 30.5q-49 0 -79 -21.5t-30 -56.5q0 -39 32.5 -59t122.5 -42q49 -12 78.5 -21t66.5 -27t57 -39.5t34 -56t14 -79.5q0 -101 -76.5 -163t-201.5 -62q-135 0 -211.5 65t-76.5 185h152q0 -131 138 -131
q56 0 89.5 24.5t33.5 66.5q0 44 -30 61.5t-117 39.5q-52 13 -79.5 21.5t-67 26.5t-59.5 38.5t-35 55.5t-15 80q0 94 73 152.5t190 58.5z" />
    <glyph glyph-name="T" unicode="T" horiz-adv-x="615" 
d="M605 712v-126h-224v-586h-147v586h-224v126h595z" />
    <glyph glyph-name="U" unicode="U" horiz-adv-x="718" 
d="M495 712h147v-440q0 -140 -73.5 -214t-209.5 -74t-209.5 74t-73.5 214v440h147v-435q0 -79 35 -121t101 -42t101 42t35 121v435z" />
    <glyph glyph-name="V" unicode="V" horiz-adv-x="638" 
d="M632 712l-221 -712h-184l-221 712h150l85 -277q46 -146 77 -291h2q28 127 77 291l85 277h150z" />
    <glyph glyph-name="W" unicode="W" horiz-adv-x="956" 
d="M947 712l-149 -712h-191l-66 282q-37 157 -62 305h-2q-25 -148 -62 -305l-66 -282h-191l-149 712h144l51 -259q32 -162 52 -308h2q27 151 65 308l62 259h186l62 -259q38 -157 65 -308h2q20 146 52 308l51 259h144z" />
    <glyph glyph-name="X" unicode="X" horiz-adv-x="630" 
d="M616 712l-212 -350l223 -362h-171l-140 252h-2l-140 -252h-171l223 362l-212 350h168l132 -246h2l132 246h168z" />
    <glyph glyph-name="Y" unicode="Y" horiz-adv-x="638" 
d="M635 712l-243 -435v-277h-147v277l-243 435h165l68 -134q45 -89 83 -181h2q38 92 83 181l68 134h164z" />
    <glyph glyph-name="Z" unicode="Z" horiz-adv-x="582" 
d="M545 712v-129l-350 -457v-2h367v-124h-542v129l350 457v2h-334v124h509z" />
    <glyph glyph-name="bracketleft" unicode="[" horiz-adv-x="329" 
d="M314 741v-81h-112v-728h112v-81h-244v890h244z" />
    <glyph glyph-name="backslash" unicode="\" horiz-adv-x="488" 
d="M51 745h109l298 -834h-109z" />
    <glyph glyph-name="bracketright" unicode="]" horiz-adv-x="329" 
d="M15 741h244v-890h-244v81h112v728h-112v81z" />
    <glyph glyph-name="asciicircum" unicode="^" horiz-adv-x="496" 
d="M322 712l166 -341h-129l-110 231h-2l-110 -231h-129l166 341h148z" />
    <glyph glyph-name="underscore" unicode="_" horiz-adv-x="500" 
d="M500 -50v-76h-500v76h500z" />
    <glyph glyph-name="grave" unicode="`" horiz-adv-x="350" 
d="M50 712h173l77 -146h-110z" />
    <glyph glyph-name="a" unicode="a" horiz-adv-x="547" 
d="M267 524q218 0 218 -201v-184q0 -86 14 -139h-126q-7 29 -7 68h-2q-56 -80 -165 -80q-79 0 -126 43.5t-47 110.5q0 65 45.5 105t151.5 57q64 10 127 14v18q0 90 -83 90q-39 0 -60.5 -20.5t-23.5 -56.5h-136q4 77 60 126t160 49zM350 214v19q-60 -4 -102 -11
q-44 -8 -63 -24t-19 -46q0 -29 19.5 -46.5t55.5 -17.5q51 0 80 29t29 97z" />
    <glyph glyph-name="b" unicode="b" horiz-adv-x="598" 
d="M208 712v-265h2q48 74 144 74q95 0 152 -72.5t57 -194.5q0 -121 -57.5 -194t-153.5 -73q-45 0 -84 21t-62 59h-2v-67h-136v712h140zM307 414q-48 0 -77 -42.5t-29 -117.5t29 -117.5t77 -42.5q50 0 80 43.5t30 116.5t-30 116.5t-80 43.5z" />
    <glyph glyph-name="b" unicode="&#xe003;" horiz-adv-x="598" 
d="M208 712v-265h2q48 74 144 74q95 0 152 -72.5t57 -194.5q0 -121 -57.5 -194t-153.5 -73q-45 0 -84 21t-62 59h-2v-67h-136v712h140zM307 414q-48 0 -77 -42.5t-29 -117.5t29 -117.5t77 -42.5q50 0 80 43.5t30 116.5t-30 116.5t-80 43.5z" />
    <glyph glyph-name="c" unicode="c" horiz-adv-x="562" 
d="M291 524q101 0 166.5 -57t73.5 -148h-146q-4 45 -29.5 71t-65.5 26q-51 0 -80 -43.5t-29 -118.5t29 -118.5t80 -43.5q40 0 65.5 28.5t28.5 78.5h147q-8 -97 -73 -156t-167 -59q-116 0 -186 73.5t-70 196.5t70 196.5t186 73.5z" />
    <glyph glyph-name="d" unicode="d" horiz-adv-x="598" 
d="M530 712v-712h-136v67h-2q-23 -38 -62 -59t-84 -21q-96 0 -153.5 73t-57.5 194q0 122 57 194.5t152 72.5q96 0 144 -74h2v265h140zM291 414q-50 0 -80 -43.5t-30 -116.5t30 -116.5t80 -43.5q48 0 77 42.5t29 117.5t-29 117.5t-77 42.5z" />
    <glyph glyph-name="e" unicode="e" horiz-adv-x="573" 
d="M288 83q41 0 68 19.5t32 51.5h143q-16 -73 -81 -121.5t-162 -48.5q-118 0 -185.5 75t-67.5 199q0 116 68 191t184 75q87 0 149 -45.5t86 -123.5q16 -51 16 -130h-365q3 -74 34.5 -108t80.5 -34zM287 425q-44 0 -73.5 -28t-37.5 -84h222q-6 55 -36.5 83.5t-74.5 28.5z" />
    <glyph glyph-name="f" unicode="f" horiz-adv-x="341" 
d="M306 616q-38 0 -56 -18.5t-18 -60.5v-29h96v-104h-96v-404h-138v404h-84v104h84v46q0 166 168 166q35 0 69 -8v-99q-9 3 -25 3z" />
    <glyph glyph-name="g" unicode="g" horiz-adv-x="591" 
d="M245 522q89 0 144 -82h2v68h132v-476q0 -112 -64 -169t-177 -57q-103 0 -161 43t-64 119h140q2 -29 25 -45.5t63 -16.5q50 0 76 30t26 101v45h-2q-54 -76 -142 -76q-95 0 -151.5 70t-56.5 188t57 188t153 70zM283 407q-47 0 -74.5 -38.5t-27.5 -104.5t27.5 -104.5
t74.5 -38.5q49 0 78.5 39t29.5 104t-29.5 104t-78.5 39z" />
    <glyph glyph-name="h" unicode="h" 
d="M208 712v-260h2q53 68 140 68t137 -53.5t50 -154.5v-312h-140v298q0 112 -89 112q-45 0 -72.5 -35.5t-27.5 -102.5v-272h-140v712h140z" />
    <glyph glyph-name="i" unicode="i" horiz-adv-x="276" 
d="M208 508v-508h-140v508h140zM208 712v-120h-140v120h140z" />
    <glyph glyph-name="j" unicode="j" horiz-adv-x="278" 
d="M70 508h140v-519q0 -92 -46.5 -135.5t-126.5 -43.5q-37 0 -69 8v101q12 -3 27 -3q39 0 57 20.5t18 73.5v498zM210 712v-120h-140v120h140z" />
    <glyph glyph-name="k" unicode="k" horiz-adv-x="543" 
d="M339 274l214 -274h-173l-170 238h-2v-238h-140v712h140v-409h2l164 205h158z" />
    <glyph glyph-name="l" unicode="l" horiz-adv-x="276" 
d="M208 712v-712h-140v712h140z" />
    <glyph glyph-name="m" unicode="m" horiz-adv-x="897" 
d="M656 520q83 0 130.5 -53t47.5 -155v-312h-140v298q0 112 -80 112q-45 0 -69 -38.5t-24 -110.5v-261h-140v307q0 49 -20.5 76t-59.5 27q-45 0 -69 -38.5t-24 -110.5v-261h-140v508h132v-58h2q54 70 141 70q108 0 151 -87q61 87 162 87z" />
    <glyph glyph-name="n" unicode="n" 
d="M350 520q87 0 137 -53.5t50 -154.5v-312h-140v298q0 112 -89 112q-45 0 -72.5 -35.5t-27.5 -102.5v-272h-140v508h131v-64h2q56 76 149 76z" />
    <glyph glyph-name="o" unicode="o" horiz-adv-x="590" 
d="M295 524q119 0 189.5 -73t70.5 -197t-70.5 -197t-189.5 -73t-189.5 73t-70.5 197t70.5 197t189.5 73zM295 416q-52 0 -82.5 -44t-30.5 -118t30.5 -118t82.5 -44t82.5 44t30.5 118t-30.5 118t-82.5 44z" />
    <glyph glyph-name="p" unicode="p" horiz-adv-x="598" 
d="M352 521q96 0 153.5 -73t57.5 -194q0 -122 -57 -194.5t-152 -72.5q-96 0 -144 74h-2v-246h-140v693h136v-67h2q23 38 62 59t84 21zM307 414q-48 0 -77 -42.5t-29 -117.5t29 -117.5t77 -42.5q50 0 80 43.5t30 116.5t-30 116.5t-80 43.5z" />
    <glyph glyph-name="q" unicode="q" horiz-adv-x="598" 
d="M246 521q45 0 84 -21t62 -59h2v67h136v-693h-140v246h-2q-48 -74 -144 -74q-95 0 -152 72.5t-57 194.5q0 121 57.5 194t153.5 73zM291 414q-50 0 -80 -43.5t-30 -116.5t30 -116.5t80 -43.5q48 0 77 42.5t29 117.5t-29 117.5t-77 42.5z" />
    <glyph glyph-name="r" unicode="r" horiz-adv-x="392" 
d="M338 516q25 0 46 -6v-121q-27 5 -44 5q-64 0 -98 -39.5t-34 -114.5v-240h-140v508h129v-72h2q49 80 139 80z" />
    <glyph glyph-name="s" unicode="s" horiz-adv-x="524" 
d="M257 524q101 0 157 -44t56 -128h-134q0 74 -80 74q-69 0 -69 -47q0 -25 22 -36.5t87 -28.5q40 -11 56.5 -15.5t48.5 -19t46.5 -30t27 -43t12.5 -63.5q0 -72 -60.5 -115.5t-163.5 -43.5q-108 0 -168 45.5t-60 135.5h142q0 -38 23 -59t66 -21q74 0 74 49q0 34 -39 50
q-18 8 -78 24q-24 6 -29 7.5t-27 8t-28 10t-23.5 11.5t-23.5 15t-17.5 18.5t-15.5 24t-8 29.5t-4 36q0 69 58 112.5t152 43.5z" />
    <glyph glyph-name="s" unicode="&#xe004;" horiz-adv-x="524" 
d="M257 524q101 0 157 -44t56 -128h-134q0 74 -80 74q-69 0 -69 -47q0 -25 22 -36.5t87 -28.5q40 -11 56.5 -15.5t48.5 -19t46.5 -30t27 -43t12.5 -63.5q0 -72 -60.5 -115.5t-163.5 -43.5q-108 0 -168 45.5t-60 135.5h142q0 -38 23 -59t66 -21q74 0 74 49q0 34 -39 50
q-18 8 -78 24q-24 6 -29 7.5t-27 8t-28 10t-23.5 11.5t-23.5 15t-17.5 18.5t-15.5 24t-8 29.5t-4 36q0 69 58 112.5t152 43.5z" />
    <glyph glyph-name="t" unicode="t" horiz-adv-x="357" 
d="M296 105q21 0 36 5v-107q-32 -10 -74 -10q-88 0 -128 38.5t-40 126.5v246h-82v104h82v132h140v-132h97v-104h-97v-221q0 -42 15 -60t51 -18z" />
    <glyph glyph-name="u" unicode="u" 
d="M250 -12q-87 0 -137 53.5t-50 154.5v312h140v-298q0 -112 89 -112q45 0 72.5 35.5t27.5 102.5v272h140v-508h-131v64h-2q-56 -76 -149 -76z" />
    <glyph glyph-name="v" unicode="v" horiz-adv-x="510" 
d="M517 508l-171 -508h-182l-171 508h146l59 -200q33 -112 56 -220h2q23 108 56 220l59 200h146z" />
    <glyph glyph-name="w" unicode="w" horiz-adv-x="810" 
d="M805 508l-112 -508h-200l-45 200q-23 104 -42 217h-2q-19 -113 -42 -217l-45 -200h-200l-112 508h139l38 -196q24 -123 37 -221h2q18 112 43 219l45 198h192l45 -198q25 -107 43 -219h2q13 98 37 221l38 196h139z" />
    <glyph glyph-name="x" unicode="x" horiz-adv-x="508" 
d="M503 508l-163 -247l174 -261h-163l-96 172h-2l-96 -172h-163l174 261l-163 247h161l87 -149h2l87 149h161z" />
    <glyph glyph-name="y" unicode="y" horiz-adv-x="504" 
d="M367 508h144l-182 -511q-38 -106 -92 -147t-150 -41q-39 0 -73 8v112q22 -8 54 -8q42 0 67.5 22.5t25.5 59.5q0 24 -24 92l-144 413h150l52 -170q32 -107 56 -213h2q30 123 59 213z" />
    <glyph glyph-name="y" unicode="&#xe006;" horiz-adv-x="504" 
d="M367 508h144l-182 -511q-38 -106 -92 -147t-150 -41q-39 0 -73 8v112q22 -8 54 -8q42 0 67.5 22.5t25.5 59.5q0 24 -24 92l-144 413h150l52 -170q32 -107 56 -213h2q30 123 59 213z" />
    <glyph glyph-name="z" unicode="z" horiz-adv-x="484" 
d="M446 508v-114l-249 -282v-2h259v-110h-428v114l249 282v2h-239v110h408z" />
    <glyph glyph-name="braceleft" unicode="{" horiz-adv-x="338" 
d="M289 741h24v-80q-43 -2 -61.5 -21.5t-18.5 -68.5v-144q0 -56 -22 -86.5t-72 -44.5v-3q50 -14 72 -44.5t22 -86.5v-144q0 -49 18.5 -68.5t61.5 -20.5v-81h-24q-102 0 -142.5 41t-40.5 137v133q0 43 -14 62.5t-52 29.5v87q38 11 52 30.5t14 61.5v134q0 95 40.5 136
t142.5 41z" />
    <glyph glyph-name="bar" unicode="|" horiz-adv-x="294" 
d="M210 732v-937h-126v937h126z" />
    <glyph glyph-name="braceright" unicode="}" horiz-adv-x="338" 
d="M25 661v80h24q102 0 142.5 -41t40.5 -136v-134q0 -42 14 -61.5t52 -30.5v-87q-38 -10 -52 -29.5t-14 -62.5v-133q0 -96 -40.5 -137t-142.5 -41h-24v81q43 1 61.5 20.5t18.5 68.5v144q0 56 22 86.5t72 44.5v3q-50 14 -72 44.5t-22 86.5v144q0 49 -18.5 68.5t-61.5 21.5z
" />
    <glyph glyph-name="asciitilde" unicode="~" horiz-adv-x="594" 
d="M189 419q43 0 83.5 -24t74 -48t60.5 -24q32 0 52 23.5t20 63.5h90q0 -88 -45.5 -141.5t-118.5 -53.5q-34 0 -67.5 15t-55.5 32.5t-48 32.5t-48 15q-32 0 -51.5 -23.5t-19.5 -63.5h-90q0 88 46 142t118 54z" />
    <glyph glyph-name="exclamdown" unicode="&#xa1;" horiz-adv-x="324" 
d="M77 -204l31 514h108l31 -514h-170zM85 376v132h154v-132h-154z" />
    <glyph glyph-name="cent" unicode="&#xa2;" 
d="M345 487v-309q51 24 56 99h147q-8 -88 -62 -145.5t-141 -67.5v-90h-81v91q-98 14 -155 85t-57 182t57 182t155 85v91h81v-90q86 -10 140.5 -65.5t62.5 -137.5h-146q-6 68 -57 90zM198 332q0 -119 66 -152v304q-66 -33 -66 -152z" />
    <glyph glyph-name="sterling" unicode="&#xa3;" 
d="M199 118v-2h366v-116h-541v118q45 0 67.5 30t22.5 101v28h-90v117h90v57q0 239 236 239q104 0 163 -58t59 -159h-141q0 47 -21 72t-60 25q-89 0 -89 -119v-57h122v-117h-122v-26q0 -54 -14 -84t-48 -49z" />
    <glyph glyph-name="currency" unicode="&#xa4;" 
d="M521 291q0 -65 -30 -116l72 -76l-87 -81l-71 77q-49 -22 -105 -22t-105 22l-71 -77l-87 81l72 76q-30 51 -30 116t30 116l-72 76l87 81l71 -77q49 22 105 22t105 -22l71 77l87 -81l-72 -76q30 -51 30 -116zM300 179q49 0 78.5 31t29.5 81t-29.5 81t-78.5 31t-78.5 -31
t-29.5 -81t29.5 -81t78.5 -31z" />
    <glyph glyph-name="yen" unicode="&#xa5;" 
d="M587 674l-175 -327h122v-70h-160v-40h160v-70h-160v-167h-148v167h-160v70h160v40h-160v70h122l-175 327h163l46 -96q43 -90 77 -181h2q34 91 77 181l46 96h163z" />
    <glyph glyph-name="brokenbar" unicode="&#xa6;" horiz-adv-x="294" 
d="M210 732v-350h-126v350h126zM210 145v-350h-126v350h126z" />
    <glyph glyph-name="section" unicode="&#xa7;" horiz-adv-x="646" 
d="M323 728q210 0 222 -186h-141q-5 73 -81 73q-30 0 -48.5 -14t-18.5 -38q0 -29 19.5 -42.5t97.5 -42.5q43 -16 68.5 -27t56 -29.5t46.5 -38.5t27 -49.5t11 -66.5q0 -91 -88 -147v-2q47 -35 47 -106q0 -78 -59.5 -123t-158.5 -45q-107 0 -168 46t-65 138h142q8 -71 88 -71
q34 0 54.5 14.5t20.5 40.5q0 30 -25.5 47.5t-118.5 55.5q-95 39 -141 80t-46 118q0 94 89 149v2q-43 34 -43 97q0 76 59.5 121.5t153.5 45.5zM338 358l-100 42q-38 -21 -38 -66q0 -36 24 -60t93 -52q26 -10 92 -40q37 20 37 69q0 33 -22.5 57.5t-85.5 49.5z" />
    <glyph glyph-name="dieresis" unicode="&#xa8;" horiz-adv-x="440" 
d="M173 712v-120h-123v120h123zM390 712v-120h-123v120h123z" />
    <glyph glyph-name="copyright" unicode="&#xa9;" horiz-adv-x="802" 
d="M401 726q162 0 261 -102t99 -268t-99 -268t-261 -102t-261 102t-99 268t99 268t261 102zM401 671q-138 0 -222 -86.5t-84 -228.5t84 -228.5t222 -86.5t222.5 86.5t84.5 228.5t-84.5 228.5t-222.5 86.5zM403 587q85 0 136 -46t55 -123h-97q-3 41 -27.5 65.5t-66.5 24.5
q-50 0 -78.5 -41t-28.5 -112q0 -70 28.5 -110.5t76.5 -40.5q41 0 67 25t31 68h98q-7 -81 -59.5 -126.5t-136.5 -45.5q-94 0 -148 61.5t-54 168.5q0 108 54.5 170t149.5 62z" />
    <glyph glyph-name="ordfeminine" unicode="&#xaa;" horiz-adv-x="412" 
d="M201 697q166 0 166 -145v-121q0 -62 11 -101h-108q-6 21 -6 46h-1q-42 -55 -119 -55q-58 0 -92 31t-34 79q0 47 34 75t112 40q49 7 87 9v13q0 54 -51 54q-49 0 -51 -49h-116q3 54 45 89t123 35zM251 478v13q-35 -2 -64 -8q-50 -10 -50 -44q0 -40 46 -40q68 0 68 79z" />
    <glyph glyph-name="guillemetleft" unicode="&#xab;" horiz-adv-x="532" 
d="M280 454l-108 -200l108 -200h-122l-114 200l114 200h122zM488 454l-108 -200l108 -200h-122l-114 200l114 200h122z" />
    <glyph glyph-name="logicalnot" unicode="&#xac;" horiz-adv-x="566" 
d="M502 462v-330h-108v221h-330v109h438z" />
    <glyph glyph-name="softhyphen" unicode="&#xad;" horiz-adv-x="320" 
d="M290 347v-110h-260v110h260z" />
    <glyph glyph-name="registered" unicode="&#xae;" horiz-adv-x="592" 
d="M296 728q113 0 182 -71t69 -187t-69 -187t-182 -71t-182 71t-69 187t69 187t182 71zM296 692q-97 0 -156 -61t-59 -161t59 -161t156 -61t156 61t59 161t-59 161t-156 61zM176 316v316h128q54 0 82 -24t28 -66q0 -28 -15.5 -49t-42.5 -28v-2q29 -8 46 -56l33 -91h-72
l-27 77q-7 24 -20 33.5t-36 9.5h-36v-120h-68zM290 577h-46v-87h43q60 0 60 46q0 41 -57 41z" />
    <glyph glyph-name="macron" unicode="&#xaf;" horiz-adv-x="426" 
d="M376 689v-91h-326v91h326z" />
    <glyph glyph-name="degree" unicode="&#xb0;" horiz-adv-x="339" 
d="M170 722q56 0 95.5 -39.5t39.5 -95.5t-39.5 -95.5t-95.5 -39.5t-96 39.5t-40 95.5t40 95.5t96 39.5zM170 652q-27 0 -46 -19t-19 -46t19 -46t46 -19t46 19t19 46t-19 46t-46 19z" />
    <glyph glyph-name="plusminus" unicode="&#xb1;" horiz-adv-x="566" 
d="M502 109v-109h-438v109h438zM337 566v-155h165v-109h-165v-155h-108v155h-165v109h165v155h108z" />
    <glyph glyph-name="twosuperior" unicode="&#xb2;" horiz-adv-x="458" 
d="M230 813q83 0 133 -39t50 -102q0 -57 -32 -92t-95 -66q-62 -30 -82.5 -47.5t-22.5 -37.5h244v-99h-389q-1 7 -1 23q0 75 30 123.5t110 90.5q60 31 85 52.5t25 51.5q0 21 -14.5 34t-40.5 13q-63 0 -65 -69h-124q1 79 51 121.5t138 42.5z" />
    <glyph glyph-name="threesuperior" unicode="&#xb3;" horiz-adv-x="452" 
d="M228 813q85 0 134.5 -36t49.5 -98q0 -74 -85 -104v-2q47 -15 69 -42t22 -70q0 -65 -51.5 -103.5t-137.5 -38.5q-97 0 -148.5 43t-51.5 125h125q0 -73 75 -73q29 0 47 14t18 37q0 56 -87 56h-14v92h16q37 0 58.5 14.5t21.5 39.5q0 23 -17 37t-46 14q-67 0 -67 -70h-123
q0 78 50.5 121.5t141.5 43.5z" />
    <glyph glyph-name="acute" unicode="&#xb4;" horiz-adv-x="350" 
d="M300 712l-140 -146h-110l77 146h173z" />
    <glyph glyph-name="micro" unicode="&#xb5;" horiz-adv-x="613" 
d="M395 508h140v-340q0 -38 10.5 -52.5t33.5 -14.5q12 0 24 3v-100q-36 -12 -85 -12q-93 0 -111 81h-2q-14 -37 -46.5 -58t-74.5 -21q-49 0 -76 21v-200h-140v693h140v-298q0 -112 87 -112q45 0 72.5 35.5t27.5 102.5v272z" />
    <glyph glyph-name="paragraph" unicode="&#xb6;" horiz-adv-x="656" 
d="M632 712v-96h-80v-736h-103v736h-82v-736h-103v410h-23q-92 0 -146.5 57t-54.5 154t54.5 154t146.5 57h391z" />
    <glyph glyph-name="periodcentered" unicode="&#xb7;" horiz-adv-x="258" 
d="M206 389v-167h-154v167h154z" />
    <glyph glyph-name="cedilla" unicode="&#xb8;" horiz-adv-x="336" 
d="M152 0h55l-38 -61q13 5 32 5q35 0 60 -20.5t25 -55.5q0 -41 -32 -67.5t-90 -26.5q-60 0 -114 30l22 45q41 -22 80 -22q49 0 49 35q0 17 -13 27.5t-35 10.5q-17 0 -32 -6l-21 23z" />
    <glyph glyph-name="onesuperior" unicode="&#xb9;" horiz-adv-x="326" 
d="M263 802v-472h-124v301h-128v89q67 0 100 19t41 63h111z" />
    <glyph glyph-name="ordmasculine" unicode="&#xba;" horiz-adv-x="438" 
d="M219 697q89 0 141.5 -51.5t52.5 -137.5q0 -87 -52.5 -138t-141.5 -51t-141.5 51t-52.5 138q0 86 52.5 137.5t141.5 51.5zM219 606q-32 0 -50 -26t-18 -72t18.5 -72.5t49.5 -26.5t49.5 26.5t18.5 72.5t-18 72t-50 26z" />
    <glyph glyph-name="guillemetright" unicode="&#xbb;" horiz-adv-x="532" 
d="M44 454h122l114 -200l-114 -200h-122l108 200zM252 454h122l114 -200l-114 -200h-122l108 200z" />
    <glyph glyph-name="onequarter" unicode="&#xbc;" horiz-adv-x="801" 
d="M791 167v-87h-66v-80h-112v80h-199v88l163 236h148v-237h66zM551 220l-38 -53h106v42q0 69 4 124h-1q-35 -63 -71 -113zM229 270h-117v252h-103v81q95 0 114 71h106v-404zM490 674h91l-369 -674h-91z" />
    <glyph glyph-name="onehalf" unicode="&#xbd;" horiz-adv-x="830" 
d="M229 674v-404h-117v252h-103v81q95 0 114 71h106zM581 674l-369 -674h-91l369 674h91zM628 414q75 0 118.5 -34t43.5 -89q0 -49 -28.5 -80t-82.5 -55t-71.5 -37.5t-19.5 -29.5h214v-89h-346q-1 7 -1 22q0 66 26.5 107.5t95.5 76.5q38 19 53.5 28t29.5 24.5t14 34.5
q0 16 -12 26t-33 10q-54 0 -54 -58h-114q1 69 45 106t122 37z" />
    <glyph glyph-name="threequarters" unicode="&#xbe;" horiz-adv-x="924" 
d="M914 167v-87h-66v-80h-112v80h-199v88l163 236h148v-237h66zM674 220l-38 -53h106v42q0 69 4 124h-1q-35 -63 -71 -113zM371 381q0 -57 -44.5 -89t-123.5 -32q-85 0 -131.5 37t-46.5 107h114q0 -58 64 -58q25 0 40.5 11t15.5 30q0 45 -72 45h-14v82h13q32 0 50.5 12.5
t18.5 33.5q0 17 -15 28t-40 11q-58 0 -58 -55h-111q0 66 45 103t124 37q76 0 121 -31.5t45 -84.5q0 -33 -17.5 -53.5t-56.5 -34.5v-1q79 -24 79 -98zM613 674h91l-369 -674h-91z" />
    <glyph glyph-name="questiondown" unicode="&#xbf;" horiz-adv-x="517" 
d="M270 -219q-109 0 -171 50t-62 136q0 52 20 87t80 87q54 46 70.5 80t16.5 101h119q1 -12 1 -32q0 -73 -18 -113t-77 -94q-42 -38 -54 -59.5t-12 -52.5q0 -32 22.5 -50.5t64.5 -18.5q97 0 101 101h146q-3 -109 -66.5 -165.5t-180.5 -56.5zM208 376v132h154v-132h-154z" />
    <glyph glyph-name="Agrave" unicode="&#xc0;" horiz-adv-x="698" 
d="M541 0l-55 174h-273l-56 -174h-154l247 712h198l247 -712h-154zM253 300h193l-15 47q-49 156 -81 278h-2q-37 -140 -80 -278zM434 760h-110l-140 146h173z" />
    <glyph glyph-name="Aacute" unicode="&#xc1;" horiz-adv-x="698" 
d="M541 0l-55 174h-273l-56 -174h-154l247 712h198l247 -712h-154zM253 300h193l-15 47q-49 156 -81 278h-2q-37 -140 -80 -278zM514 906l-140 -146h-110l77 146h173z" />
    <glyph glyph-name="Acircumflex" unicode="&#xc2;" horiz-adv-x="698" 
d="M541 0l-55 174h-273l-56 -174h-154l247 712h198l247 -712h-154zM253 300h193l-15 47q-49 156 -81 278h-2q-37 -140 -80 -278zM348 836l-60 -76h-128l114 146h149l114 -146h-128z" />
    <glyph glyph-name="Atilde" unicode="&#xc3;" horiz-adv-x="698" 
d="M541 0l-55 174h-273l-56 -174h-154l247 712h198l247 -712h-154zM253 300h193l-15 47q-49 156 -81 278h-2q-37 -140 -80 -278zM285 817q-40 0 -46 -46h-78q3 63 34 99t84 36q35 0 76 -23t58 -23q40 0 46 46h78q-3 -63 -34 -99t-84 -36q-35 0 -75.5 23t-58.5 23z" />
    <glyph glyph-name="Adieresis" unicode="&#xc4;" horiz-adv-x="698" 
d="M541 0l-55 174h-273l-56 -174h-154l247 712h198l247 -712h-154zM253 300h193l-15 47q-49 156 -81 278h-2q-37 -140 -80 -278zM302 889v-120h-123v120h123zM519 889v-120h-123v120h123z" />
    <glyph glyph-name="Aring" unicode="&#xc5;" horiz-adv-x="698" 
d="M541 0l-55 174h-273l-56 -174h-154l247 712h198l247 -712h-154zM253 300h193l-15 47q-49 156 -81 278h-2q-37 -140 -80 -278zM349 750q-45 0 -76.5 31.5t-31.5 76.5t31.5 76.5t76.5 31.5t76.5 -31.5t31.5 -76.5t-31.5 -76.5t-76.5 -31.5zM349 912q-23 0 -38.5 -16
t-15.5 -38t15.5 -38t38.5 -16t38.5 16t15.5 38t-15.5 38t-38.5 16z" />
    <glyph glyph-name="AE" unicode="&#xc6;" horiz-adv-x="965" 
d="M640 126h275v-126h-398l-26 179h-254l-77 -179h-166l332 712h580v-126h-332l23 -161h286v-125h-268zM291 303h182l-42 292h-14z" />
    <glyph glyph-name="Ccedilla" unicode="&#xc7;" horiz-adv-x="701" 
d="M510 250h151q-10 -118 -80.5 -187t-187.5 -78l-29 -46q13 5 32 5q35 0 60 -20.5t25 -55.5q0 -41 -32 -67.5t-90 -26.5q-60 0 -114 30l22 45q41 -22 80 -22q49 0 49 35q0 17 -13 27.5t-35 10.5q-17 0 -32 -6l-21 23l42 68q-140 8 -220 106.5t-80 264.5q0 173 87.5 272.5
t238.5 99.5q130 0 210 -72.5t85 -190.5h-148q-7 62 -46 97.5t-101 35.5q-81 0 -127.5 -64.5t-46.5 -177.5t45.5 -177.5t125.5 -64.5q63 0 102.5 35.5t47.5 100.5z" />
    <glyph glyph-name="Egrave" unicode="&#xc8;" horiz-adv-x="633" 
d="M574 712v-126h-345v-161h322v-125h-322v-174h354v-126h-501v712h492zM163 906h173l77 -146h-110z" />
    <glyph glyph-name="Eacute" unicode="&#xc9;" horiz-adv-x="633" 
d="M574 712v-126h-345v-161h322v-125h-322v-174h354v-126h-501v712h492zM493 906l-140 -146h-110l77 146h173z" />
    <glyph glyph-name="Ecircumflex" unicode="&#xca;" horiz-adv-x="633" 
d="M574 712v-126h-345v-161h322v-125h-322v-174h354v-126h-501v712h492zM139 760l114 146h149l114 -146h-128l-61 76l-60 -76h-128z" />
    <glyph glyph-name="Edieresis" unicode="&#xcb;" horiz-adv-x="633" 
d="M574 712v-126h-345v-161h322v-125h-322v-174h354v-126h-501v712h492zM281 889v-120h-123v120h123zM498 889v-120h-123v120h123z" />
    <glyph glyph-name="Igrave" unicode="&#xcc;" horiz-adv-x="311" 
d="M229 712v-712h-147v712h147zM-9 906h173l77 -146h-110z" />
    <glyph glyph-name="Iacute" unicode="&#xcd;" horiz-adv-x="311" 
d="M229 712v-712h-147v712h147zM321 906l-140 -146h-110l77 146h173z" />
    <glyph glyph-name="Icircumflex" unicode="&#xce;" horiz-adv-x="311" 
d="M229 712v-712h-147v712h147zM-33 760l114 146h149l114 -146h-128l-61 76l-60 -76h-128z" />
    <glyph glyph-name="Idieresis" unicode="&#xcf;" horiz-adv-x="311" 
d="M229 712v-712h-147v712h147zM109 889v-120h-123v120h123zM326 889v-120h-123v120h123z" />
    <glyph glyph-name="Eth" unicode="&#xd0;" horiz-adv-x="734" 
d="M82 413v299h237q182 0 280 -92.5t98 -263.5t-98 -263.5t-280 -92.5h-237v307h-64v106h64zM228 307v-181h89q228 0 228 230t-228 230h-89v-173h166v-106h-166z" />
    <glyph glyph-name="Ntilde" unicode="&#xd1;" horiz-adv-x="776" 
d="M694 712v-712h-209l-138 289q-76 161 -130 294h-2q8 -165 8 -309v-274h-141v712h209l138 -289q76 -161 130 -294h2q-8 165 -8 309v274h141zM498 906h78q-3 -63 -34 -99t-84 -36q-35 0 -75.5 23t-58.5 23q-40 0 -46 -46h-78q3 63 34 99t84 36q36 0 76 -23t58 -23
q40 0 46 46z" />
    <glyph glyph-name="Ograve" unicode="&#xd2;" horiz-adv-x="748" 
d="M374 728q157 0 247 -99.5t90 -272.5t-90 -272.5t-247 -99.5t-247 99.5t-90 272.5t90 272.5t247 99.5zM374 598q-86 0 -135.5 -64.5t-49.5 -177.5t49.5 -177.5t135.5 -64.5t135.5 64.5t49.5 177.5t-49.5 177.5t-135.5 64.5zM209 906h173l77 -146h-110z" />
    <glyph glyph-name="Oacute" unicode="&#xd3;" horiz-adv-x="748" 
d="M374 728q157 0 247 -99.5t90 -272.5t-90 -272.5t-247 -99.5t-247 99.5t-90 272.5t90 272.5t247 99.5zM374 598q-86 0 -135.5 -64.5t-49.5 -177.5t49.5 -177.5t135.5 -64.5t135.5 64.5t49.5 177.5t-49.5 177.5t-135.5 64.5zM539 906l-140 -146h-110l77 146h173z" />
    <glyph glyph-name="Ocircumflex" unicode="&#xd4;" horiz-adv-x="748" 
d="M374 728q157 0 247 -99.5t90 -272.5t-90 -272.5t-247 -99.5t-247 99.5t-90 272.5t90 272.5t247 99.5zM374 598q-86 0 -135.5 -64.5t-49.5 -177.5t49.5 -177.5t135.5 -64.5t135.5 64.5t49.5 177.5t-49.5 177.5t-135.5 64.5zM185 760l114 146h149l114 -146h-128l-61 76
l-60 -76h-128z" />
    <glyph glyph-name="Otilde" unicode="&#xd5;" horiz-adv-x="748" 
d="M374 728q157 0 247 -99.5t90 -272.5t-90 -272.5t-247 -99.5t-247 99.5t-90 272.5t90 272.5t247 99.5zM374 598q-86 0 -135.5 -64.5t-49.5 -177.5t49.5 -177.5t135.5 -64.5t135.5 64.5t49.5 177.5t-49.5 177.5t-135.5 64.5zM484 906h78q-3 -63 -34 -99t-84 -36
q-35 0 -75.5 23t-58.5 23q-40 0 -46 -46h-78q3 63 34 99t84 36q36 0 76 -23t58 -23q40 0 46 46z" />
    <glyph glyph-name="Odieresis" unicode="&#xd6;" horiz-adv-x="748" 
d="M374 728q157 0 247 -99.5t90 -272.5t-90 -272.5t-247 -99.5t-247 99.5t-90 272.5t90 272.5t247 99.5zM374 598q-86 0 -135.5 -64.5t-49.5 -177.5t49.5 -177.5t135.5 -64.5t135.5 64.5t49.5 177.5t-49.5 177.5t-135.5 64.5zM327 889v-120h-123v120h123zM544 889v-120h-123
v120h123z" />
    <glyph glyph-name="multiply" unicode="&#xd7;" horiz-adv-x="566" 
d="M468 568l77 -76l-185 -185l185 -185l-77 -77l-185 185l-184 -185l-78 77l185 185l-185 185l78 76l184 -184z" />
    <glyph glyph-name="Oslash" unicode="&#xd8;" horiz-adv-x="748" 
d="M624 755l61 -48l-61 -82q87 -99 87 -269q0 -173 -90 -272.5t-247 -99.5q-111 0 -190 51l-59 -78l-62 48l61 82q-87 99 -87 269q0 173 90 272.5t247 99.5q111 0 191 -52zM183 356q0 -87 30 -150l272 363q-46 37 -111 37q-89 0 -140 -67t-51 -183zM374 106q89 0 140 67
t51 183q0 88 -31 150l-271 -364q47 -36 111 -36z" />
    <glyph glyph-name="Ugrave" unicode="&#xd9;" horiz-adv-x="718" 
d="M495 712h147v-440q0 -140 -73.5 -214t-209.5 -74t-209.5 74t-73.5 214v440h147v-435q0 -79 35 -121t101 -42t101 42t35 121v435zM194 906h173l77 -146h-110z" />
    <glyph glyph-name="Uacute" unicode="&#xda;" horiz-adv-x="718" 
d="M495 712h147v-440q0 -140 -73.5 -214t-209.5 -74t-209.5 74t-73.5 214v440h147v-435q0 -79 35 -121t101 -42t101 42t35 121v435zM524 906l-140 -146h-110l77 146h173z" />
    <glyph glyph-name="Ucircumflex" unicode="&#xdb;" horiz-adv-x="718" 
d="M495 712h147v-440q0 -140 -73.5 -214t-209.5 -74t-209.5 74t-73.5 214v440h147v-435q0 -79 35 -121t101 -42t101 42t35 121v435zM170 760l114 146h149l114 -146h-128l-61 76l-60 -76h-128z" />
    <glyph glyph-name="Udieresis" unicode="&#xdc;" horiz-adv-x="718" 
d="M495 712h147v-440q0 -140 -73.5 -214t-209.5 -74t-209.5 74t-73.5 214v440h147v-435q0 -79 35 -121t101 -42t101 42t35 121v435zM312 889v-120h-123v120h123zM529 889v-120h-123v120h123z" />
    <glyph glyph-name="Yacute" unicode="&#xdd;" horiz-adv-x="638" 
d="M635 712l-243 -435v-277h-147v277l-243 435h165l68 -134q45 -89 83 -181h2q38 92 83 181l68 134h164zM484 906l-140 -146h-110l77 146h173z" />
    <glyph glyph-name="Thorn" unicode="&#xde;" horiz-adv-x="636" 
d="M229 712v-117h122q127 0 194 -62t67 -168t-67 -168t-194 -62h-122v-135h-147v712h147zM331 473h-102v-216h102q131 0 131 108t-131 108z" />
    <glyph glyph-name="germandbls" unicode="&#xdf;" horiz-adv-x="575" 
d="M292 728q100 0 158.5 -48t58.5 -128q0 -117 -122 -156v-2q155 -30 155 -188q0 -99 -63 -155t-163 -56q-27 0 -50 5v113q9 -2 22 -2q109 0 109 110q0 53 -30.5 82.5t-88.5 29.5h-12v115q58 0 83.5 21t25.5 68q0 80 -81 80q-45 0 -65.5 -28t-20.5 -89v-500h-140v510
q0 103 59 160.5t165 57.5z" />
    <glyph glyph-name="agrave" unicode="&#xe0;" horiz-adv-x="547" 
d="M267 524q218 0 218 -201v-184q0 -86 14 -139h-126q-7 29 -7 68h-2q-56 -80 -165 -80q-79 0 -126 43.5t-47 110.5q0 65 45.5 105t151.5 57q64 10 127 14v18q0 90 -83 90q-39 0 -60.5 -20.5t-23.5 -56.5h-136q4 77 60 126t160 49zM350 214v19q-60 -4 -102 -11
q-44 -8 -63 -24t-19 -46q0 -29 19.5 -46.5t55.5 -17.5q51 0 80 29t29 97zM96 712h173l77 -146h-110z" />
    <glyph glyph-name="aacute" unicode="&#xe1;" horiz-adv-x="547" 
d="M267 524q218 0 218 -201v-184q0 -86 14 -139h-126q-7 29 -7 68h-2q-56 -80 -165 -80q-79 0 -126 43.5t-47 110.5q0 65 45.5 105t151.5 57q64 10 127 14v18q0 90 -83 90q-39 0 -60.5 -20.5t-23.5 -56.5h-136q4 77 60 126t160 49zM350 214v19q-60 -4 -102 -11
q-44 -8 -63 -24t-19 -46q0 -29 19.5 -46.5t55.5 -17.5q51 0 80 29t29 97zM426 712l-140 -146h-110l77 146h173z" />
    <glyph glyph-name="acircumflex" unicode="&#xe2;" horiz-adv-x="547" 
d="M267 524q218 0 218 -201v-184q0 -86 14 -139h-126q-7 29 -7 68h-2q-56 -80 -165 -80q-79 0 -126 43.5t-47 110.5q0 65 45.5 105t151.5 57q64 10 127 14v18q0 90 -83 90q-39 0 -60.5 -20.5t-23.5 -56.5h-136q4 77 60 126t160 49zM350 214v19q-60 -4 -102 -11
q-44 -8 -63 -24t-19 -46q0 -29 19.5 -46.5t55.5 -17.5q51 0 80 29t29 97zM449 566h-128l-60 76l-61 -76h-128l114 146h149z" />
    <glyph glyph-name="atilde" unicode="&#xe3;" horiz-adv-x="547" 
d="M267 524q218 0 218 -201v-184q0 -86 14 -139h-126q-7 29 -7 68h-2q-56 -80 -165 -80q-79 0 -126 43.5t-47 110.5q0 65 45.5 105t151.5 57q64 10 127 14v18q0 90 -83 90q-39 0 -60.5 -20.5t-23.5 -56.5h-136q4 77 60 126t160 49zM350 214v19q-60 -4 -102 -11
q-44 -8 -63 -24t-19 -46q0 -29 19.5 -46.5t55.5 -17.5q51 0 80 29t29 97zM371 712h78q-3 -63 -34 -99t-84 -36q-35 0 -75.5 23t-58.5 23q-40 0 -46 -46h-78q3 63 34 99t84 36q35 0 76 -23t58 -23q40 0 46 46z" />
    <glyph glyph-name="adieresis" unicode="&#xe4;" horiz-adv-x="547" 
d="M267 524q218 0 218 -201v-184q0 -86 14 -139h-126q-7 29 -7 68h-2q-56 -80 -165 -80q-79 0 -126 43.5t-47 110.5q0 65 45.5 105t151.5 57q64 10 127 14v18q0 90 -83 90q-39 0 -60.5 -20.5t-23.5 -56.5h-136q4 77 60 126t160 49zM350 214v19q-60 -4 -102 -11
q-44 -8 -63 -24t-19 -46q0 -29 19.5 -46.5t55.5 -17.5q51 0 80 29t29 97zM214 712v-120h-123v120h123zM431 712v-120h-123v120h123z" />
    <glyph glyph-name="aring" unicode="&#xe5;" horiz-adv-x="547" 
d="M267 524q218 0 218 -201v-184q0 -86 14 -139h-126q-7 29 -7 68h-2q-56 -80 -165 -80q-79 0 -126 43.5t-47 110.5q0 65 45.5 105t151.5 57q64 10 127 14v18q0 90 -83 90q-39 0 -60.5 -20.5t-23.5 -56.5h-136q4 77 60 126t160 49zM350 214v19q-60 -4 -102 -11
q-44 -8 -63 -24t-19 -46q0 -29 19.5 -46.5t55.5 -17.5q51 0 80 29t29 97zM261 772q45 0 76.5 -31.5t31.5 -76.5t-31.5 -76.5t-76.5 -31.5t-76.5 31.5t-31.5 76.5t31.5 76.5t76.5 31.5zM261 718q-23 0 -38.5 -16t-15.5 -38t15.5 -38t38.5 -16t38.5 16t15.5 38t-15.5 38
t-38.5 16z" />
    <glyph glyph-name="ae" unicode="&#xe6;" horiz-adv-x="880" 
d="M600 83q39 0 64.5 19.5t30.5 51.5h143q-15 -73 -79 -121.5t-159 -48.5q-121 0 -185 89q-61 -89 -192 -89q-90 0 -143.5 44.5t-53.5 113.5q0 166 256 166h78v28q0 90 -88 90q-41 0 -63.5 -20.5t-24.5 -56.5h-136q4 77 61 126t163 49q116 0 168 -60q63 60 159 60
q85 0 146 -45.5t85 -123.5q15 -52 15 -130h-355q3 -74 33 -108t77 -34zM360 214v11h-63q-72 0 -101.5 -18t-29.5 -55q0 -31 21 -49.5t58 -18.5q53 0 84 31t31 99zM599 425q-44 0 -72 -29.5t-35 -87.5h213q-5 58 -34 87.5t-72 29.5z" />
    <glyph glyph-name="ccedilla" unicode="&#xe7;" horiz-adv-x="562" 
d="M290 92q40 0 65.5 28.5t28.5 78.5h147q-8 -90 -64 -147.5t-146 -66.5l-29 -46q13 5 32 5q35 0 60 -20.5t25 -55.5q0 -41 -32 -67.5t-90 -26.5q-60 0 -114 30l22 45q41 -22 80 -22q49 0 49 35q0 17 -13 27.5t-35 10.5q-17 0 -32 -6l-21 23l43 68q-106 8 -168.5 80.5
t-62.5 188.5q0 123 70 196.5t186 73.5q101 0 166.5 -57t73.5 -148h-146q-4 45 -29.5 71t-65.5 26q-51 0 -80 -43.5t-29 -118.5t29 -118.5t80 -43.5z" />
    <glyph glyph-name="egrave" unicode="&#xe8;" horiz-adv-x="573" 
d="M288 83q41 0 68 19.5t32 51.5h143q-16 -73 -81 -121.5t-162 -48.5q-118 0 -185.5 75t-67.5 199q0 116 68 191t184 75q87 0 149 -45.5t86 -123.5q16 -51 16 -130h-365q3 -74 34.5 -108t80.5 -34zM287 425q-44 0 -73.5 -28t-37.5 -84h222q-6 55 -36.5 83.5t-74.5 28.5z
M371 566h-110l-140 146h173z" />
    <glyph glyph-name="eacute" unicode="&#xe9;" horiz-adv-x="573" 
d="M288 83q41 0 68 19.5t32 51.5h143q-16 -73 -81 -121.5t-162 -48.5q-118 0 -185.5 75t-67.5 199q0 116 68 191t184 75q87 0 149 -45.5t86 -123.5q16 -51 16 -130h-365q3 -74 34.5 -108t80.5 -34zM287 425q-44 0 -73.5 -28t-37.5 -84h222q-6 55 -36.5 83.5t-74.5 28.5z
M451 712l-140 -146h-110l77 146h173z" />
    <glyph glyph-name="ecircumflex" unicode="&#xea;" horiz-adv-x="573" 
d="M288 83q41 0 68 19.5t32 51.5h143q-16 -73 -81 -121.5t-162 -48.5q-118 0 -185.5 75t-67.5 199q0 116 68 191t184 75q87 0 149 -45.5t86 -123.5q16 -51 16 -130h-365q3 -74 34.5 -108t80.5 -34zM287 425q-44 0 -73.5 -28t-37.5 -84h222q-6 55 -36.5 83.5t-74.5 28.5z
M286 642l-61 -76h-128l114 146h149l114 -146h-128z" />
    <glyph glyph-name="edieresis" unicode="&#xeb;" horiz-adv-x="573" 
d="M288 83q41 0 68 19.5t32 51.5h143q-16 -73 -81 -121.5t-162 -48.5q-118 0 -185.5 75t-67.5 199q0 116 68 191t184 75q87 0 149 -45.5t86 -123.5q16 -51 16 -130h-365q3 -74 34.5 -108t80.5 -34zM287 425q-44 0 -73.5 -28t-37.5 -84h222q-6 55 -36.5 83.5t-74.5 28.5z
M239 712v-120h-123v120h123zM456 712v-120h-123v120h123z" />
    <glyph glyph-name="igrave" unicode="&#xec;" horiz-adv-x="276" 
d="M208 508v-508h-140v508h140zM-27 712h173l77 -146h-110z" />
    <glyph glyph-name="iacute" unicode="&#xed;" horiz-adv-x="276" 
d="M208 508v-508h-140v508h140zM303 712l-140 -146h-110l77 146h173z" />
    <glyph glyph-name="icircumflex" unicode="&#xee;" horiz-adv-x="276" 
d="M208 508v-508h-140v508h140zM208 712l103 -145h-120l-53 77l-53 -77h-121l103 145h141z" />
    <glyph glyph-name="idieresis" unicode="&#xef;" horiz-adv-x="276" 
d="M208 508v-508h-140v508h140zM113 712v-120h-123v120h123zM286 712v-120h-123v120h123z" />
    <glyph glyph-name="eth" unicode="&#xf0;" horiz-adv-x="590" 
d="M555 260q0 -126 -69.5 -201t-188.5 -75q-120 0 -191 70.5t-71 189.5q0 121 61 192.5t164 71.5q40 0 74 -16v2q-33 41 -82 83l-127 -51l-24 60l95 38q-35 28 -63 47l110 57q45 -30 76 -55l127 51l24 -60l-96 -39q181 -166 181 -365zM295 92q52 0 82.5 44t30.5 118
t-30.5 118t-82.5 44t-82.5 -44t-30.5 -118t30.5 -118t82.5 -44z" />
    <glyph glyph-name="ntilde" unicode="&#xf1;" 
d="M350 520q87 0 137 -53.5t50 -154.5v-312h-140v298q0 112 -89 112q-45 0 -72.5 -35.5t-27.5 -102.5v-272h-140v508h131v-64h2q56 76 149 76zM413 712h78q-3 -63 -34 -99t-84 -36q-35 0 -75.5 23t-58.5 23q-40 0 -46 -46h-78q3 63 34 99t84 36q35 0 76 -23t58 -23
q40 0 46 46z" />
    <glyph glyph-name="ograve" unicode="&#xf2;" horiz-adv-x="590" 
d="M295 524q119 0 189.5 -73t70.5 -197t-70.5 -197t-189.5 -73t-189.5 73t-70.5 197t70.5 197t189.5 73zM295 416q-52 0 -82.5 -44t-30.5 -118t30.5 -118t82.5 -44t82.5 44t30.5 118t-30.5 118t-82.5 44zM130 712h173l77 -146h-110z" />
    <glyph glyph-name="oacute" unicode="&#xf3;" horiz-adv-x="590" 
d="M295 524q119 0 189.5 -73t70.5 -197t-70.5 -197t-189.5 -73t-189.5 73t-70.5 197t70.5 197t189.5 73zM295 416q-52 0 -82.5 -44t-30.5 -118t30.5 -118t82.5 -44t82.5 44t30.5 118t-30.5 118t-82.5 44zM460 712l-140 -146h-110l77 146h173z" />
    <glyph glyph-name="ocircumflex" unicode="&#xf4;" horiz-adv-x="590" 
d="M295 524q119 0 189.5 -73t70.5 -197t-70.5 -197t-189.5 -73t-189.5 73t-70.5 197t70.5 197t189.5 73zM295 416q-52 0 -82.5 -44t-30.5 -118t30.5 -118t82.5 -44t82.5 44t30.5 118t-30.5 118t-82.5 44zM483 566h-128l-60 76l-61 -76h-128l114 146h149z" />
    <glyph glyph-name="otilde" unicode="&#xf5;" horiz-adv-x="590" 
d="M295 524q119 0 189.5 -73t70.5 -197t-70.5 -197t-189.5 -73t-189.5 73t-70.5 197t70.5 197t189.5 73zM295 416q-52 0 -82.5 -44t-30.5 -118t30.5 -118t82.5 -44t82.5 44t30.5 118t-30.5 118t-82.5 44zM405 712h78q-3 -63 -34 -99t-84 -36q-35 0 -75.5 23t-58.5 23
q-40 0 -46 -46h-78q3 63 34 99t84 36q35 0 76 -23t58 -23q40 0 46 46z" />
    <glyph glyph-name="odieresis" unicode="&#xf6;" horiz-adv-x="590" 
d="M295 524q119 0 189.5 -73t70.5 -197t-70.5 -197t-189.5 -73t-189.5 73t-70.5 197t70.5 197t189.5 73zM295 416q-52 0 -82.5 -44t-30.5 -118t30.5 -118t82.5 -44t82.5 44t30.5 118t-30.5 118t-82.5 44zM248 712v-120h-123v120h123zM465 712v-120h-123v120h123z" />
    <glyph glyph-name="divide" unicode="&#xf7;" horiz-adv-x="566" 
d="M342 551v-110h-118v110h118zM502 371v-109h-438v109h438zM342 192v-110h-118v110h118z" />
    <glyph glyph-name="oslash" unicode="&#xf8;" horiz-adv-x="590" 
d="M485 560l52 -41l-52 -69q70 -73 70 -196q0 -124 -70.5 -197t-189.5 -73q-79 0 -137 33l-51 -69l-53 39l52 69q-71 74 -71 198t70.5 197t189.5 73q78 0 138 -33zM295 422q-55 0 -88 -45.5t-33 -122.5q0 -52 15 -88l174 232q-29 24 -68 24zM295 86q56 0 88.5 45.5
t32.5 122.5q0 49 -14 86l-174 -231q28 -23 67 -23z" />
    <glyph glyph-name="ugrave" unicode="&#xf9;" 
d="M250 -12q-87 0 -137 53.5t-50 154.5v312h140v-298q0 -112 89 -112q45 0 72.5 35.5t27.5 102.5v272h140v-508h-131v64h-2q-56 -76 -149 -76zM135 712h173l77 -146h-110z" />
    <glyph glyph-name="uacute" unicode="&#xfa;" 
d="M250 -12q-87 0 -137 53.5t-50 154.5v312h140v-298q0 -112 89 -112q45 0 72.5 35.5t27.5 102.5v272h140v-508h-131v64h-2q-56 -76 -149 -76zM465 712l-140 -146h-110l77 146h173z" />
    <glyph glyph-name="ucircumflex" unicode="&#xfb;" 
d="M250 -12q-87 0 -137 53.5t-50 154.5v312h140v-298q0 -112 89 -112q45 0 72.5 35.5t27.5 102.5v272h140v-508h-131v64h-2q-56 -76 -149 -76zM488 566h-128l-60 76l-61 -76h-128l114 146h149z" />
    <glyph glyph-name="udieresis" unicode="&#xfc;" 
d="M250 -12q-87 0 -137 53.5t-50 154.5v312h140v-298q0 -112 89 -112q45 0 72.5 35.5t27.5 102.5v272h140v-508h-131v64h-2q-56 -76 -149 -76zM253 712v-120h-123v120h123zM470 712v-120h-123v120h123z" />
    <glyph glyph-name="yacute" unicode="&#xfd;" horiz-adv-x="504" 
d="M367 508h144l-182 -511q-38 -106 -92 -147t-150 -41q-39 0 -73 8v112q22 -8 54 -8q42 0 67.5 22.5t25.5 59.5q0 24 -24 92l-144 413h150l52 -170q32 -107 56 -213h2q30 123 59 213zM417 712l-140 -146h-110l77 146h173z" />
    <glyph glyph-name="thorn" unicode="&#xfe;" horiz-adv-x="598" 
d="M208 712v-265h2q48 74 142 74q96 0 153.5 -73t57.5 -194q0 -122 -57 -194.5t-152 -72.5q-96 0 -144 74h-2v-246h-140v897h140zM307 414q-48 0 -77 -42.5t-29 -117.5t29 -117.5t77 -42.5q50 0 80 43.5t30 116.5t-30 116.5t-80 43.5z" />
    <glyph glyph-name="ydieresis" unicode="&#xff;" horiz-adv-x="504" 
d="M367 508h144l-182 -511q-38 -106 -92 -147t-150 -41q-39 0 -73 8v112q22 -8 54 -8q42 0 67.5 22.5t25.5 59.5q0 24 -24 92l-144 413h150l52 -170q32 -107 56 -213h2q30 123 59 213zM205 712v-120h-123v120h123zM422 712v-120h-123v120h123z" />
    <glyph glyph-name="Amacron" unicode="&#x100;" horiz-adv-x="698" 
d="M541 0l-55 174h-273l-56 -174h-154l247 712h198l247 -712h-154zM253 300h193l-15 47q-49 156 -81 278h-2q-37 -140 -80 -278zM512 869v-91h-326v91h326z" />
    <glyph glyph-name="amacron" unicode="&#x101;" horiz-adv-x="547" 
d="M267 524q218 0 218 -201v-184q0 -86 14 -139h-126q-7 29 -7 68h-2q-56 -80 -165 -80q-79 0 -126 43.5t-47 110.5q0 65 45.5 105t151.5 57q64 10 127 14v18q0 90 -83 90q-39 0 -60.5 -20.5t-23.5 -56.5h-136q4 77 60 126t160 49zM350 214v19q-60 -4 -102 -11
q-44 -8 -63 -24t-19 -46q0 -29 19.5 -46.5t55.5 -17.5q51 0 80 29t29 97zM424 689v-91h-326v91h326z" />
    <glyph glyph-name="Abreve" unicode="&#x102;" horiz-adv-x="698" 
d="M541 0l-55 174h-273l-56 -174h-154l247 712h198l247 -712h-154zM253 300h193l-15 47q-49 156 -81 278h-2q-37 -140 -80 -278zM349 755q-78 0 -124.5 39.5t-50.5 111.5h95q2 -30 23.5 -47t56.5 -17t56.5 17t23.5 47h95q-4 -72 -50.5 -111.5t-124.5 -39.5z" />
    <glyph glyph-name="abreve" unicode="&#x103;" horiz-adv-x="547" 
d="M267 524q218 0 218 -201v-184q0 -86 14 -139h-126q-7 29 -7 68h-2q-56 -80 -165 -80q-79 0 -126 43.5t-47 110.5q0 65 45.5 105t151.5 57q64 10 127 14v18q0 90 -83 90q-39 0 -60.5 -20.5t-23.5 -56.5h-136q4 77 60 126t160 49zM350 214v19q-60 -4 -102 -11
q-44 -8 -63 -24t-19 -46q0 -29 19.5 -46.5t55.5 -17.5q51 0 80 29t29 97zM341 712h95q-4 -72 -50.5 -111.5t-124.5 -39.5t-124.5 39.5t-50.5 111.5h95q2 -30 23.5 -47t56.5 -17t56.5 17t23.5 47z" />
    <glyph glyph-name="Aogonek" unicode="&#x104;" horiz-adv-x="698" 
d="M662 -119q21 0 36 6v-71q-33 -13 -78 -13q-56 0 -84.5 23t-28.5 64q0 32 19 57.5t59 52.5h-44l-55 174h-273l-56 -174h-154l247 712h198l247 -712q-68 -47 -68 -88q0 -31 35 -31zM253 300h193l-15 47q-49 156 -81 278h-2q-37 -140 -80 -278z" />
    <glyph glyph-name="aogonek" unicode="&#x105;" horiz-adv-x="547" 
d="M466 -119q21 0 36 6v-71q-32 -13 -78 -13q-56 0 -84.5 23t-28.5 64q0 32 19 57.5t59 52.5h-16q-7 29 -7 68h-2q-56 -80 -165 -80q-79 0 -126 43.5t-47 110.5q0 65 45.5 105t151.5 57q64 10 127 14v18q0 90 -83 90q-39 0 -60.5 -20.5t-23.5 -56.5h-136q4 77 60 126t160 49
q218 0 218 -201v-184q0 -86 14 -139q-68 -47 -68 -88q0 -31 35 -31zM350 214v19q-60 -4 -102 -11q-44 -8 -63 -24t-19 -46q0 -29 19.5 -46.5t55.5 -17.5q51 0 80 29t29 97z" />
    <glyph glyph-name="Cacute" unicode="&#x106;" horiz-adv-x="701" 
d="M363 728q130 0 210 -72.5t85 -190.5h-148q-7 62 -46 97.5t-101 35.5q-81 0 -127.5 -64.5t-46.5 -177.5t45.5 -177.5t125.5 -64.5q63 0 102.5 35.5t47.5 100.5h151q-10 -126 -90 -196t-211 -70q-150 0 -236.5 99.5t-86.5 272.5t87.5 272.5t238.5 99.5zM528 906l-140 -146
h-110l77 146h173z" />
    <glyph glyph-name="cacute" unicode="&#x107;" horiz-adv-x="562" 
d="M291 524q101 0 166.5 -57t73.5 -148h-146q-4 45 -29.5 71t-65.5 26q-51 0 -80 -43.5t-29 -118.5t29 -118.5t80 -43.5q40 0 65.5 28.5t28.5 78.5h147q-8 -97 -73 -156t-167 -59q-116 0 -186 73.5t-70 196.5t70 196.5t186 73.5zM456 712l-140 -146h-110l77 146h173z" />
    <glyph glyph-name="Ccircumflex" unicode="&#x108;" horiz-adv-x="701" 
d="M363 728q130 0 210 -72.5t85 -190.5h-148q-7 62 -46 97.5t-101 35.5q-81 0 -127.5 -64.5t-46.5 -177.5t45.5 -177.5t125.5 -64.5q63 0 102.5 35.5t47.5 100.5h151q-10 -126 -90 -196t-211 -70q-150 0 -236.5 99.5t-86.5 272.5t87.5 272.5t238.5 99.5zM174 760l114 146
h149l114 -146h-128l-61 76l-60 -76h-128z" />
    <glyph glyph-name="ccircumflex" unicode="&#x109;" horiz-adv-x="562" 
d="M291 524q101 0 166.5 -57t73.5 -148h-146q-4 45 -29.5 71t-65.5 26q-51 0 -80 -43.5t-29 -118.5t29 -118.5t80 -43.5q40 0 65.5 28.5t28.5 78.5h147q-8 -97 -73 -156t-167 -59q-116 0 -186 73.5t-70 196.5t70 196.5t186 73.5zM479 566h-128l-60 76l-61 -76h-128l114 146
h149z" />
    <glyph glyph-name="Cdotaccent" unicode="&#x10a;" horiz-adv-x="701" 
d="M363 728q130 0 210 -72.5t85 -190.5h-148q-7 62 -46 97.5t-101 35.5q-81 0 -127.5 -64.5t-46.5 -177.5t45.5 -177.5t125.5 -64.5q63 0 102.5 35.5t47.5 100.5h151q-10 -126 -90 -196t-211 -70q-150 0 -236.5 99.5t-86.5 272.5t87.5 272.5t238.5 99.5zM433 889v-120h-140
v120h140z" />
    <glyph glyph-name="cdotaccent" unicode="&#x10b;" horiz-adv-x="562" 
d="M291 524q101 0 166.5 -57t73.5 -148h-146q-4 45 -29.5 71t-65.5 26q-51 0 -80 -43.5t-29 -118.5t29 -118.5t80 -43.5q40 0 65.5 28.5t28.5 78.5h147q-8 -97 -73 -156t-167 -59q-116 0 -186 73.5t-70 196.5t70 196.5t186 73.5zM361 712v-120h-140v120h140z" />
    <glyph glyph-name="Ccaron" unicode="&#x10c;" horiz-adv-x="701" 
d="M363 728q130 0 210 -72.5t85 -190.5h-148q-7 62 -46 97.5t-101 35.5q-81 0 -127.5 -64.5t-46.5 -177.5t45.5 -177.5t125.5 -64.5q63 0 102.5 35.5t47.5 100.5h151q-10 -126 -90 -196t-211 -70q-150 0 -236.5 99.5t-86.5 272.5t87.5 272.5t238.5 99.5zM551 906l-114 -146
h-149l-114 146h128l61 -76l60 76h128z" />
    <glyph glyph-name="ccaron" unicode="&#x10d;" horiz-adv-x="562" 
d="M291 524q101 0 166.5 -57t73.5 -148h-146q-4 45 -29.5 71t-65.5 26q-51 0 -80 -43.5t-29 -118.5t29 -118.5t80 -43.5q40 0 65.5 28.5t28.5 78.5h147q-8 -97 -73 -156t-167 -59q-116 0 -186 73.5t-70 196.5t70 196.5t186 73.5zM479 712l-114 -146h-149l-114 146h128
l61 -76l60 76h128z" />
    <glyph glyph-name="Dcaron" unicode="&#x10e;" horiz-adv-x="734" 
d="M82 0v712h237q182 0 280 -92.5t98 -263.5t-98 -263.5t-280 -92.5h-237zM317 586h-89v-460h89q228 0 228 230t-228 230zM522 906l-114 -146h-149l-114 146h128l61 -76l60 76h128z" />
    <glyph glyph-name="dcaron" unicode="&#x10f;" horiz-adv-x="598" 
d="M530 712v-712h-136v67h-2q-23 -38 -62 -59t-84 -21q-96 0 -153.5 73t-57.5 194q0 122 57 194.5t152 72.5q96 0 144 -74h2v265h140zM291 414q-50 0 -80 -43.5t-30 -116.5t30 -116.5t80 -43.5q48 0 77 42.5t29 117.5t-29 117.5t-77 42.5zM695 712l-58 -177h-79l26 177h111z
" />
    <glyph glyph-name="Dcroat" unicode="&#x110;" horiz-adv-x="734" 
d="M82 413v299h237q182 0 280 -92.5t98 -263.5t-98 -263.5t-280 -92.5h-237v307h-64v106h64zM228 307v-181h89q228 0 228 230t-228 230h-89v-173h166v-106h-166z" />
    <glyph glyph-name="dcroat" unicode="&#x111;" horiz-adv-x="590" 
d="M596 648v-72h-66v-576h-136v67h-2q-23 -38 -62 -59t-84 -21q-96 0 -153.5 73t-57.5 194q0 122 57 194.5t152 72.5q96 0 144 -74h2v129h-120v72h120v64h140v-64h66zM291 94q48 0 77 42.5t29 117.5t-29 117.5t-77 42.5q-50 0 -80 -43.5t-30 -116.5t30 -116.5t80 -43.5z" />
    <glyph glyph-name="Emacron" unicode="&#x112;" horiz-adv-x="633" 
d="M574 712v-126h-345v-161h322v-125h-322v-174h354v-126h-501v712h492zM491 869v-91h-326v91h326z" />
    <glyph glyph-name="emacron" unicode="&#x113;" horiz-adv-x="573" 
d="M288 83q41 0 68 19.5t32 51.5h143q-16 -73 -81 -121.5t-162 -48.5q-118 0 -185.5 75t-67.5 199q0 116 68 191t184 75q87 0 149 -45.5t86 -123.5q16 -51 16 -130h-365q3 -74 34.5 -108t80.5 -34zM287 425q-44 0 -73.5 -28t-37.5 -84h222q-6 55 -36.5 83.5t-74.5 28.5z
M449 689v-91h-326v91h326z" />
    <glyph glyph-name="Ebreve" unicode="&#x114;" horiz-adv-x="633" 
d="M574 712v-126h-345v-161h322v-125h-322v-174h354v-126h-501v712h492zM408 906h95q-4 -72 -50.5 -111.5t-124.5 -39.5t-124.5 39.5t-50.5 111.5h95q2 -30 23.5 -47t56.5 -17t56.5 17t23.5 47z" />
    <glyph glyph-name="ebreve" unicode="&#x115;" horiz-adv-x="573" 
d="M288 83q41 0 68 19.5t32 51.5h143q-16 -73 -81 -121.5t-162 -48.5q-118 0 -185.5 75t-67.5 199q0 116 68 191t184 75q87 0 149 -45.5t86 -123.5q16 -51 16 -130h-365q3 -74 34.5 -108t80.5 -34zM287 425q-44 0 -73.5 -28t-37.5 -84h222q-6 55 -36.5 83.5t-74.5 28.5z
M286 561q-78 0 -124.5 39.5t-50.5 111.5h95q2 -30 23.5 -47t56.5 -17t56.5 17t23.5 47h95q-4 -72 -50.5 -111.5t-124.5 -39.5z" />
    <glyph glyph-name="Edotaccent" unicode="&#x116;" horiz-adv-x="633" 
d="M574 712v-126h-345v-161h322v-125h-322v-174h354v-126h-501v712h492zM398 889v-120h-140v120h140z" />
    <glyph glyph-name="edotaccent" unicode="&#x117;" horiz-adv-x="573" 
d="M288 83q41 0 68 19.5t32 51.5h143q-16 -73 -81 -121.5t-162 -48.5q-118 0 -185.5 75t-67.5 199q0 116 68 191t184 75q87 0 149 -45.5t86 -123.5q16 -51 16 -130h-365q3 -74 34.5 -108t80.5 -34zM287 425q-44 0 -73.5 -28t-37.5 -84h222q-6 55 -36.5 83.5t-74.5 28.5z
M356 712v-120h-140v120h140z" />
    <glyph glyph-name="Eogonek" unicode="&#x118;" horiz-adv-x="633" 
d="M550 -119q21 0 36 6v-71q-33 -13 -78 -13q-56 0 -84.5 23t-28.5 64q0 32 19 57.5t59 52.5h-391v712h492v-126h-345v-161h322v-125h-322v-174h354v-126q-68 -47 -68 -88q0 -31 35 -31z" />
    <glyph glyph-name="eogonek" unicode="&#x119;" horiz-adv-x="573" 
d="M451 24q-66 -63 -66 -107q0 -36 35 -36q21 0 36 6v-71q-33 -13 -78 -13q-56 0 -84.5 23t-28.5 64q0 53 55 94v2q-18 -2 -32 -2q-118 0 -185.5 75t-67.5 199q0 116 68 191t184 75q87 0 149 -45.5t86 -123.5q16 -51 16 -130h-365q3 -74 34.5 -108t80.5 -34q41 0 68 19.5
t32 51.5h143q-13 -64 -80 -130zM287 425q-44 0 -73.5 -28t-37.5 -84h222q-6 55 -36.5 83.5t-74.5 28.5z" />
    <glyph glyph-name="Ecaron" unicode="&#x11a;" horiz-adv-x="633" 
d="M574 712v-126h-345v-161h322v-125h-322v-174h354v-126h-501v712h492zM516 906l-114 -146h-149l-114 146h128l61 -76l60 76h128z" />
    <glyph glyph-name="ecaron" unicode="&#x11b;" horiz-adv-x="573" 
d="M288 83q41 0 68 19.5t32 51.5h143q-16 -73 -81 -121.5t-162 -48.5q-118 0 -185.5 75t-67.5 199q0 116 68 191t184 75q87 0 149 -45.5t86 -123.5q16 -51 16 -130h-365q3 -74 34.5 -108t80.5 -34zM287 425q-44 0 -73.5 -28t-37.5 -84h222q-6 55 -36.5 83.5t-74.5 28.5z
M360 566h-149l-114 146h128l61 -76l60 76h128z" />
    <glyph glyph-name="Gcircumflex" unicode="&#x11c;" horiz-adv-x="744" 
d="M375 728q130 0 208 -63.5t89 -174.5h-158q-20 108 -139 108q-86 0 -136 -65.5t-50 -179.5q0 -117 49 -184t134 -67q77 0 118 43.5t42 125.5h-169v120h306v-391h-124v77h-2q-65 -91 -208 -91q-137 0 -217.5 98.5t-80.5 268.5q0 174 91 274.5t247 100.5zM178 760l114 146
h149l114 -146h-128l-61 76l-60 -76h-128z" />
    <glyph glyph-name="gcircumflex" unicode="&#x11d;" horiz-adv-x="591" 
d="M245 522q89 0 144 -82h2v68h132v-476q0 -112 -64 -169t-177 -57q-103 0 -161 43t-64 119h140q2 -29 25 -45.5t63 -16.5q50 0 76 30t26 101v45h-2q-54 -76 -142 -76q-95 0 -151.5 70t-56.5 188t57 188t153 70zM283 407q-47 0 -74.5 -38.5t-27.5 -104.5t27.5 -104.5
t74.5 -38.5q49 0 78.5 39t29.5 104t-29.5 104t-78.5 39zM465 566h-128l-60 76l-61 -76h-128l114 146h149z" />
    <glyph glyph-name="Gbreve" unicode="&#x11e;" horiz-adv-x="744" 
d="M375 728q130 0 208 -63.5t89 -174.5h-158q-20 108 -139 108q-86 0 -136 -65.5t-50 -179.5q0 -117 49 -184t134 -67q77 0 118 43.5t42 125.5h-169v120h306v-391h-124v77h-2q-65 -91 -208 -91q-137 0 -217.5 98.5t-80.5 268.5q0 174 91 274.5t247 100.5zM447 906h95
q-4 -72 -50.5 -111.5t-124.5 -39.5t-124.5 39.5t-50.5 111.5h95q2 -30 23.5 -47t56.5 -17t56.5 17t23.5 47z" />
    <glyph glyph-name="gbreve" unicode="&#x11f;" horiz-adv-x="591" 
d="M245 522q89 0 144 -82h2v68h132v-476q0 -112 -64 -169t-177 -57q-103 0 -161 43t-64 119h140q2 -29 25 -45.5t63 -16.5q50 0 76 30t26 101v45h-2q-54 -76 -142 -76q-95 0 -151.5 70t-56.5 188t57 188t153 70zM283 407q-47 0 -74.5 -38.5t-27.5 -104.5t27.5 -104.5
t74.5 -38.5q49 0 78.5 39t29.5 104t-29.5 104t-78.5 39zM357 712h95q-4 -72 -50.5 -111.5t-124.5 -39.5t-124.5 39.5t-50.5 111.5h95q2 -30 23.5 -47t56.5 -17t56.5 17t23.5 47z" />
    <glyph glyph-name="Gdotaccent" unicode="&#x120;" horiz-adv-x="744" 
d="M375 728q130 0 208 -63.5t89 -174.5h-158q-20 108 -139 108q-86 0 -136 -65.5t-50 -179.5q0 -117 49 -184t134 -67q77 0 118 43.5t42 125.5h-169v120h306v-391h-124v77h-2q-65 -91 -208 -91q-137 0 -217.5 98.5t-80.5 268.5q0 174 91 274.5t247 100.5zM437 889v-120h-140
v120h140z" />
    <glyph glyph-name="gdotaccent" unicode="&#x121;" horiz-adv-x="591" 
d="M245 522q89 0 144 -82h2v68h132v-476q0 -112 -64 -169t-177 -57q-103 0 -161 43t-64 119h140q2 -29 25 -45.5t63 -16.5q50 0 76 30t26 101v45h-2q-54 -76 -142 -76q-95 0 -151.5 70t-56.5 188t57 188t153 70zM283 407q-47 0 -74.5 -38.5t-27.5 -104.5t27.5 -104.5
t74.5 -38.5q49 0 78.5 39t29.5 104t-29.5 104t-78.5 39zM347 712v-120h-140v120h140z" />
    <glyph glyph-name="Gcommaaccent" unicode="&#x122;" horiz-adv-x="744" 
d="M375 728q130 0 208 -63.5t89 -174.5h-158q-20 108 -139 108q-86 0 -136 -65.5t-50 -179.5q0 -117 49 -184t134 -67q77 0 118 43.5t42 125.5h-169v120h306v-391h-124v77h-2q-65 -91 -208 -91q-137 0 -217.5 98.5t-80.5 268.5q0 174 91 274.5t247 100.5zM428 -59v-104
l-68 -107h-56l45 107h-45v104h124z" />
    <glyph glyph-name="gcommaaccent" unicode="&#x123;" horiz-adv-x="591" 
d="M245 522q89 0 144 -82h2v68h132v-476q0 -112 -64 -169t-177 -57q-103 0 -161 43t-64 119h140q2 -29 25 -45.5t63 -16.5q50 0 76 30t26 101v45h-2q-54 -76 -142 -76q-95 0 -151.5 70t-56.5 188t57 188t153 70zM283 407q-47 0 -74.5 -38.5t-27.5 -104.5t27.5 -104.5
t74.5 -38.5q49 0 78.5 39t29.5 104t-29.5 104t-78.5 39zM339 788l-45 -107h45v-104h-124v104l68 107h56z" />
    <glyph glyph-name="Hcircumflex" unicode="&#x124;" horiz-adv-x="750" 
d="M668 712v-712h-147v307h-292v-307h-147v712h147v-279h292v279h147zM186 760l114 146h149l114 -146h-128l-61 76l-60 -76h-128z" />
    <glyph glyph-name="hcircumflex" unicode="&#x125;" 
d="M208 712v-260h2q53 68 140 68t137 -53.5t50 -154.5v-312h-140v298q0 112 -89 112q-45 0 -72.5 -35.5t-27.5 -102.5v-272h-140v712h140zM110 760l114 146h149l114 -146h-128l-61 76l-60 -76h-128z" />
    <glyph glyph-name="Hbar" unicode="&#x126;" horiz-adv-x="750" 
d="M723 640v-72h-55v-568h-147v307h-292v-307h-147v568h-55v72h55v72h147v-72h292v72h147v-72h55zM521 433v135h-292v-135h292z" />
    <glyph glyph-name="hbar" unicode="&#x127;" 
d="M350 520q87 0 137 -53.5t50 -154.5v-312h-140v298q0 112 -89 112q-45 0 -72.5 -35.5t-27.5 -102.5v-272h-140v576h-74v64h74v72h140v-72h112v-64h-112v-124h2q53 68 140 68z" />
    <glyph glyph-name="Itilde" unicode="&#x128;" horiz-adv-x="311" 
d="M229 712v-712h-147v712h147zM266 906h78q-3 -63 -34 -99t-84 -36q-35 0 -75.5 23t-58.5 23q-40 0 -46 -46h-78q3 63 34 99t84 36q36 0 76 -23t58 -23q40 0 46 46z" />
    <glyph glyph-name="itilde" unicode="&#x129;" horiz-adv-x="276" 
d="M208 508v-508h-140v508h140zM236 712h68q-3 -63 -31 -99t-77 -36q-32 0 -66 24t-50 24q-36 0 -40 -48h-67q3 64 30.5 99.5t76.5 35.5q32 0 66 -24t50 -24q35 0 40 48z" />
    <glyph glyph-name="Imacron" unicode="&#x12a;" horiz-adv-x="311" 
d="M229 712v-712h-147v712h147zM319 869v-91h-326v91h326z" />
    <glyph glyph-name="imacron" unicode="&#x12b;" horiz-adv-x="276" 
d="M208 508v-508h-140v508h140zM281 694v-91h-286v91h286z" />
    <glyph glyph-name="Ibreve" unicode="&#x12c;" horiz-adv-x="311" 
d="M229 712v-712h-147v712h147zM236 906h95q-4 -72 -50.5 -111.5t-124.5 -39.5t-124.5 39.5t-50.5 111.5h95q2 -30 23.5 -47t56.5 -17t56.5 17t23.5 47z" />
    <glyph glyph-name="ibreve" unicode="&#x12d;" horiz-adv-x="276" 
d="M208 508v-508h-140v508h140zM209 712h88q-4 -71 -45.5 -111t-113.5 -40t-113.5 39.5t-45.5 111.5h88q2 -32 21 -50t50 -18t50 18t21 50z" />
    <glyph glyph-name="Iogonek" unicode="&#x12e;" horiz-adv-x="311" 
d="M196 -119q21 0 36 6v-71q-32 -13 -78 -13q-56 0 -84.5 23t-28.5 64q0 32 19 57.5t59 52.5h-37v712h147v-712q-68 -47 -68 -88q0 -31 35 -31z" />
    <glyph glyph-name="iogonek" unicode="&#x12f;" horiz-adv-x="276" 
d="M175 -119q21 0 36 6v-71q-33 -13 -78 -13q-56 0 -84.5 23t-28.5 64q0 32 19 57.5t59 52.5h-30v508h140v-508q-68 -47 -68 -88q0 -31 35 -31zM208 712v-120h-140v120h140z" />
    <glyph glyph-name="Idotaccent" unicode="&#x130;" horiz-adv-x="311" 
d="M229 712v-712h-147v712h147zM226 889v-120h-140v120h140z" />
    <glyph glyph-name="dotlessi" unicode="&#x131;" horiz-adv-x="276" 
d="M208 508v-508h-140v508h140z" />
    <glyph glyph-name="IJ" unicode="&#x132;" horiz-adv-x="703" 
d="M229 712v-712h-147v712h147zM479 712h147v-485q0 -121 -56.5 -177.5t-178.5 -56.5q-38 0 -65 8v125q27 -5 47 -5q57 0 81.5 28.5t24.5 108.5v454z" />
    <glyph glyph-name="ij" unicode="&#x133;" horiz-adv-x="554" 
d="M208 508v-508h-140v508h140zM346 508h140v-519q0 -92 -46.5 -135.5t-126.5 -43.5q-37 0 -69 8v101q12 -3 27 -3q39 0 57 20.5t18 73.5v498zM208 712v-120h-140v120h140zM486 712v-120h-140v120h140z" />
    <glyph glyph-name="Jcircumflex" unicode="&#x134;" horiz-adv-x="392" 
d="M168 712h147v-485q0 -121 -56.5 -177.5t-178.5 -56.5q-38 0 -65 8v125q27 -5 47 -5q57 0 81.5 28.5t24.5 108.5v454zM53 760l114 146h149l114 -146h-128l-61 76l-60 -76h-128z" />
    <glyph glyph-name="jcircumflex" unicode="&#x135;" horiz-adv-x="278" 
d="M70 508h140v-519q0 -92 -46.5 -135.5t-126.5 -43.5q-37 0 -69 8v101q12 -3 27 -3q39 0 57 20.5t18 73.5v498zM210 712l103 -145h-120l-53 77l-53 -77h-121l103 145h141z" />
    <glyph glyph-name="Kcommaaccent" unicode="&#x136;" horiz-adv-x="663" 
d="M636 712l-271 -338l294 -374h-187l-241 336h-2v-336h-147v712h147v-313h2l233 313h172zM394 -59v-104l-68 -107h-56l45 107h-45v104h124z" />
    <glyph glyph-name="kcommaaccent" unicode="&#x137;" horiz-adv-x="543" 
d="M339 274l214 -274h-173l-170 238h-2v-238h-140v712h140v-409h2l164 205h158zM229 -163v104h124v-104l-68 -107h-56l45 107h-45z" />
    <glyph glyph-name="kgreenlandic" unicode="&#x138;" horiz-adv-x="560" 
d="M339 274l214 -274h-173l-170 238h-2v-238h-140v508h140v-205h2l164 205h158z" />
    <glyph glyph-name="Lacute" unicode="&#x139;" horiz-adv-x="575" 
d="M229 712v-586h336v-126h-483v712h147zM350 906l-140 -146h-110l77 146h173z" />
    <glyph glyph-name="lacute" unicode="&#x13a;" horiz-adv-x="276" 
d="M208 712v-712h-140v712h140zM318 916l-140 -146h-110l77 146h173z" />
    <glyph glyph-name="Lcommaaccent" unicode="&#x13b;" horiz-adv-x="575" 
d="M229 712v-586h336v-126h-483v712h147zM386 -59v-104l-68 -107h-56l45 107h-45v104h124z" />
    <glyph glyph-name="lcommaaccent" unicode="&#x13c;" horiz-adv-x="276" 
d="M208 712v-712h-140v712h140zM200 -59v-104l-68 -107h-56l45 107h-45v104h124z" />
    <glyph glyph-name="Lcaron" unicode="&#x13d;" horiz-adv-x="575" 
d="M229 712v-586h336v-126h-483v712h147zM406 712l-58 -224h-79l26 224h111z" />
    <glyph glyph-name="lcaron" unicode="&#x13e;" horiz-adv-x="276" 
d="M208 712v-712h-140v712h140zM373 712l-58 -177h-79l26 177h111z" />
    <glyph glyph-name="Ldot" unicode="&#x13f;" horiz-adv-x="655" 
d="M229 712v-586h336v-126h-483v712h147zM553 515v-167h-154v167h154z" />
    <glyph glyph-name="ldot" unicode="&#x140;" horiz-adv-x="484" 
d="M208 712v-712h-140v712h140zM457 439v-167h-154v167h154z" />
    <glyph glyph-name="Lslash" unicode="&#x141;" horiz-adv-x="575" 
d="M229 126h336v-126h-483v280l-69 -41v122l69 41v310h147v-232l139 83v-122l-139 -83v-232z" />
    <glyph glyph-name="lslash" unicode="&#x142;" horiz-adv-x="332" 
d="M322 512v-116l-86 -51v-345h-140v279l-86 -51v116l86 51v317h140v-251z" />
    <glyph glyph-name="Nacute" unicode="&#x143;" horiz-adv-x="776" 
d="M694 712v-712h-209l-138 289q-76 161 -130 294h-2q8 -165 8 -309v-274h-141v712h209l138 -289q76 -161 130 -294h2q-8 165 -8 309v274h141zM553 906l-140 -146h-110l77 146h173z" />
    <glyph glyph-name="nacute" unicode="&#x144;" 
d="M350 520q87 0 137 -53.5t50 -154.5v-312h-140v298q0 112 -89 112q-45 0 -72.5 -35.5t-27.5 -102.5v-272h-140v508h131v-64h2q56 76 149 76zM468 712l-140 -146h-110l77 146h173z" />
    <glyph glyph-name="Ncommaaccent" unicode="&#x145;" horiz-adv-x="776" 
d="M694 712v-712h-209l-138 289q-76 161 -130 294h-2q8 -165 8 -309v-274h-141v712h209l138 -289q76 -161 130 -294h2q-8 165 -8 309v274h141zM450 -59v-104l-68 -107h-56l45 107h-45v104h124z" />
    <glyph glyph-name="ncommaaccent" unicode="&#x146;" 
d="M350 520q87 0 137 -53.5t50 -154.5v-312h-140v298q0 112 -89 112q-45 0 -72.5 -35.5t-27.5 -102.5v-272h-140v508h131v-64h2q56 76 149 76zM365 -59v-104l-68 -107h-56l45 107h-45v104h124z" />
    <glyph glyph-name="Ncaron" unicode="&#x147;" horiz-adv-x="776" 
d="M694 712v-712h-209l-138 289q-76 161 -130 294h-2q8 -165 8 -309v-274h-141v712h209l138 -289q76 -161 130 -294h2q-8 165 -8 309v274h141zM576 906l-114 -146h-149l-114 146h128l61 -76l60 76h128z" />
    <glyph glyph-name="ncaron" unicode="&#x148;" 
d="M350 520q87 0 137 -53.5t50 -154.5v-312h-140v298q0 112 -89 112q-45 0 -72.5 -35.5t-27.5 -102.5v-272h-140v508h131v-64h2q56 76 149 76zM491 712l-114 -146h-149l-114 146h128l61 -76l60 76h128z" />
    <glyph glyph-name="napostrophe" unicode="&#x149;" horiz-adv-x="750" 
d="M500 520q87 0 137 -53.5t50 -154.5v-312h-140v298q0 112 -89 112q-45 0 -72.5 -35.5t-27.5 -102.5v-272h-140v508h131v-64h2q56 76 149 76zM192 712v-142l-63 -146h-71l47 146h-44v142h131z" />
    <glyph glyph-name="Eng" unicode="&#x14a;" horiz-adv-x="746" 
d="M523 712h141v-726q0 -92 -46.5 -135.5t-126.5 -43.5q-37 0 -69 8v101q14 -3 30 -3q69 0 69 65q0 18 -7 34.5t-35 65.5l-139 241q-69 121 -123 236h-2q8 -113 8 -254v-301h-141v712h183l141 -246q69 -121 123 -236h2q-8 113 -8 254v228z" />
    <glyph glyph-name="eng" unicode="&#x14b;" 
d="M355 521q83 0 129 -48q28 -28 40.5 -68t12.5 -107v-308q0 -92 -46.5 -135.5t-126.5 -43.5q-37 0 -69 8v101q12 -3 27 -3q39 0 57 20.5t18 73.5v274q0 58 -18 92t-70 34q-45 0 -73 -35.5t-28 -102.5v-273h-140v508h132v-65h2q55 78 153 78z" />
    <glyph glyph-name="Omacron" unicode="&#x14c;" horiz-adv-x="748" 
d="M374 728q157 0 247 -99.5t90 -272.5t-90 -272.5t-247 -99.5t-247 99.5t-90 272.5t90 272.5t247 99.5zM374 598q-86 0 -135.5 -64.5t-49.5 -177.5t49.5 -177.5t135.5 -64.5t135.5 64.5t49.5 177.5t-49.5 177.5t-135.5 64.5zM537 869v-91h-326v91h326z" />
    <glyph glyph-name="omacron" unicode="&#x14d;" horiz-adv-x="590" 
d="M295 524q119 0 189.5 -73t70.5 -197t-70.5 -197t-189.5 -73t-189.5 73t-70.5 197t70.5 197t189.5 73zM295 416q-52 0 -82.5 -44t-30.5 -118t30.5 -118t82.5 -44t82.5 44t30.5 118t-30.5 118t-82.5 44zM458 689v-91h-326v91h326z" />
    <glyph glyph-name="Obreve" unicode="&#x14e;" horiz-adv-x="748" 
d="M374 728q157 0 247 -99.5t90 -272.5t-90 -272.5t-247 -99.5t-247 99.5t-90 272.5t90 272.5t247 99.5zM374 598q-86 0 -135.5 -64.5t-49.5 -177.5t49.5 -177.5t135.5 -64.5t135.5 64.5t49.5 177.5t-49.5 177.5t-135.5 64.5zM454 906h95q-4 -72 -50.5 -111.5t-124.5 -39.5
t-124.5 39.5t-50.5 111.5h95q2 -30 23.5 -47t56.5 -17t56.5 17t23.5 47z" />
    <glyph glyph-name="obreve" unicode="&#x14f;" horiz-adv-x="590" 
d="M295 524q119 0 189.5 -73t70.5 -197t-70.5 -197t-189.5 -73t-189.5 73t-70.5 197t70.5 197t189.5 73zM295 416q-52 0 -82.5 -44t-30.5 -118t30.5 -118t82.5 -44t82.5 44t30.5 118t-30.5 118t-82.5 44zM375 712h95q-4 -72 -50.5 -111.5t-124.5 -39.5t-124.5 39.5
t-50.5 111.5h95q2 -30 23.5 -47t56.5 -17t56.5 17t23.5 47z" />
    <glyph glyph-name="Ohungarumlaut" unicode="&#x150;" horiz-adv-x="748" 
d="M374 728q157 0 247 -99.5t90 -272.5t-90 -272.5t-247 -99.5t-247 99.5t-90 272.5t90 272.5t247 99.5zM374 598q-86 0 -135.5 -64.5t-49.5 -177.5t49.5 -177.5t135.5 -64.5t135.5 64.5t49.5 177.5t-49.5 177.5t-135.5 64.5zM431 906l-140 -146h-110l97 146h153zM621 906
l-140 -146h-110l97 146h153z" />
    <glyph glyph-name="ohungarumlaut" unicode="&#x151;" horiz-adv-x="590" 
d="M295 524q119 0 189.5 -73t70.5 -197t-70.5 -197t-189.5 -73t-189.5 73t-70.5 197t70.5 197t189.5 73zM295 416q-52 0 -82.5 -44t-30.5 -118t30.5 -118t82.5 -44t82.5 44t30.5 118t-30.5 118t-82.5 44zM372 712l-140 -146h-110l97 146h153zM562 712l-140 -146h-110l97 146
h153z" />
    <glyph glyph-name="OE" unicode="&#x152;" horiz-adv-x="1020" 
d="M961 712v-126h-345v-161h322v-125h-322v-174h354v-126h-551q-183 0 -282.5 92.5t-99.5 263.5t99.5 263.5t282.5 92.5h542zM469 126v460h-50q-230 0 -230 -230t230 -230h50z" />
    <glyph glyph-name="oe" unicode="&#x153;" horiz-adv-x="928" 
d="M648 83q39 0 64.5 19.5t30.5 51.5h143q-15 -73 -79 -121.5t-159 -48.5q-112 0 -175 76q-65 -76 -178 -76q-119 0 -189.5 73t-70.5 197t70.5 197t189.5 73q113 0 178 -76q65 76 174 76q85 0 146 -45.5t85 -123.5q15 -52 15 -130h-355q3 -74 33 -108t77 -34zM295 92
q52 0 82.5 44t30.5 118t-30.5 118t-82.5 44t-82.5 -44t-30.5 -118t30.5 -118t82.5 -44zM647 425q-90 0 -106 -112h212q-6 56 -34.5 84t-71.5 28z" />
    <glyph glyph-name="Racute" unicode="&#x154;" horiz-adv-x="666" 
d="M82 0v712h262q260 0 260 -201q0 -65 -35 -111t-95 -63v-2q38 -14 60 -42.5t47 -95.5l71 -197h-160l-57 169q-20 58 -46.5 80.5t-78.5 22.5h-81v-272h-147zM325 593h-96v-204h104q123 0 123 105q0 99 -131 99zM490 906l-140 -146h-110l77 146h173z" />
    <glyph glyph-name="racute" unicode="&#x155;" horiz-adv-x="392" 
d="M338 516q25 0 46 -6v-121q-27 5 -44 5q-64 0 -98 -39.5t-34 -114.5v-240h-140v508h129v-72h2q49 80 139 80zM374 712l-140 -146h-110l77 146h173z" />
    <glyph glyph-name="Rcommaaccent" unicode="&#x156;" horiz-adv-x="666" 
d="M82 0v712h262q260 0 260 -201q0 -65 -35 -111t-95 -63v-2q38 -14 60 -42.5t47 -95.5l71 -197h-160l-57 169q-20 58 -46.5 80.5t-78.5 22.5h-81v-272h-147zM325 593h-96v-204h104q123 0 123 105q0 99 -131 99zM409 -59v-104l-68 -107h-56l45 107h-45v104h124z" />
    <glyph glyph-name="rcommaaccent" unicode="&#x157;" horiz-adv-x="392" 
d="M338 516q25 0 46 -6v-121q-27 5 -44 5q-64 0 -98 -39.5t-34 -114.5v-240h-140v508h129v-72h2q49 80 139 80zM200 -59v-104l-68 -107h-56l45 107h-45v104h124z" />
    <glyph glyph-name="Rcaron" unicode="&#x158;" horiz-adv-x="666" 
d="M82 0v712h262q260 0 260 -201q0 -65 -35 -111t-95 -63v-2q38 -14 60 -42.5t47 -95.5l71 -197h-160l-57 169q-20 58 -46.5 80.5t-78.5 22.5h-81v-272h-147zM325 593h-96v-204h104q123 0 123 105q0 99 -131 99zM513 906l-114 -146h-149l-114 146h128l61 -76l60 76h128z" />
    <glyph glyph-name="rcaron" unicode="&#x159;" horiz-adv-x="392" 
d="M338 516q25 0 46 -6v-121q-27 5 -44 5q-64 0 -98 -39.5t-34 -114.5v-240h-140v508h129v-72h2q49 80 139 80zM397 712l-114 -146h-149l-114 146h128l61 -76l60 76h128z" />
    <glyph glyph-name="Sacute" unicode="&#x15a;" horiz-adv-x="630" 
d="M301 728q133 0 201.5 -59.5t68.5 -174.5h-149q0 56 -32 86.5t-92 30.5q-49 0 -79 -21.5t-30 -56.5q0 -39 32.5 -59t122.5 -42q49 -12 78.5 -21t66.5 -27t57 -39.5t34 -56t14 -79.5q0 -101 -76.5 -163t-201.5 -62q-135 0 -211.5 65t-76.5 185h152q0 -131 138 -131
q56 0 89.5 24.5t33.5 66.5q0 44 -30 61.5t-117 39.5q-52 13 -79.5 21.5t-67 26.5t-59.5 38.5t-35 55.5t-15 80q0 94 73 152.5t190 58.5zM466 906l-140 -146h-110l77 146h173z" />
    <glyph glyph-name="sacute" unicode="&#x15b;" horiz-adv-x="524" 
d="M257 524q101 0 157 -44t56 -128h-134q0 74 -80 74q-69 0 -69 -47q0 -25 22 -36.5t87 -28.5q40 -11 56.5 -15.5t48.5 -19t46.5 -30t27 -43t12.5 -63.5q0 -72 -60.5 -115.5t-163.5 -43.5q-108 0 -168 45.5t-60 135.5h142q0 -38 23 -59t66 -21q74 0 74 49q0 34 -39 50
q-18 8 -78 24q-24 6 -29 7.5t-27 8t-28 10t-23.5 11.5t-23.5 15t-17.5 18.5t-15.5 24t-8 29.5t-4 36q0 69 58 112.5t152 43.5zM422 712l-140 -146h-110l77 146h173z" />
    <glyph glyph-name="Scircumflex" unicode="&#x15c;" horiz-adv-x="630" 
d="M301 728q133 0 201.5 -59.5t68.5 -174.5h-149q0 56 -32 86.5t-92 30.5q-49 0 -79 -21.5t-30 -56.5q0 -39 32.5 -59t122.5 -42q49 -12 78.5 -21t66.5 -27t57 -39.5t34 -56t14 -79.5q0 -101 -76.5 -163t-201.5 -62q-135 0 -211.5 65t-76.5 185h152q0 -131 138 -131
q56 0 89.5 24.5t33.5 66.5q0 44 -30 61.5t-117 39.5q-52 13 -79.5 21.5t-67 26.5t-59.5 38.5t-35 55.5t-15 80q0 94 73 152.5t190 58.5zM112 760l114 146h149l114 -146h-128l-61 76l-60 -76h-128z" />
    <glyph glyph-name="scircumflex" unicode="&#x15d;" horiz-adv-x="524" 
d="M257 524q101 0 157 -44t56 -128h-134q0 74 -80 74q-69 0 -69 -47q0 -25 22 -36.5t87 -28.5q40 -11 56.5 -15.5t48.5 -19t46.5 -30t27 -43t12.5 -63.5q0 -72 -60.5 -115.5t-163.5 -43.5q-108 0 -168 45.5t-60 135.5h142q0 -38 23 -59t66 -21q74 0 74 49q0 34 -39 50
q-18 8 -78 24q-24 6 -29 7.5t-27 8t-28 10t-23.5 11.5t-23.5 15t-17.5 18.5t-15.5 24t-8 29.5t-4 36q0 69 58 112.5t152 43.5zM445 566h-128l-60 76l-61 -76h-128l114 146h149z" />
    <glyph glyph-name="Scedilla" unicode="&#x15e;" horiz-adv-x="630" 
d="M594 209q0 -97 -70.5 -158t-186.5 -66l-28 -46q13 5 32 5q35 0 60 -20.5t25 -55.5q0 -41 -32 -67.5t-90 -26.5q-60 0 -114 30l22 45q41 -22 80 -22q49 0 49 35q0 17 -13 27.5t-35 10.5q-17 0 -32 -6l-21 23l43 68q-120 8 -187.5 72.5t-67.5 176.5h152q0 -131 138 -131
q56 0 89.5 24.5t33.5 66.5q0 44 -30 61.5t-117 39.5q-52 13 -79.5 21.5t-67 26.5t-59.5 38.5t-35 55.5t-15 80q0 94 73 152.5t190 58.5q133 0 201.5 -59.5t68.5 -174.5h-149q0 56 -32 86.5t-92 30.5q-49 0 -79 -21.5t-30 -56.5q0 -39 32.5 -59t122.5 -42q49 -12 78.5 -21
t66.5 -27t57 -39.5t34 -56t14 -79.5z" />
    <glyph glyph-name="scedilla" unicode="&#x15f;" horiz-adv-x="524" 
d="M487 143q0 -66 -53 -109t-143 -49l-29 -46q13 5 32 5q35 0 60 -20.5t25 -55.5q0 -41 -32 -67.5t-90 -26.5q-60 0 -114 30l22 45q41 -22 80 -22q49 0 49 35q0 17 -13 27.5t-35 10.5q-17 0 -32 -6l-21 23l42 68q-95 5 -147.5 50.5t-52.5 129.5h142q0 -38 23 -59t66 -21
q74 0 74 49q0 34 -39 50q-18 8 -78 24q-24 6 -29 7.5t-27 8t-28 10t-23.5 11.5t-23.5 15t-17.5 18.5t-15.5 24t-8 29.5t-4 36q0 69 58 112.5t152 43.5q101 0 157 -44t56 -128h-134q0 74 -80 74q-69 0 -69 -47q0 -25 22 -36.5t87 -28.5q40 -11 56.5 -15.5t48.5 -19t46.5 -30
t27 -43t12.5 -63.5z" />
    <glyph glyph-name="Scaron" unicode="&#x160;" horiz-adv-x="630" 
d="M301 728q133 0 201.5 -59.5t68.5 -174.5h-149q0 56 -32 86.5t-92 30.5q-49 0 -79 -21.5t-30 -56.5q0 -39 32.5 -59t122.5 -42q49 -12 78.5 -21t66.5 -27t57 -39.5t34 -56t14 -79.5q0 -101 -76.5 -163t-201.5 -62q-135 0 -211.5 65t-76.5 185h152q0 -131 138 -131
q56 0 89.5 24.5t33.5 66.5q0 44 -30 61.5t-117 39.5q-52 13 -79.5 21.5t-67 26.5t-59.5 38.5t-35 55.5t-15 80q0 94 73 152.5t190 58.5zM489 906l-114 -146h-149l-114 146h128l61 -76l60 76h128z" />
    <glyph glyph-name="scaron" unicode="&#x161;" horiz-adv-x="524" 
d="M257 524q101 0 157 -44t56 -128h-134q0 74 -80 74q-69 0 -69 -47q0 -25 22 -36.5t87 -28.5q40 -11 56.5 -15.5t48.5 -19t46.5 -30t27 -43t12.5 -63.5q0 -72 -60.5 -115.5t-163.5 -43.5q-108 0 -168 45.5t-60 135.5h142q0 -38 23 -59t66 -21q74 0 74 49q0 34 -39 50
q-18 8 -78 24q-24 6 -29 7.5t-27 8t-28 10t-23.5 11.5t-23.5 15t-17.5 18.5t-15.5 24t-8 29.5t-4 36q0 69 58 112.5t152 43.5zM445 712l-114 -146h-149l-114 146h128l61 -76l60 76h128z" />
    <glyph glyph-name="Tcedilla" unicode="&#x162;" horiz-adv-x="615" 
d="M605 712v-126h-224v-586h-147v586h-224v126h595zM370 -59v-104l-68 -107h-56l45 107h-45v104h124z" />
    <glyph glyph-name="tcedilla" unicode="&#x163;" horiz-adv-x="357" 
d="M296 105q21 0 36 5v-107q-32 -10 -74 -10q-88 0 -128 38.5t-40 126.5v246h-82v104h82v132h140v-132h97v-104h-97v-221q0 -42 15 -60t51 -18zM137 -163v104h124v-104l-68 -107h-56l45 107h-45z" />
    <glyph glyph-name="Tcaron" unicode="&#x164;" horiz-adv-x="615" 
d="M605 712v-126h-224v-586h-147v586h-224v126h595zM496 906l-114 -146h-149l-114 146h128l61 -76l60 76h128z" />
    <glyph glyph-name="tcaron" unicode="&#x165;" horiz-adv-x="357" 
d="M327 404h-97v-221q0 -42 15 -60t51 -18q21 0 36 5v-107q-32 -10 -74 -10q-88 0 -128 38.5t-40 126.5v246h-82v104h82v132h140v-132h97v-104zM284 712h111l-58 -177h-79z" />
    <glyph glyph-name="Tbar" unicode="&#x166;" horiz-adv-x="615" 
d="M605 586h-224v-186h135v-106h-135v-294h-147v294h-135v106h135v186h-224v126h595v-126z" />
    <glyph glyph-name="tbar" unicode="&#x167;" horiz-adv-x="357" 
d="M296 105q21 0 36 5v-107q-32 -10 -74 -10q-88 0 -127.5 38.5t-39.5 126.5v67h-80v83h80v96h-83v104h83v132h139v-132h97v-104h-97v-96h94v-83h-94v-42q0 -42 15 -60t51 -18z" />
    <glyph glyph-name="Utilde" unicode="&#x168;" horiz-adv-x="718" 
d="M495 712h147v-440q0 -140 -73.5 -214t-209.5 -74t-209.5 74t-73.5 214v440h147v-435q0 -79 35 -121t101 -42t101 42t35 121v435zM469 906h78q-3 -63 -34 -99t-84 -36q-35 0 -75.5 23t-58.5 23q-40 0 -46 -46h-78q3 63 34 99t84 36q35 0 76 -23t58 -23q40 0 46 46z" />
    <glyph glyph-name="utilde" unicode="&#x169;" 
d="M250 -12q-87 0 -137 53.5t-50 154.5v312h140v-298q0 -112 89 -112q45 0 72.5 35.5t27.5 102.5v272h140v-508h-131v64h-2q-56 -76 -149 -76zM410 712h78q-3 -63 -34 -99t-84 -36q-35 0 -75.5 23t-58.5 23q-40 0 -46 -46h-78q3 63 34 99t84 36q36 0 76 -23t58 -23
q40 0 46 46z" />
    <glyph glyph-name="Umacron" unicode="&#x16a;" horiz-adv-x="718" 
d="M495 712h147v-440q0 -140 -73.5 -214t-209.5 -74t-209.5 74t-73.5 214v440h147v-435q0 -79 35 -121t101 -42t101 42t35 121v435zM522 869v-91h-326v91h326z" />
    <glyph glyph-name="umacron" unicode="&#x16b;" 
d="M250 -12q-87 0 -137 53.5t-50 154.5v312h140v-298q0 -112 89 -112q45 0 72.5 35.5t27.5 102.5v272h140v-508h-131v64h-2q-56 -76 -149 -76zM463 689v-91h-326v91h326z" />
    <glyph glyph-name="Ubreve" unicode="&#x16c;" horiz-adv-x="718" 
d="M495 712h147v-440q0 -140 -73.5 -214t-209.5 -74t-209.5 74t-73.5 214v440h147v-435q0 -79 35 -121t101 -42t101 42t35 121v435zM439 906h95q-4 -72 -50.5 -111.5t-124.5 -39.5t-124.5 39.5t-50.5 111.5h95q2 -30 23.5 -47t56.5 -17t56.5 17t23.5 47z" />
    <glyph glyph-name="ubreve" unicode="&#x16d;" 
d="M250 -12q-87 0 -137 53.5t-50 154.5v312h140v-298q0 -112 89 -112q45 0 72.5 35.5t27.5 102.5v272h140v-508h-131v64h-2q-56 -76 -149 -76zM380 712h95q-4 -72 -50.5 -111.5t-124.5 -39.5t-124.5 39.5t-50.5 111.5h95q2 -30 23.5 -47t56.5 -17t56.5 17t23.5 47z" />
    <glyph glyph-name="Uring" unicode="&#x16e;" horiz-adv-x="718" 
d="M495 712h147v-440q0 -140 -73.5 -214t-209.5 -74t-209.5 74t-73.5 214v440h147v-435q0 -79 35 -121t101 -42t101 42t35 121v435zM359 966q45 0 76.5 -31.5t31.5 -76.5t-31.5 -76.5t-76.5 -31.5t-76.5 31.5t-31.5 76.5t31.5 76.5t76.5 31.5zM359 912q-23 0 -38.5 -16
t-15.5 -38t15.5 -38t38.5 -16t38.5 16t15.5 38t-15.5 38t-38.5 16z" />
    <glyph glyph-name="uring" unicode="&#x16f;" 
d="M250 -12q-87 0 -137 53.5t-50 154.5v312h140v-298q0 -112 89 -112q45 0 72.5 35.5t27.5 102.5v272h140v-508h-131v64h-2q-56 -76 -149 -76zM300 772q45 0 76.5 -31.5t31.5 -76.5t-31.5 -76.5t-76.5 -31.5t-76.5 31.5t-31.5 76.5t31.5 76.5t76.5 31.5zM300 718
q-22 0 -38 -16t-16 -38t16 -38t38 -16t38 16t16 38t-16 38t-38 16z" />
    <glyph glyph-name="Uhungarumlaut" unicode="&#x170;" horiz-adv-x="718" 
d="M495 712h147v-440q0 -140 -73.5 -214t-209.5 -74t-209.5 74t-73.5 214v440h147v-435q0 -79 35 -121t101 -42t101 42t35 121v435zM416 906l-140 -146h-110l97 146h153zM606 906l-140 -146h-110l97 146h153z" />
    <glyph glyph-name="uhungarumlaut" unicode="&#x171;" 
d="M250 -12q-87 0 -137 53.5t-50 154.5v312h140v-298q0 -112 89 -112q45 0 72.5 35.5t27.5 102.5v272h140v-508h-131v64h-2q-56 -76 -149 -76zM377 712l-140 -146h-110l97 146h153zM567 712l-140 -146h-110l97 146h153z" />
    <glyph glyph-name="Uogonek" unicode="&#x172;" horiz-adv-x="718" 
d="M495 712h147v-440q0 -166 -115 -256q-66 -52 -66 -96q0 -39 35 -39q21 0 36 6v-71q-32 -13 -78 -13q-113 0 -113 91q0 48 54 91v2q-17 -3 -36 -3q-136 0 -209.5 74t-73.5 214v440h147v-435q0 -79 35 -121t101 -42t101 42t35 121v435z" />
    <glyph glyph-name="uogonek" unicode="&#x173;" 
d="M499 -119q21 0 36 6v-71q-33 -13 -78 -13q-56 0 -84.5 23t-28.5 64q0 32 19 57.5t59 52.5h-21v64h-2q-56 -76 -149 -76q-87 0 -137 53.5t-50 154.5v312h140v-298q0 -112 89 -112q45 0 72.5 35.5t27.5 102.5v272h140v-508q-68 -47 -68 -88q0 -31 35 -31z" />
    <glyph glyph-name="Wcircumflex" unicode="&#x174;" horiz-adv-x="956" 
d="M947 712l-149 -712h-191l-66 282q-37 157 -62 305h-2q-25 -148 -62 -305l-66 -282h-191l-149 712h144l51 -259q32 -162 52 -308h2q27 151 65 308l62 259h186l62 -259q38 -157 65 -308h2q20 146 52 308l51 259h144zM287 760l114 146h149l114 -146h-128l-61 76l-60 -76
h-128z" />
    <glyph glyph-name="wcircumflex" unicode="&#x175;" horiz-adv-x="810" 
d="M805 508l-112 -508h-200l-45 200q-23 104 -42 217h-2q-19 -113 -42 -217l-45 -200h-200l-112 508h139l38 -196q24 -123 37 -221h2q18 112 43 219l45 198h192l45 -198q25 -107 43 -219h2q13 98 37 221l38 196h139zM593 566h-128l-60 76l-61 -76h-128l114 146h149z" />
    <glyph glyph-name="Ycircumflex" unicode="&#x176;" horiz-adv-x="638" 
d="M635 712l-243 -435v-277h-147v277l-243 435h165l68 -134q45 -89 83 -181h2q38 92 83 181l68 134h164zM130 760l114 146h149l114 -146h-128l-61 76l-60 -76h-128z" />
    <glyph glyph-name="ycircumflex" unicode="&#x177;" horiz-adv-x="504" 
d="M367 508h144l-182 -511q-38 -106 -92 -147t-150 -41q-39 0 -73 8v112q22 -8 54 -8q42 0 67.5 22.5t25.5 59.5q0 24 -24 92l-144 413h150l52 -170q32 -107 56 -213h2q30 123 59 213zM440 566h-128l-60 76l-61 -76h-128l114 146h149z" />
    <glyph glyph-name="Ydieresis" unicode="&#x178;" horiz-adv-x="638" 
d="M635 712l-243 -435v-277h-147v277l-243 435h165l68 -134q45 -89 83 -181h2q38 92 83 181l68 134h164zM272 889v-120h-123v120h123zM489 889v-120h-123v120h123z" />
    <glyph glyph-name="Zacute" unicode="&#x179;" horiz-adv-x="582" 
d="M545 712v-129l-350 -457v-2h367v-124h-542v129l350 457v2h-334v124h509zM456 906l-140 -146h-110l77 146h173z" />
    <glyph glyph-name="zacute" unicode="&#x17a;" horiz-adv-x="484" 
d="M446 508v-114l-249 -282v-2h259v-110h-428v114l249 282v2h-239v110h408zM400 712l-140 -146h-110l77 146h173z" />
    <glyph glyph-name="Zdotaccent" unicode="&#x17b;" horiz-adv-x="582" 
d="M545 712v-129l-350 -457v-2h367v-124h-542v129l350 457v2h-334v124h509zM361 889v-120h-140v120h140z" />
    <glyph glyph-name="zdotaccent" unicode="&#x17c;" horiz-adv-x="484" 
d="M446 508v-114l-249 -282v-2h259v-110h-428v114l249 282v2h-239v110h408zM305 712v-120h-140v120h140z" />
    <glyph glyph-name="Zcaron" unicode="&#x17d;" horiz-adv-x="582" 
d="M545 712v-129l-350 -457v-2h367v-124h-542v129l350 457v2h-334v124h509zM479 906l-114 -146h-149l-114 146h128l61 -76l60 76h128z" />
    <glyph glyph-name="zcaron" unicode="&#x17e;" horiz-adv-x="484" 
d="M446 508v-114l-249 -282v-2h259v-110h-428v114l249 282v2h-239v110h408zM423 712l-114 -146h-149l-114 146h128l61 -76l60 76h128z" />
    <glyph glyph-name="longs" unicode="&#x17f;" horiz-adv-x="341" 
d="M262 720q35 0 69 -8v-99q-9 3 -25 3q-38 0 -56 -18.5t-18 -60.5v-537h-138v404h-84v104h84v46q0 166 168 166z" />
    <glyph glyph-name="Schwa" unicode="&#x18f;" horiz-adv-x="764" 
d="M372 728q165 0 260 -100.5t95 -270.5q0 -162 -94.5 -267.5t-254.5 -105.5q-157 0 -249 100.5t-92 270.5q0 33 3 51h534q-6 99 -62.5 147t-141.5 48q-65 0 -106 -29.5t-51 -76.5h-157q23 100 104 166.5t212 66.5zM378 114q77 0 127.5 44t63.5 126h-378q12 -83 63 -126.5
t124 -43.5z" />
    <glyph glyph-name="florin" unicode="&#x192;" 
d="M499 723q43 0 80 -10v-107q-21 6 -50 6q-41 0 -64 -20.5t-36 -71.5l-13 -52h110v-104h-135l-91 -358q-27 -108 -75 -152.5t-137 -44.5q-40 0 -67 8v108q21 -6 49 -6q39 0 59 20t35 78l88 347h-101v104h126l16 63q26 101 74.5 146.5t131.5 45.5z" />
    <glyph glyph-name="Aringacute" unicode="&#x1fa;" horiz-adv-x="698" 
d="M541 0l-55 174h-273l-56 -174h-154l247 712h198l247 -712h-154zM253 300h193l-15 47q-49 156 -81 278h-2q-37 -140 -80 -278zM349 733q-45 0 -76.5 31.5t-31.5 76.5t31.5 76.5t76.5 31.5t76.5 -31.5t31.5 -76.5t-31.5 -76.5t-76.5 -31.5zM349 895q-23 0 -38.5 -15.5
t-15.5 -38.5t15.5 -38.5t38.5 -15.5t38.5 15.5t15.5 38.5t-15.5 38.5t-38.5 15.5zM514 1116l-140 -146h-110l77 146h173z" />
    <glyph glyph-name="aringacute" unicode="&#x1fb;" horiz-adv-x="547" 
d="M267 524q218 0 218 -201v-184q0 -86 14 -139h-126q-7 29 -7 68h-2q-56 -80 -165 -80q-79 0 -126 43.5t-47 110.5q0 65 45.5 105t151.5 57q64 10 127 14v18q0 90 -83 90q-39 0 -60.5 -20.5t-23.5 -56.5h-136q4 77 60 126t160 49zM350 214v19q-60 -4 -102 -11
q-44 -8 -63 -24t-19 -46q0 -29 19.5 -46.5t55.5 -17.5q51 0 80 29t29 97zM261 761q45 0 76.5 -31.5t31.5 -76.5t-31.5 -76.5t-76.5 -31.5t-76.5 31.5t-31.5 76.5t31.5 76.5t76.5 31.5zM261 707q-23 0 -38.5 -15.5t-15.5 -38.5t15.5 -38.5t38.5 -15.5t38.5 15.5t15.5 38.5
t-15.5 38.5t-38.5 15.5zM426 928l-140 -146h-110l77 146h173z" />
    <glyph glyph-name="AEacute" unicode="&#x1fc;" horiz-adv-x="965" 
d="M640 126h275v-126h-398l-26 179h-254l-77 -179h-166l332 712h580v-126h-332l23 -161h286v-125h-268zM291 303h182l-42 292h-14zM683 906l-140 -146h-110l77 146h173z" />
    <glyph glyph-name="aeacute" unicode="&#x1fd;" horiz-adv-x="880" 
d="M600 83q39 0 64.5 19.5t30.5 51.5h143q-15 -73 -79 -121.5t-159 -48.5q-121 0 -185 89q-61 -89 -192 -89q-90 0 -143.5 44.5t-53.5 113.5q0 166 256 166h78v28q0 90 -88 90q-41 0 -63.5 -20.5t-24.5 -56.5h-136q4 77 61 126t163 49q116 0 168 -60q63 60 159 60
q85 0 146 -45.5t85 -123.5q15 -52 15 -130h-355q3 -74 33 -108t77 -34zM360 214v11h-63q-72 0 -101.5 -18t-29.5 -55q0 -31 21 -49.5t58 -18.5q53 0 84 31t31 99zM599 425q-44 0 -72 -29.5t-35 -87.5h213q-5 58 -34 87.5t-72 29.5zM601 712l-140 -146h-110l77 146h173z" />
    <glyph glyph-name="Oslashacute" unicode="&#x1fe;" horiz-adv-x="748" 
d="M624 755l61 -48l-61 -82q87 -99 87 -269q0 -173 -90 -272.5t-247 -99.5q-111 0 -190 51l-59 -78l-62 48l61 82q-87 99 -87 269q0 173 90 272.5t247 99.5q111 0 191 -52zM183 356q0 -87 30 -150l272 363q-46 37 -111 37q-89 0 -140 -67t-51 -183zM374 106q89 0 140 67
t51 183q0 88 -31 150l-271 -364q47 -36 111 -36zM539 906l-140 -146h-110l77 146h173z" />
    <glyph glyph-name="oslashacute" unicode="&#x1ff;" horiz-adv-x="590" 
d="M485 560l52 -41l-52 -69q70 -73 70 -196q0 -124 -70.5 -197t-189.5 -73q-79 0 -137 33l-51 -69l-53 39l52 69q-71 74 -71 198t70.5 197t189.5 73q78 0 138 -33zM295 422q-55 0 -88 -45.5t-33 -122.5q0 -52 15 -88l174 232q-29 24 -68 24zM295 86q56 0 88.5 45.5
t32.5 122.5q0 49 -14 86l-174 -231q28 -23 67 -23zM460 712l-140 -146h-110l77 146h173z" />
    <glyph glyph-name="Scommaaccent" unicode="&#x218;" horiz-adv-x="630" 
d="M301 728q133 0 201.5 -59.5t68.5 -174.5h-149q0 56 -32 86.5t-92 30.5q-49 0 -79 -21.5t-30 -56.5q0 -39 32.5 -59t122.5 -42q49 -12 78.5 -21t66.5 -27t57 -39.5t34 -56t14 -79.5q0 -101 -76.5 -163t-201.5 -62q-135 0 -211.5 65t-76.5 185h152q0 -131 138 -131
q56 0 89.5 24.5t33.5 66.5q0 44 -30 61.5t-117 39.5q-52 13 -79.5 21.5t-67 26.5t-59.5 38.5t-35 55.5t-15 80q0 94 73 152.5t190 58.5zM370 -59v-104l-68 -107h-56l45 107h-45v104h124z" />
    <glyph glyph-name="scommaaccent" unicode="&#x219;" horiz-adv-x="524" 
d="M257 524q101 0 157 -44t56 -128h-134q0 74 -80 74q-69 0 -69 -47q0 -25 22 -36.5t87 -28.5q40 -11 56.5 -15.5t48.5 -19t46.5 -30t27 -43t12.5 -63.5q0 -72 -60.5 -115.5t-163.5 -43.5q-108 0 -168 45.5t-60 135.5h142q0 -38 23 -59t66 -21q74 0 74 49q0 34 -39 50
q-18 8 -78 24q-24 6 -29 7.5t-27 8t-28 10t-23.5 11.5t-23.5 15t-17.5 18.5t-15.5 24t-8 29.5t-4 36q0 69 58 112.5t152 43.5zM323 -59v-104l-68 -107h-56l45 107h-45v104h124z" />
    <glyph glyph-name="Tcommaaccent" unicode="&#x21a;" horiz-adv-x="615" 
d="M605 712v-126h-224v-586h-147v586h-224v126h595zM370 -59v-104l-68 -107h-56l45 107h-45v104h124z" />
    <glyph glyph-name="tcommaaccent" unicode="&#x21b;" horiz-adv-x="357" 
d="M296 105q21 0 36 5v-107q-32 -10 -74 -10q-88 0 -128 38.5t-40 126.5v246h-82v104h82v132h140v-132h97v-104h-97v-221q0 -42 15 -60t51 -18zM137 -163v104h124v-104l-68 -107h-56l45 107h-45z" />
    <glyph glyph-name="dotlessj" unicode="&#x237;" horiz-adv-x="278" 
d="M70 508h140v-519q0 -92 -46.5 -135.5t-126.5 -43.5q-37 0 -69 8v101q12 -3 27 -3q39 0 57 20.5t18 73.5v498z" />
    <glyph glyph-name="schwa" unicode="&#x259;" horiz-adv-x="573" 
d="M281 524q120 0 188.5 -74t68.5 -196q0 -117 -68 -193.5t-184 -76.5q-115 0 -183 73t-68 197q0 18 2 34h363q-3 71 -35.5 104t-83.5 33q-37 0 -61 -18.5t-29 -47.5h-143q16 71 77.5 118t155.5 47zM286 83q44 0 73.5 29.5t37.5 87.5h-222q6 -58 36 -87.5t75 -29.5z" />
    <glyph glyph-name="apostrophemod" unicode="&#x2bc;" horiz-adv-x="254" 
d="M192 712v-142l-63 -146h-71l47 146h-44v142h131z" />
    <glyph glyph-name="circumflex" unicode="&#x2c6;" horiz-adv-x="477" 
d="M427 566h-128l-60 76l-61 -76h-128l114 146h149z" />
    <glyph glyph-name="caron" unicode="&#x2c7;" horiz-adv-x="477" 
d="M427 712l-114 -146h-149l-114 146h128l61 -76l60 76h128z" />
    <glyph glyph-name="firsttonechinese" unicode="&#x2c9;" horiz-adv-x="426" 
d="M376 689v-91h-326v91h326z" />
    <glyph glyph-name="breve" unicode="&#x2d8;" horiz-adv-x="450" 
d="M305 712h95q-4 -72 -50.5 -111.5t-124.5 -39.5t-124.5 39.5t-50.5 111.5h95q2 -30 23.5 -47t56.5 -17t56.5 17t23.5 47z" />
    <glyph glyph-name="dotaccent" unicode="&#x2d9;" horiz-adv-x="240" 
d="M190 712v-120h-140v120h140z" />
    <glyph glyph-name="ring" unicode="&#x2da;" horiz-adv-x="316" 
d="M158 772q45 0 76.5 -31.5t31.5 -76.5t-31.5 -76.5t-76.5 -31.5t-76.5 31.5t-31.5 76.5t31.5 76.5t76.5 31.5zM158 718q-22 0 -38 -16t-16 -38t16 -38t38 -16t38 16t16 38t-16 38t-38 16z" />
    <glyph glyph-name="ogonek" unicode="&#x2db;" horiz-adv-x="291" 
d="M128 0h110q-68 -47 -68 -88q0 -31 35 -31q21 0 36 6v-71q-33 -13 -78 -13q-56 0 -84.5 23t-28.5 64q0 32 19 57.5t59 52.5z" />
    <glyph glyph-name="tilde" unicode="&#x2dc;" horiz-adv-x="476" 
d="M348 712h78q-3 -63 -34 -99t-84 -36q-35 0 -75.5 23t-58.5 23q-40 0 -46 -46h-78q3 63 34 99t84 36q36 0 76 -23t58 -23q40 0 46 46z" />
    <glyph glyph-name="hungarumlaut" unicode="&#x2dd;" horiz-adv-x="540" 
d="M300 712l-140 -146h-110l97 146h153zM490 712l-140 -146h-110l97 146h153z" />
    <glyph glyph-name="commaturnedabovecomb" unicode="&#x312;" horiz-adv-x="0" 
d="M174 788l-45 -107h45v-104h-124v104l68 107h56z" />
    <glyph glyph-name="commaaccent" unicode="&#x326;" horiz-adv-x="0" 
d="M174 -59v-104l-68 -107h-56l45 107h-45v104h124z" />
    <glyph glyph-name="dbllowlinecomb" unicode="&#x333;" horiz-adv-x="0" 
d="M-500 -50v-71h-500v71h500zM-500 -195v-71h-500v71h500z" />
    <glyph glyph-name="numeralgreek" unicode="&#x374;" horiz-adv-x="215" 
d="M185 712l-67 -204h-88l30 204h125z" />
    <glyph glyph-name="lowernumeralgreek" unicode="&#x375;" horiz-adv-x="215" 
d="M185 112l-67 -204h-88l30 204h125z" />
    <glyph glyph-name="questiongreek" unicode="&#x37e;" horiz-adv-x="258" 
d="M206 508v-167h-154v167h154zM206 167v-167l-74 -172h-84l55 172h-51v167h154z" />
    <glyph glyph-name="tonos" unicode="&#x384;" horiz-adv-x="272" 
d="M222 732l-68 -164h-104l35 164h137z" />
    <glyph glyph-name="dieresistonos" unicode="&#x385;" horiz-adv-x="540" 
d="M163 697v-117h-113v117h113zM349 724l-54 -156h-95l33 156h116zM490 697v-117h-113v117h113z" />
    <glyph glyph-name="Alphatonos" unicode="&#x386;" horiz-adv-x="698" 
d="M541 0l-55 174h-273l-56 -174h-154l247 712h198l247 -712h-154zM253 300h193l-15 47q-49 156 -81 278h-2q-37 -140 -80 -278zM175 712l-68 -204h-104l35 204h137z" />
    <glyph glyph-name="anoteleia" unicode="&#x387;" horiz-adv-x="258" 
d="M206 508v-167h-154v167h154z" />
    <glyph glyph-name="Epsilontonos" unicode="&#x388;" horiz-adv-x="633" 
d="M574 712v-126h-345v-161h322v-125h-322v-174h354v-126h-501v712h492zM39 712l-68 -204h-104l35 204h137z" />
    <glyph glyph-name="Etatonos" unicode="&#x389;" horiz-adv-x="750" 
d="M668 712v-712h-147v307h-292v-307h-147v712h147v-279h292v279h147zM39 712l-68 -204h-104l35 204h137z" />
    <glyph glyph-name="Iotatonos" unicode="&#x38a;" horiz-adv-x="311" 
d="M229 712v-712h-147v712h147zM39 712l-68 -204h-104l35 204h137z" />
    <glyph glyph-name="Omicrontonos" unicode="&#x38c;" horiz-adv-x="748" 
d="M374 728q157 0 247 -99.5t90 -272.5t-90 -272.5t-247 -99.5t-247 99.5t-90 272.5t90 272.5t247 99.5zM374 598q-86 0 -135.5 -64.5t-49.5 -177.5t49.5 -177.5t135.5 -64.5t135.5 64.5t49.5 177.5t-49.5 177.5t-135.5 64.5zM82 712l-68 -204h-104l35 204h137z" />
    <glyph glyph-name="Upsilontonos" unicode="&#x38e;" horiz-adv-x="638" 
d="M635 712l-243 -435v-277h-147v277l-243 435h165l68 -134q45 -89 83 -181h2q38 92 83 181l68 134h164zM-19 712l-68 -204h-104l35 204h137z" />
    <glyph glyph-name="Omegatonos" unicode="&#x38f;" horiz-adv-x="734" 
d="M367 728q148 0 236.5 -80t88.5 -234q0 -87 -36.5 -154.5t-102.5 -133.5v-2h150v-124h-286v130q59 60 91 121t32 141q0 100 -47 153t-126 53t-126 -53t-47 -153q0 -80 32 -141t91 -121v-130h-286v124h150v2q-66 66 -102.5 133.5t-36.5 154.5q0 154 88.5 234t236.5 80z
M73 712l-68 -204h-104l35 204h137z" />
    <glyph glyph-name="iotadieresistonos" unicode="&#x390;" horiz-adv-x="316" 
d="M63 508h140v-305q0 -53 15 -75.5t51 -22.5q21 0 36 5v-108q-30 -9 -74 -9q-88 0 -128 43.5t-40 141.5v330zM26 697v-117h-113v117h113zM212 724l-54 -156h-95l33 156h116zM353 697v-117h-113v117h113z" />
    <glyph glyph-name="Alpha" unicode="&#x391;" horiz-adv-x="698" 
d="M541 0l-55 174h-273l-56 -174h-154l247 712h198l247 -712h-154zM253 300h193l-15 47q-49 156 -81 278h-2q-37 -140 -80 -278z" />
    <glyph glyph-name="Beta" unicode="&#x392;" horiz-adv-x="650" 
d="M82 0v712h256q129 0 194 -49t65 -134q0 -120 -124 -166v-2q73 -16 107 -56.5t34 -109.5q0 -90 -67.5 -142.5t-186.5 -52.5h-278zM334 303h-105v-182h109q67 0 97 21.5t30 67.5q0 49 -30.5 71t-100.5 22zM340 592h-111v-173h104q64 0 93.5 21t29.5 67q0 44 -27.5 64.5
t-88.5 20.5z" />
    <glyph glyph-name="Gamma" unicode="&#x393;" horiz-adv-x="508" 
d="M229 0h-147v712h416v-126h-269v-586z" />
    <glyph glyph-name="Delta" unicode="&#x394;" horiz-adv-x="698" 
d="M450 712l245 -712h-692l249 712h198zM195 126h304l-70 221q-43 138 -80 278h-2q-32 -122 -81 -278z" />
    <glyph glyph-name="Epsilon" unicode="&#x395;" horiz-adv-x="633" 
d="M574 712v-126h-345v-161h322v-125h-322v-174h354v-126h-501v712h492z" />
    <glyph glyph-name="Zeta" unicode="&#x396;" horiz-adv-x="582" 
d="M545 712v-129l-350 -457v-2h367v-124h-542v129l350 457v2h-334v124h509z" />
    <glyph glyph-name="Eta" unicode="&#x397;" horiz-adv-x="750" 
d="M668 712v-712h-147v307h-292v-307h-147v712h147v-279h292v279h147z" />
    <glyph glyph-name="Theta" unicode="&#x398;" horiz-adv-x="748" 
d="M374 728q157 0 247 -99t90 -272q0 -174 -90 -273.5t-247 -99.5t-247 99.5t-90 273.5q0 173 90 272t247 99zM374 604q-89 0 -140 -66t-51 -181t51 -181t140 -66t140 66t51 181t-51 181t-140 66zM507 413v-113h-266v113h266z" />
    <glyph glyph-name="Iota" unicode="&#x399;" horiz-adv-x="311" 
d="M229 712v-712h-147v712h147z" />
    <glyph glyph-name="Kappa" unicode="&#x39a;" horiz-adv-x="663" 
d="M636 712l-271 -338l294 -374h-187l-241 336h-2v-336h-147v712h147v-313h2l233 313h172z" />
    <glyph glyph-name="Lambda" unicode="&#x39b;" horiz-adv-x="684" 
d="M442 712l239 -712h-159l-104 342q-40 129 -75 275h-2q-35 -146 -75 -275l-104 -342h-159l239 712h200z" />
    <glyph glyph-name="Mu" unicode="&#x39c;" horiz-adv-x="984" 
d="M902 712v-712h-141v354q0 134 6 267h-2q-33 -126 -76 -262l-113 -359h-168l-113 359q-43 136 -76 262h-2q6 -133 6 -267v-354h-141v712h236l103 -327q42 -134 70 -262h2q28 128 70 262l103 327h236z" />
    <glyph glyph-name="Nu" unicode="&#x39d;" horiz-adv-x="776" 
d="M694 712v-712h-209l-138 289q-76 161 -130 294h-2q8 -165 8 -309v-274h-141v712h209l138 -289q76 -161 130 -294h2q-8 165 -8 309v274h141z" />
    <glyph glyph-name="Xi" unicode="&#x39e;" horiz-adv-x="675" 
d="M625 147v-147h-575v147h575zM594 432v-147h-513v147h513zM611 712v-147h-547v147h547z" />
    <glyph glyph-name="Omicron" unicode="&#x39f;" horiz-adv-x="748" 
d="M374 728q157 0 247 -99.5t90 -272.5t-90 -272.5t-247 -99.5t-247 99.5t-90 272.5t90 272.5t247 99.5zM374 598q-86 0 -135.5 -64.5t-49.5 -177.5t49.5 -177.5t135.5 -64.5t135.5 64.5t49.5 177.5t-49.5 177.5t-135.5 64.5z" />
    <glyph glyph-name="Pi" unicode="&#x3a0;" horiz-adv-x="739" 
d="M657 712v-712h-146v586h-282v-586h-147v712h575z" />
    <glyph glyph-name="Rho" unicode="&#x3a1;" horiz-adv-x="636" 
d="M82 0v712h269q127 0 194 -62t67 -168t-67 -168t-194 -62h-122v-252h-147zM331 590h-102v-216h102q131 0 131 108t-131 108z" />
    <glyph glyph-name="Sigma" unicode="&#x3a3;" horiz-adv-x="585" 
d="M551 712v-124h-339v-2l168 -224l-183 -236v-2h368v-124h-542v129l181 233l-170 226v124h517z" />
    <glyph glyph-name="Tau" unicode="&#x3a4;" horiz-adv-x="615" 
d="M605 712v-126h-224v-586h-147v586h-224v126h595z" />
    <glyph glyph-name="Upsilon" unicode="&#x3a5;" horiz-adv-x="638" 
d="M635 712l-243 -435v-277h-147v277l-243 435h165l68 -134q45 -89 83 -181h2q38 92 83 181l68 134h164z" />
    <glyph glyph-name="Phi" unicode="&#x3a6;" horiz-adv-x="833" 
d="M346 742h141v-69q147 -10 228 -89t81 -225q0 -145 -81 -224t-228 -90v-75h-141v75q-147 11 -228 91.5t-81 227.5q0 144 81 221.5t228 87.5v69zM346 166v386q-159 -13 -159 -188q0 -92 41 -142t118 -56zM487 552v-386q76 6 117.5 55t41.5 138q0 90 -41.5 138.5
t-117.5 54.5z" />
    <glyph glyph-name="Chi" unicode="&#x3a7;" horiz-adv-x="630" 
d="M616 712l-212 -350l223 -362h-171l-140 252h-2l-140 -252h-171l223 362l-212 350h168l132 -246h2l132 246h168z" />
    <glyph glyph-name="Psi" unicode="&#x3a8;" horiz-adv-x="841" 
d="M654 712h147v-228q0 -156 -74.5 -233t-232.5 -88v-163h-147v163q-158 11 -232.5 88t-74.5 233v228h147v-224q0 -99 36.5 -145t123.5 -53v422h147v-422q87 7 123.5 53t36.5 145v224z" />
    <glyph glyph-name="Omega" unicode="&#x3a9;" horiz-adv-x="734" 
d="M367 728q148 0 236.5 -80t88.5 -234q0 -87 -36.5 -154.5t-102.5 -133.5v-2h150v-124h-286v130q59 60 91 121t32 141q0 100 -47 153t-126 53t-126 -53t-47 -153q0 -80 32 -141t91 -121v-130h-286v124h150v2q-66 66 -102.5 133.5t-36.5 154.5q0 154 88.5 234t236.5 80z" />
    <glyph glyph-name="Iotadieresis" unicode="&#x3aa;" horiz-adv-x="311" 
d="M229 712v-712h-147v712h147zM109 916v-120h-123v120h123zM326 916v-120h-123v120h123z" />
    <glyph glyph-name="Upsilondieresis" unicode="&#x3ab;" horiz-adv-x="638" 
d="M635 712l-243 -435v-277h-147v277l-243 435h165l68 -134q45 -89 83 -181h2q38 92 83 181l68 134h164zM272 889v-120h-123v120h123zM489 889v-120h-123v120h123z" />
    <glyph glyph-name="alphatonos" unicode="&#x3ac;" horiz-adv-x="613" 
d="M246 521q46 0 85 -21.5t63 -61.5h2q2 37 8 70h136q-10 -72 -10 -180v-160q0 -38 10.5 -52.5t33.5 -14.5q12 0 24 3v-100q-36 -12 -85 -12q-97 0 -115 79h-2q-23 -40 -64 -62t-88 -22q-95 0 -152 72.5t-57 194.5q0 121 57.5 194t153.5 73zM291 414q-50 0 -80 -43.5
t-30 -116.5t30 -116.5t80 -43.5q48 0 77 42.5t29 117.5t-29 117.5t-77 42.5zM406 732l-68 -164h-104l35 164h137z" />
    <glyph glyph-name="epsilontonos" unicode="&#x3ad;" horiz-adv-x="518" 
d="M253 524q105 0 164.5 -47t59.5 -132h-139q0 76 -82 76q-33 0 -52.5 -15t-19.5 -41q0 -28 22.5 -44t61.5 -16h50v-101h-50q-94 0 -94 -61q0 -26 22 -41t58 -15q93 0 93 80h140q0 -90 -60 -136.5t-173 -46.5q-100 0 -159 40.5t-59 112.5q0 49 24.5 79t78.5 46v2
q-48 17 -69.5 44t-21.5 69q0 69 55.5 108t149.5 39zM370 732l-68 -164h-104l35 164h137z" />
    <glyph glyph-name="etatonos" unicode="&#x3ae;" horiz-adv-x="616" 
d="M373 521q85 0 132.5 -53.5t47.5 -156.5v-496h-140v479q0 118 -88 118q-45 0 -73 -36.5t-28 -101.5v-274h-140v337q0 41 -10.5 57.5t-33.5 16.5q-14 0 -25 -3v95q42 13 81 13q48 0 75 -21.5t37 -70.5h2q25 46 67.5 71.5t95.5 25.5zM391 732l-68 -164h-104l35 164h137z" />
    <glyph glyph-name="iotatonos" unicode="&#x3af;" horiz-adv-x="316" 
d="M63 508h140v-305q0 -53 15 -75.5t51 -22.5q21 0 36 5v-108q-30 -9 -74 -9q-88 0 -128 43.5t-40 141.5v330zM252 732l-68 -164h-104l35 164h137z" />
    <glyph glyph-name="upsilondieresistonos" unicode="&#x3b0;" horiz-adv-x="602" 
d="M94 516q66 0 97.5 -35t31.5 -121v-167q0 -53 21.5 -76.5t64.5 -23.5q105 0 105 168q0 136 -35 247h136q38 -116 38 -258q0 -129 -60 -197.5t-182 -68.5q-114 0 -171.5 47.5t-57.5 149.5v146q0 46 -10 63t-34 17q-14 0 -25 -3v99q42 13 81 13zM182 697v-117h-113v117h113z
M368 724l-54 -156h-95l33 156h116zM509 697v-117h-113v117h113z" />
    <glyph glyph-name="alpha" unicode="&#x3b1;" horiz-adv-x="613" 
d="M246 521q46 0 85 -21.5t63 -61.5h2q2 37 8 70h136q-10 -72 -10 -180v-160q0 -38 10.5 -52.5t33.5 -14.5q12 0 24 3v-100q-36 -12 -85 -12q-97 0 -115 79h-2q-23 -40 -64 -62t-88 -22q-95 0 -152 72.5t-57 194.5q0 121 57.5 194t153.5 73zM291 414q-50 0 -80 -43.5
t-30 -116.5t30 -116.5t80 -43.5q48 0 77 42.5t29 117.5t-29 117.5t-77 42.5z" />
    <glyph glyph-name="beta" unicode="&#x3b2;" horiz-adv-x="606" 
d="M307 728q106 0 168 -49t62 -132q0 -127 -128 -162v-2q164 -34 164 -188q0 -95 -60.5 -150t-165.5 -55q-98 0 -137 56h-2v-231h-140l1 666q0 118 62 182.5t176 64.5zM311 624q-54 0 -78.5 -33.5t-24.5 -105.5v-291q0 -47 26.5 -73.5t79.5 -26.5q54 0 85 30.5t31 84.5
q0 116 -149 116h-14v109h14q61 0 92.5 25.5t31.5 73.5q0 43 -24.5 67t-69.5 24z" />
    <glyph glyph-name="gamma" unicode="&#x3b3;" horiz-adv-x="556" 
d="M401 508h145q-15 -143 -62 -257t-140 -245v-12q0 -89 -11 -179h-140q11 90 11 179q0 68 -22.5 162t-62.5 174q-23 47 -43 64t-45 17q-9 0 -23 -2v97q35 11 73 11q50 0 83 -25t64 -91q53 -114 70 -243h2q86 167 101 350z" />
    <glyph glyph-name="delta" unicode="&#x3b4;" horiz-adv-x="590" 
d="M291 722q113 0 208 -26v-115q-97 39 -190 39q-34 0 -46.5 -7t-12.5 -21q0 -17 24.5 -34t87.5 -50q95 -49 144 -115t49 -163q0 -113 -71 -179.5t-189 -66.5t-189 66t-71 179q0 85 46.5 145t132.5 89v2q-59 38 -85.5 69t-26.5 71q0 117 189 117zM292 402
q-110 -44 -110 -173q0 -63 31 -100.5t82 -37.5t82 38t31 103q0 118 -116 170z" />
    <glyph glyph-name="epsilon" unicode="&#x3b5;" horiz-adv-x="518" 
d="M253 524q105 0 164.5 -47t59.5 -132h-139q0 76 -82 76q-33 0 -52.5 -15t-19.5 -41q0 -28 22.5 -44t61.5 -16h50v-101h-50q-94 0 -94 -61q0 -26 22 -41t58 -15q93 0 93 80h140q0 -90 -60 -136.5t-173 -46.5q-100 0 -159 40.5t-59 112.5q0 49 24.5 79t78.5 46v2
q-48 17 -69.5 44t-21.5 69q0 69 55.5 108t149.5 39z" />
    <glyph glyph-name="zeta" unicode="&#x3b6;" horiz-adv-x="482" 
d="M61 712h401v-101q-281 -159 -281 -371q0 -59 34 -89.5t119 -43.5q76 -12 105 -47.5t29 -97.5q0 -56 -28 -107h-111q16 35 16 71q0 34 -20.5 52.5t-79.5 25.5q-115 14 -162.5 62.5t-47.5 142.5q0 117 70.5 219.5t193.5 180.5v2h-238v101z" />
    <glyph glyph-name="eta" unicode="&#x3b7;" horiz-adv-x="616" 
d="M373 521q85 0 132.5 -53.5t47.5 -156.5v-496h-140v479q0 118 -88 118q-45 0 -73 -36.5t-28 -101.5v-274h-140v337q0 41 -10.5 57.5t-33.5 16.5q-14 0 -25 -3v95q42 13 81 13q48 0 75 -21.5t37 -70.5h2q25 46 67.5 71.5t95.5 25.5z" />
    <glyph glyph-name="theta" unicode="&#x3b8;" horiz-adv-x="623" 
d="M311 726q133 0 204.5 -96.5t71.5 -273.5t-71.5 -273.5t-204.5 -96.5q-132 0 -203.5 96.5t-71.5 273.5t71.5 273.5t203.5 96.5zM311 88q57 0 91 56.5t40 162.5h-263q6 -106 40 -162.5t92 -56.5zM311 624q-58 0 -92 -56.5t-40 -162.5h263q-6 106 -40 162.5t-91 56.5z" />
    <glyph glyph-name="iota" unicode="&#x3b9;" horiz-adv-x="316" 
d="M63 508h140v-305q0 -53 15 -75.5t51 -22.5q21 0 36 5v-108q-30 -9 -74 -9q-88 0 -128 43.5t-40 141.5v330z" />
    <glyph glyph-name="kappa" unicode="&#x3ba;" horiz-adv-x="560" 
d="M573 0h-168l-158 183l-43 -48v-135h-140v508h140v-217h2l90 105q58 68 102.5 93.5t101.5 25.5q24 0 48 -7v-115q-15 5 -33 5q-43 0 -84 -27t-99 -91z" />
    <glyph glyph-name="lambda" unicode="&#x3bb;" horiz-adv-x="597" 
d="M150 721q80 0 127.5 -43t92.5 -164l119 -315q23 -61 42.5 -81.5t44.5 -20.5q6 0 14 2v-99q-26 -8 -58 -8q-63 0 -98 29.5t-65 116.5q-27 73 -79 223h-1q-39 -102 -83 -208l-63 -153h-150l227 503q-22 62 -45 85.5t-59 23.5q-28 0 -49 -8v104q32 13 83 13z" />
    <glyph glyph-name="mu" unicode="&#x3bc;" horiz-adv-x="613" 
d="M395 508h140v-340q0 -38 10.5 -52.5t33.5 -14.5q12 0 24 3v-100q-36 -12 -85 -12q-93 0 -111 81h-2q-14 -37 -46.5 -58t-74.5 -21q-49 0 -76 21v-200h-140v693h140v-298q0 -112 87 -112q45 0 72.5 35.5t27.5 102.5v272z" />
    <glyph glyph-name="nu" unicode="&#x3bd;" horiz-adv-x="542" 
d="M75 516q57 0 93 -36t54 -117l58 -257h2q59 134 81.5 214t22.5 149q0 21 -3 39h138q5 -20 5 -47q0 -84 -31 -175.5t-126 -285.5h-186l-92 323q-14 51 -28.5 69.5t-37.5 18.5q-11 0 -19 -3v95q29 13 69 13z" />
    <glyph glyph-name="xi" unicode="&#x3be;" horiz-adv-x="487" 
d="M472 712v-101h-97q-168 0 -168 -109q0 -42 33.5 -64t89.5 -22h103v-100h-91q-82 0 -121.5 -29.5t-39.5 -79.5q0 -45 35 -67.5t125 -33.5q76 -10 105 -45.5t29 -98.5q0 -56 -28 -107h-111q17 37 17 71q0 35 -25 54.5t-94 26.5q-103 10 -151 54t-48 121q0 144 152 181v2
q-106 29 -106 127q0 91 80 117v2h-104v101h415z" />
    <glyph glyph-name="omicron" unicode="&#x3bf;" horiz-adv-x="590" 
d="M295 524q119 0 189.5 -73t70.5 -197t-70.5 -197t-189.5 -73t-189.5 73t-70.5 197t70.5 197t189.5 73zM295 416q-52 0 -82.5 -44t-30.5 -118t30.5 -118t82.5 -44t82.5 44t30.5 118t-30.5 118t-82.5 44z" />
    <glyph glyph-name="pi" unicode="&#x3c0;" horiz-adv-x="672" 
d="M654 508v-104h-100v-231q0 -43 14 -59.5t43 -16.5q19 0 28 4v-99q-33 -10 -80 -10q-74 0 -109.5 37t-35.5 125v250h-172v-404h-140v404h-93v104h645z" />
    <glyph glyph-name="rho" unicode="&#x3c1;" horiz-adv-x="602" 
d="M312 524q117 0 186 -74.5t69 -201.5q0 -120 -64 -190t-174 -70q-87 0 -124 51h-2v-224h-140v439q0 124 68 197t181 73zM304 415q-50 0 -79.5 -43.5t-29.5 -117.5q0 -73 29.5 -116t79.5 -43q55 0 85.5 42.5t30.5 116.5q0 75 -30.5 118t-85.5 43z" />
    <glyph glyph-name="sigmafinal" unicode="&#x3c2;" horiz-adv-x="552" 
d="M284 524q114 0 177 -58.5t70 -158.5h-145q-4 51 -30.5 80.5t-71.5 29.5q-50 0 -78 -37t-28 -104q0 -68 39 -106t123 -50q82 -12 113.5 -50.5t31.5 -107.5q0 -56 -28 -107h-112q17 34 17 71q0 39 -24.5 59.5t-94.5 28.5q-212 22 -212 248q0 123 67.5 192.5t185.5 69.5z
" />
    <glyph glyph-name="sigma" unicode="&#x3c3;" horiz-adv-x="620" 
d="M610 508v-101h-130v-2q72 -53 72 -165q0 -118 -69.5 -187t-187.5 -69q-119 0 -189.5 71t-70.5 192t70.5 191t189.5 70h315zM294 409q-53 0 -82.5 -41.5t-29.5 -117.5q0 -75 29.5 -116.5t82.5 -41.5q55 0 84.5 41.5t29.5 116.5q0 76 -29.5 117.5t-84.5 41.5z" />
    <glyph glyph-name="tau" unicode="&#x3c4;" horiz-adv-x="468" 
d="M459 508v-101h-161v-234q0 -43 14 -59.5t43 -16.5q19 0 28 4v-99q-33 -10 -80 -10q-74 0 -109.5 37t-35.5 125v253h-149v101h450z" />
    <glyph glyph-name="upsilon" unicode="&#x3c5;" horiz-adv-x="602" 
d="M94 516q66 0 97.5 -35t31.5 -121v-167q0 -53 21.5 -76.5t64.5 -23.5q105 0 105 168q0 136 -35 247h136q38 -116 38 -258q0 -129 -60 -197.5t-182 -68.5q-114 0 -171.5 47.5t-57.5 149.5v146q0 46 -10 63t-34 17q-14 0 -25 -3v99q42 13 81 13z" />
    <glyph glyph-name="phi" unicode="&#x3c6;" horiz-adv-x="795" 
d="M760 254q0 -122 -79.5 -193.5t-216.5 -76.5v-169h-133v169q-137 5 -216.5 76.5t-79.5 193.5t79.5 193.5t216.5 76.5v138h133v-138q137 -5 216.5 -76.5t79.5 -193.5zM177 254q0 -78 40 -122t114 -48v340q-74 -4 -114 -48t-40 -122zM464 424v-340q74 4 113.5 48t39.5 122
t-39.5 122t-113.5 48z" />
    <glyph glyph-name="chi" unicode="&#x3c7;" horiz-adv-x="601" 
d="M89 521q63 0 98.5 -27.5t65.5 -96.5l53 -120h2l136 231h154l-216 -348l77 -163q24 -51 45.5 -68t52.5 -17q17 0 32 3v-95q-36 -13 -80 -13q-60 0 -95.5 27.5t-67.5 97.5l-48 107h-2l-143 -224h-154l226 338l-82 175q-24 52 -45.5 70t-54.5 18q-18 0 -35 -5v95
q35 15 81 15z" />
    <glyph glyph-name="psi" unicode="&#x3c8;" horiz-adv-x="823" 
d="M773 259q0 -124 -71.5 -192.5t-216.5 -75.5v-176h-140v176q-282 11 -282 239v278h140v-264q0 -136 142 -148v566h140v-565q148 15 148 173q0 133 -39 238h138q41 -111 41 -249z" />
    <glyph glyph-name="omega" unicode="&#x3c9;" horiz-adv-x="832" 
d="M571 508h146q65 -127 65 -284q0 -238 -201 -238q-134 0 -164 105h-2q-30 -105 -164 -105q-201 0 -201 238q0 157 65 284h146q-66 -121 -66 -268q0 -149 83 -149q68 0 68 92v204h140v-204q0 -92 68 -92q83 0 83 149q0 147 -66 268z" />
    <glyph glyph-name="iotadieresis" unicode="&#x3ca;" horiz-adv-x="316" 
d="M63 508h140v-305q0 -53 15 -75.5t51 -22.5q21 0 36 5v-108q-30 -9 -74 -9q-88 0 -128 43.5t-40 141.5v330zM86 712v-120h-123v120h123zM303 712v-120h-123v120h123z" />
    <glyph glyph-name="upsilondieresis" unicode="&#x3cb;" horiz-adv-x="602" 
d="M94 516q66 0 97.5 -35t31.5 -121v-167q0 -53 21.5 -76.5t64.5 -23.5q105 0 105 168q0 136 -35 247h136q38 -116 38 -258q0 -129 -60 -197.5t-182 -68.5q-114 0 -171.5 47.5t-57.5 149.5v146q0 46 -10 63t-34 17q-14 0 -25 -3v99q42 13 81 13zM242 712v-120h-123v120h123z
M459 712v-120h-123v120h123z" />
    <glyph glyph-name="omicrontonos" unicode="&#x3cc;" horiz-adv-x="590" 
d="M295 524q119 0 189.5 -73t70.5 -197t-70.5 -197t-189.5 -73t-189.5 73t-70.5 197t70.5 197t189.5 73zM295 416q-52 0 -82.5 -44t-30.5 -118t30.5 -118t82.5 -44t82.5 44t30.5 118t-30.5 118t-82.5 44zM414 732l-68 -164h-104l35 164h137z" />
    <glyph glyph-name="upsilontonos" unicode="&#x3cd;" horiz-adv-x="602" 
d="M94 516q66 0 97.5 -35t31.5 -121v-167q0 -53 21.5 -76.5t64.5 -23.5q105 0 105 168q0 136 -35 247h136q38 -116 38 -258q0 -129 -60 -197.5t-182 -68.5q-114 0 -171.5 47.5t-57.5 149.5v146q0 46 -10 63t-34 17q-14 0 -25 -3v99q42 13 81 13zM408 732l-68 -164h-104
l35 164h137z" />
    <glyph glyph-name="omegatonos" unicode="&#x3ce;" horiz-adv-x="832" 
d="M571 508h146q65 -127 65 -284q0 -238 -201 -238q-134 0 -164 105h-2q-30 -105 -164 -105q-201 0 -201 238q0 157 65 284h146q-66 -121 -66 -268q0 -149 83 -149q68 0 68 92v204h140v-204q0 -92 68 -92q83 0 83 149q0 147 -66 268zM535 732l-68 -164h-104l35 164h137z" />
    <glyph glyph-name="Iegravecy" unicode="&#x400;" horiz-adv-x="633" 
d="M574 712v-126h-345v-161h322v-125h-322v-174h354v-126h-501v712h492zM163 906h173l77 -146h-110z" />
    <glyph glyph-name="Iocy" unicode="&#x401;" horiz-adv-x="633" 
d="M574 712v-126h-345v-161h322v-125h-322v-174h354v-126h-501v712h492zM281 889v-120h-123v120h123zM498 889v-120h-123v120h123z" />
    <glyph glyph-name="Djecy" unicode="&#x402;" horiz-adv-x="802" 
d="M605 712v-126h-224v-157q66 33 152 33q116 0 180.5 -63t64.5 -176q0 -108 -64 -172t-176 -64q-54 0 -93 13v122q31 -9 71 -9q115 0 115 109q0 114 -125 114q-71 0 -125 -29v-307h-147v586h-224v126h595z" />
    <glyph glyph-name="Gjecy" unicode="&#x403;" horiz-adv-x="508" 
d="M229 0h-147v712h416v-126h-269v-586zM455 906l-140 -146h-110l77 146h173z" />
    <glyph glyph-name="Ecy" unicode="&#x404;" horiz-adv-x="711" 
d="M520 250h151q-11 -126 -91.5 -196t-213.5 -70q-153 0 -241 99.5t-88 272.5t89 272.5t243 99.5q132 0 213 -72.5t86 -190.5h-148q-8 62 -47.5 97.5t-103.5 35.5q-71 0 -117 -47.5t-59 -131.5h248v-126h-248q13 -85 58 -132t115 -47q65 0 105 35.5t49 100.5z" />
    <glyph glyph-name="Dzecy" unicode="&#x405;" horiz-adv-x="630" 
d="M301 728q133 0 201.5 -59.5t68.5 -174.5h-149q0 56 -32 86.5t-92 30.5q-49 0 -79 -21.5t-30 -56.5q0 -39 32.5 -59t122.5 -42q49 -12 78.5 -21t66.5 -27t57 -39.5t34 -56t14 -79.5q0 -101 -76.5 -163t-201.5 -62q-135 0 -211.5 65t-76.5 185h152q0 -131 138 -131
q56 0 89.5 24.5t33.5 66.5q0 44 -30 61.5t-117 39.5q-52 13 -79.5 21.5t-67 26.5t-59.5 38.5t-35 55.5t-15 80q0 94 73 152.5t190 58.5z" />
    <glyph glyph-name="Icy" unicode="&#x406;" horiz-adv-x="311" 
d="M229 712v-712h-147v712h147z" />
    <glyph glyph-name="Yicy" unicode="&#x407;" horiz-adv-x="311" 
d="M229 712v-712h-147v712h147zM109 889v-120h-123v120h123zM326 889v-120h-123v120h123z" />
    <glyph glyph-name="Jecy" unicode="&#x408;" horiz-adv-x="392" 
d="M168 712h147v-485q0 -121 -56.5 -177.5t-178.5 -56.5q-38 0 -65 8v125q27 -5 47 -5q57 0 81.5 28.5t24.5 108.5v454z" />
    <glyph glyph-name="Ljecy" unicode="&#x409;" horiz-adv-x="1060" 
d="M653 712v-252h122q127 0 194 -62t67 -168t-67 -168t-194 -62h-269v586h-200q-8 -250 -35.5 -377.5t-74.5 -171t-136 -43.5q-30 0 -49 6v120q8 -2 18 -2q38 0 60 20.5t38.5 86.5t24.5 179t13 308h488zM755 338h-102v-216h102q131 0 131 108t-131 108z" />
    <glyph glyph-name="Njecy" unicode="&#x40a;" horiz-adv-x="1075" 
d="M668 712v-252h122q127 0 194 -62t67 -168t-67 -168t-194 -62h-269v307h-292v-307h-147v712h147v-279h292v279h147zM668 338v-216h102q131 0 131 108t-131 108h-102z" />
    <glyph glyph-name="Tshecy" unicode="&#x40b;" horiz-adv-x="801" 
d="M545 438q108 0 165.5 -56.5t57.5 -162.5v-219h-147v190q0 59 -29.5 90.5t-85.5 31.5q-72 0 -125 -18v-294h-147v586h-224v126h595v-126h-224v-171q71 23 164 23z" />
    <glyph glyph-name="Kjecy" unicode="&#x40c;" horiz-adv-x="663" 
d="M636 712l-271 -338l294 -374h-187l-241 336h-2v-336h-147v712h147v-313h2l233 313h172zM497 906l-140 -146h-110l77 146h173z" />
    <glyph glyph-name="Iigravecy" unicode="&#x40d;" horiz-adv-x="776" 
d="M82 712h141v-274q0 -144 -8 -309h2q54 133 130 294l138 289h209v-712h-141v274q0 144 8 309h-2q-54 -133 -130 -294l-138 -289h-209v712zM213 906h173l77 -146h-110z" />
    <glyph glyph-name="Ushortcy" unicode="&#x40e;" horiz-adv-x="682" 
d="M521 712h159l-278 -572q-40 -81 -90.5 -115t-119.5 -34q-50 0 -82 9v123q19 -6 49 -6q40 0 64 19t24 55q0 20 -6.5 36.5t-40.5 84.5l-198 400h159l91 -205q50 -111 89 -206h2q42 106 87 206zM421 906h95q-4 -72 -50.5 -111.5t-124.5 -39.5t-124.5 39.5t-50.5 111.5h95
q2 -30 23.5 -47t56.5 -17t56.5 17t23.5 47z" />
    <glyph glyph-name="Dzhecy" unicode="&#x40f;" horiz-adv-x="740" 
d="M658 712v-712h-223v-160h-140v160h-213v712h147v-586h282v586h147z" />
    <glyph glyph-name="Acy" unicode="&#x410;" horiz-adv-x="698" 
d="M541 0l-55 174h-273l-56 -174h-154l247 712h198l247 -712h-154zM253 300h193l-15 47q-49 156 -81 278h-2q-37 -140 -80 -278z" />
    <glyph glyph-name="Becy" unicode="&#x411;" horiz-adv-x="665" 
d="M583 712v-122h-354v-147h147q118 0 185 -59.5t67 -162.5t-66.5 -162t-185.5 -59h-294v712h501zM347 321h-118v-199h118q130 0 130 99q0 100 -130 100z" />
    <glyph glyph-name="Vecy" unicode="&#x412;" horiz-adv-x="650" 
d="M82 0v712h256q129 0 194 -49t65 -134q0 -120 -124 -166v-2q73 -16 107 -56.5t34 -109.5q0 -90 -67.5 -142.5t-186.5 -52.5h-278zM334 303h-105v-182h109q67 0 97 21.5t30 67.5q0 49 -30.5 71t-100.5 22zM340 592h-111v-173h104q64 0 93.5 21t29.5 67q0 44 -27.5 64.5
t-88.5 20.5z" />
    <glyph glyph-name="Gecy" unicode="&#x413;" horiz-adv-x="508" 
d="M229 0h-147v712h416v-126h-269v-586z" />
    <glyph glyph-name="Decy" unicode="&#x414;" horiz-adv-x="794" 
d="M690 126h90v-286h-140v160h-480v-160h-140v286h85q31 64 48.5 193.5t21.5 392.5h515v-586zM543 126v460h-227q-9 -314 -58 -460h285z" />
    <glyph glyph-name="Iecy" unicode="&#x415;" horiz-adv-x="633" 
d="M574 712v-126h-345v-161h322v-125h-322v-174h354v-126h-501v712h492z" />
    <glyph glyph-name="Zhecy" unicode="&#x416;" horiz-adv-x="918" 
d="M889 712l-220 -338l245 -374h-174l-207 356h-2v-356h-144v356h-2l-207 -356h-174l245 374l-220 338h169l187 -333h2v333h144v-333h2l187 333h169z" />
    <glyph glyph-name="Zecy" unicode="&#x417;" horiz-adv-x="636" 
d="M320 727q126 0 197 -53t71 -147q0 -60 -30 -98t-95 -61v-2q71 -23 104 -65t33 -110q0 -95 -76.5 -151t-202.5 -56q-143 0 -219 63.5t-76 184.5h156q0 -124 139 -124q55 0 88 24.5t33 65.5q0 97 -151 97h-46v121h46q66 0 104 26t38 70q0 41 -32 66t-86 25
q-122 0 -122 -118h-158q0 115 74.5 178.5t210.5 63.5z" />
    <glyph glyph-name="Iicy" unicode="&#x418;" horiz-adv-x="776" 
d="M82 712h141v-274q0 -144 -8 -309h2q54 133 130 294l138 289h209v-712h-141v274q0 144 8 309h-2q-54 -133 -130 -294l-138 -289h-209v712z" />
    <glyph glyph-name="Iishortcy" unicode="&#x419;" horiz-adv-x="776" 
d="M82 712h141v-274q0 -144 -8 -309h2q54 133 130 294l138 289h209v-712h-141v274q0 144 8 309h-2q-54 -133 -130 -294l-138 -289h-209v712zM458 906h95q-4 -72 -50.5 -111.5t-124.5 -39.5t-124.5 39.5t-50.5 111.5h95q2 -30 23.5 -47t56.5 -17t56.5 17t23.5 47z" />
    <glyph glyph-name="Kacy" unicode="&#x41a;" horiz-adv-x="663" 
d="M636 712l-271 -338l294 -374h-187l-241 336h-2v-336h-147v712h147v-313h2l233 313h172z" />
    <glyph glyph-name="Elcy" unicode="&#x41b;" horiz-adv-x="735" 
d="M653 712v-712h-147v586h-200q-8 -250 -35.5 -377.5t-74.5 -171t-136 -43.5q-30 0 -49 6v120q8 -2 18 -2q38 0 60 20.5t38.5 86.5t24.5 179t13 308h488z" />
    <glyph glyph-name="Emcy" unicode="&#x41c;" horiz-adv-x="984" 
d="M902 712v-712h-141v354q0 134 6 267h-2q-33 -126 -76 -262l-113 -359h-168l-113 359q-43 136 -76 262h-2q6 -133 6 -267v-354h-141v712h236l103 -327q42 -134 70 -262h2q28 128 70 262l103 327h236z" />
    <glyph glyph-name="Ency" unicode="&#x41d;" horiz-adv-x="750" 
d="M668 712v-712h-147v307h-292v-307h-147v712h147v-279h292v279h147z" />
    <glyph glyph-name="Ocy" unicode="&#x41e;" horiz-adv-x="748" 
d="M374 728q157 0 247 -99.5t90 -272.5t-90 -272.5t-247 -99.5t-247 99.5t-90 272.5t90 272.5t247 99.5zM374 598q-86 0 -135.5 -64.5t-49.5 -177.5t49.5 -177.5t135.5 -64.5t135.5 64.5t49.5 177.5t-49.5 177.5t-135.5 64.5z" />
    <glyph glyph-name="Pecy" unicode="&#x41f;" horiz-adv-x="739" 
d="M657 712v-712h-146v586h-282v-586h-147v712h575z" />
    <glyph glyph-name="Ercy" unicode="&#x420;" horiz-adv-x="636" 
d="M82 0v712h269q127 0 194 -62t67 -168t-67 -168t-194 -62h-122v-252h-147zM331 590h-102v-216h102q131 0 131 108t-131 108z" />
    <glyph glyph-name="Escy" unicode="&#x421;" horiz-adv-x="701" 
d="M363 728q130 0 210 -72.5t85 -190.5h-148q-7 62 -46 97.5t-101 35.5q-81 0 -127.5 -64.5t-46.5 -177.5t45.5 -177.5t125.5 -64.5q63 0 102.5 35.5t47.5 100.5h151q-10 -126 -90 -196t-211 -70q-150 0 -236.5 99.5t-86.5 272.5t87.5 272.5t238.5 99.5z" />
    <glyph glyph-name="Tecy" unicode="&#x422;" horiz-adv-x="615" 
d="M605 712v-126h-224v-586h-147v586h-224v126h595z" />
    <glyph glyph-name="Ucy" unicode="&#x423;" horiz-adv-x="682" 
d="M521 712h159l-278 -572q-40 -81 -90.5 -115t-119.5 -34q-50 0 -82 9v123q19 -6 49 -6q40 0 64 19t24 55q0 20 -6.5 36.5t-40.5 84.5l-198 400h159l91 -205q50 -111 89 -206h2q42 106 87 206z" />
    <glyph glyph-name="Efcy" unicode="&#x424;" horiz-adv-x="862" 
d="M825 356q0 -138 -83.5 -217t-239.5 -88v-77h-143v77q-155 9 -238.5 88t-83.5 217t83.5 217t238.5 88v77h143v-77q156 -9 239.5 -88t83.5 -217zM189 356q0 -79 44 -126t126 -57v366q-82 -10 -126 -57t-44 -126zM502 539v-366q82 9 126.5 56.5t44.5 126.5t-44.5 126.5
t-126.5 56.5z" />
    <glyph glyph-name="Hacy" unicode="&#x425;" horiz-adv-x="630" 
d="M616 712l-212 -350l223 -362h-171l-140 252h-2l-140 -252h-171l223 362l-212 350h168l132 -246h2l132 246h168z" />
    <glyph glyph-name="Tsecy" unicode="&#x426;" horiz-adv-x="770" 
d="M658 712v-586h90v-286h-140v160h-526v712h147v-586h282v586h147z" />
    <glyph glyph-name="Checy" unicode="&#x427;" horiz-adv-x="679" 
d="M597 712v-712h-147v269q-81 -22 -174 -22q-118 0 -180.5 56.5t-62.5 162.5v246h147v-217q0 -59 34.5 -90.5t100.5 -31.5q73 0 135 18v321h147z" />
    <glyph glyph-name="Shacy" unicode="&#x428;" horiz-adv-x="1028" 
d="M946 712v-712h-864v712h147v-586h212v586h147v-586h212v586h146z" />
    <glyph glyph-name="Shchacy" unicode="&#x429;" horiz-adv-x="1050" 
d="M946 712v-586h90v-286h-140v160h-814v712h147v-586h212v586h147v-586h212v586h146z" />
    <glyph glyph-name="Hardsigncy" unicode="&#x42a;" horiz-adv-x="758" 
d="M351 712v-252h122q127 0 194 -62t67 -168t-67 -168t-194 -62h-269v586h-194v126h341zM453 338h-102v-216h102q131 0 131 108t-131 108z" />
    <glyph glyph-name="Yerucy" unicode="&#x42b;" horiz-adv-x="947" 
d="M351 0h-269v712h147v-252h122q127 0 194 -62t67 -168t-67 -168t-194 -62zM229 338v-216h102q131 0 131 108t-131 108h-102zM865 712v-712h-147v712h147z" />
    <glyph glyph-name="Softsigncy" unicode="&#x42c;" horiz-adv-x="636" 
d="M351 0h-269v712h147v-252h122q127 0 194 -62t67 -168t-67 -168t-194 -62zM229 338v-216h102q131 0 131 108t-131 108h-102z" />
    <glyph glyph-name="Ereversedcy" unicode="&#x42d;" horiz-adv-x="711" 
d="M342 728q154 0 243 -99.5t89 -272.5t-88 -272.5t-241 -99.5q-133 0 -213.5 70t-91.5 196h151q9 -65 49 -100.5t105 -35.5q70 0 115 47t58 132h-248v126h248q-13 84 -59 131.5t-117 47.5q-64 0 -103.5 -35.5t-47.5 -97.5h-148q5 118 86 190.5t213 72.5z" />
    <glyph glyph-name="Iucy" unicode="&#x42e;" horiz-adv-x="1035" 
d="M673 728q151 0 238 -99.5t87 -272.5t-87 -272.5t-238 -99.5q-136 0 -221 82t-101 227h-122v-293h-147v712h147v-293h122q16 145 101 227t221 82zM673 114q81 0 127 64.5t46 177.5t-46 177.5t-127 64.5q-80 0 -126.5 -65t-46.5 -177t46.5 -177t126.5 -65z" />
    <glyph glyph-name="Iacy" unicode="&#x42f;" horiz-adv-x="662" 
d="M300 712h280v-712h-147v264h-144l-128 -264h-160l153 291q-114 54 -114 199q0 107 65.5 164.5t194.5 57.5zM433 381v212h-114q-131 0 -131 -103q0 -109 123 -109h122z" />
    <glyph glyph-name="acy" unicode="&#x430;" horiz-adv-x="547" 
d="M267 524q218 0 218 -201v-184q0 -86 14 -139h-126q-7 29 -7 68h-2q-56 -80 -165 -80q-79 0 -126 43.5t-47 110.5q0 65 45.5 105t151.5 57q64 10 127 14v18q0 90 -83 90q-39 0 -60.5 -20.5t-23.5 -56.5h-136q4 77 60 126t160 49zM350 214v19q-60 -4 -102 -11
q-44 -8 -63 -24t-19 -46q0 -29 19.5 -46.5t55.5 -17.5q51 0 80 29t29 97z" />
    <glyph glyph-name="becy" unicode="&#x431;" 
d="M531 728v-117q-48 -14 -163 -20q-62 -3 -103 -15t-66 -37t-37.5 -58t-18.5 -84h2q43 97 177 97q108 0 171.5 -65.5t63.5 -176.5q0 -124 -70.5 -196t-189.5 -72q-125 0 -192.5 77t-67.5 221q0 157 34.5 248t97.5 128.5t171 45.5q138 10 191 24zM294 392q-112 0 -112 -145
q0 -74 29.5 -114.5t84.5 -40.5t84.5 39t29.5 110t-30.5 111t-85.5 40z" />
    <glyph glyph-name="vecy" unicode="&#x432;" horiz-adv-x="549" 
d="M68 0v508h228q205 0 205 -137q0 -85 -94 -109v-2q106 -19 106 -118q0 -68 -53 -105t-150 -37h-242zM278 215h-75v-124h75q95 0 95 62t-95 62zM279 417h-76v-118h76q85 0 85 59t-85 59z" />
    <glyph glyph-name="gecy" unicode="&#x433;" horiz-adv-x="441" 
d="M431 508v-104h-223v-404h-140v508h363z" />
    <glyph glyph-name="decy" unicode="&#x434;" horiz-adv-x="640" 
d="M562 104h70v-264h-140v160h-344v-160h-140v264h64q27 45 43.5 133t24.5 271h422v-404zM422 104v300h-148q-11 -198 -43 -300h191z" />
    <glyph glyph-name="iecy" unicode="&#x435;" horiz-adv-x="573" 
d="M288 83q41 0 68 19.5t32 51.5h143q-16 -73 -81 -121.5t-162 -48.5q-118 0 -185.5 75t-67.5 199q0 116 68 191t184 75q87 0 149 -45.5t86 -123.5q16 -51 16 -130h-365q3 -74 34.5 -108t80.5 -34zM287 425q-44 0 -73.5 -28t-37.5 -84h222q-6 55 -36.5 83.5t-74.5 28.5z" />
    <glyph glyph-name="zhecy" unicode="&#x436;" horiz-adv-x="760" 
d="M584 274l188 -274h-168l-154 259h-2v-259h-136v259h-2l-154 -259h-168l188 274l-168 234h153l149 -226h2v226h136v-226h2l149 226h153z" />
    <glyph glyph-name="zecy" unicode="&#x437;" horiz-adv-x="516" 
d="M263 524q94 0 149.5 -39t55.5 -108q0 -42 -21.5 -69t-69.5 -44v-2q54 -16 78.5 -46t24.5 -79q0 -72 -59 -112.5t-159 -40.5q-113 0 -173 46.5t-60 136.5h140q0 -80 93 -80q36 0 58 15t22 41q0 61 -94 61h-50v101h50q39 0 61.5 16t22.5 44q0 26 -19.5 41t-52.5 15
q-82 0 -82 -76h-139q0 85 59.5 132t164.5 47z" />
    <glyph glyph-name="iicy" unicode="&#x438;" horiz-adv-x="670" 
d="M602 508v-508h-140v189q0 93 8 199h-2q-37 -97 -87 -188l-109 -200h-204v508h140v-190q0 -92 -8 -198h2q37 97 87 188l109 200h204z" />
    <glyph glyph-name="iishortcy" unicode="&#x439;" horiz-adv-x="670" 
d="M602 508v-508h-140v189q0 93 8 199h-2q-37 -97 -87 -188l-109 -200h-204v508h140v-190q0 -92 -8 -198h2q37 97 87 188l109 200h204zM416 712h95q-4 -72 -50.5 -111.5t-124.5 -39.5t-124.5 39.5t-50.5 111.5h95q2 -30 23.5 -47t56.5 -17t56.5 17t23.5 47z" />
    <glyph glyph-name="kacy" unicode="&#x43a;" horiz-adv-x="560" 
d="M339 274l214 -274h-173l-170 238h-2v-238h-140v508h140v-205h2l164 205h158z" />
    <glyph glyph-name="elcy" unicode="&#x43b;" horiz-adv-x="574" 
d="M506 508v-508h-140v404h-119q-4 -170 -27 -260.5t-60.5 -120t-103.5 -29.5q-28 0 -50 6v99q10 -2 19 -2q33 0 50.5 29t28 118.5t13.5 263.5h389z" />
    <glyph glyph-name="emcy" unicode="&#x43c;" horiz-adv-x="834" 
d="M766 508v-508h-130v233q0 81 5 183h-1q-23 -80 -58 -181l-82 -235h-166l-83 235q-38 114 -57 181h-2q5 -102 5 -183v-233h-129v508h220l76 -217q29 -84 52 -186h2q19 89 52 186l75 217h221z" />
    <glyph glyph-name="ency" unicode="&#x43d;" horiz-adv-x="613" 
d="M545 508v-508h-140v206h-197v-206h-140v508h140v-198h197v198h140z" />
    <glyph glyph-name="ocy" unicode="&#x43e;" horiz-adv-x="590" 
d="M295 524q119 0 189.5 -73t70.5 -197t-70.5 -197t-189.5 -73t-189.5 73t-70.5 197t70.5 197t189.5 73zM295 416q-52 0 -82.5 -44t-30.5 -118t30.5 -118t82.5 -44t82.5 44t30.5 118t-30.5 118t-82.5 44z" />
    <glyph glyph-name="pecy" unicode="&#x43f;" horiz-adv-x="605" 
d="M537 508v-508h-140v404h-189v-404h-140v508h469z" />
    <glyph glyph-name="ercy" unicode="&#x440;" horiz-adv-x="598" 
d="M352 521q96 0 153.5 -73t57.5 -194q0 -122 -57 -194.5t-152 -72.5q-96 0 -144 74h-2v-246h-140v693h136v-67h2q23 38 62 59t84 21zM307 414q-48 0 -77 -42.5t-29 -117.5t29 -117.5t77 -42.5q50 0 80 43.5t30 116.5t-30 116.5t-80 43.5z" />
    <glyph glyph-name="escy" unicode="&#x441;" horiz-adv-x="562" 
d="M291 524q101 0 166.5 -57t73.5 -148h-146q-4 45 -29.5 71t-65.5 26q-51 0 -80 -43.5t-29 -118.5t29 -118.5t80 -43.5q40 0 65.5 28.5t28.5 78.5h147q-8 -97 -73 -156t-167 -59q-116 0 -186 73.5t-70 196.5t70 196.5t186 73.5z" />
    <glyph glyph-name="tecy" unicode="&#x442;" horiz-adv-x="474" 
d="M468 508v-104h-161v-404h-140v404h-161v104h462z" />
    <glyph glyph-name="ucy" unicode="&#x443;" horiz-adv-x="504" 
d="M367 508h144l-182 -511q-38 -106 -92 -147t-150 -41q-39 0 -73 8v112q22 -8 54 -8q42 0 67.5 22.5t25.5 59.5q0 24 -24 92l-144 413h150l52 -170q32 -107 56 -213h2q30 123 59 213z" />
    <glyph glyph-name="efcy" unicode="&#x444;" horiz-adv-x="820" 
d="M340 712h140v-228q45 37 102 37q92 0 147.5 -73t55.5 -194q0 -122 -55.5 -194.5t-149.5 -72.5q-55 0 -100 36v-208h-140v208q-45 -36 -100 -36q-94 0 -149.5 72.5t-55.5 194.5t55 194.5t148 72.5q57 0 102 -37v228zM285 414q-48 0 -76 -43.5t-28 -116.5t28 -116.5
t76 -43.5q31 0 55 24v272q-24 24 -55 24zM535 414q-31 0 -55 -24v-272q24 -24 55 -24q47 0 75.5 43.5t28.5 116.5t-28.5 116.5t-75.5 43.5z" />
    <glyph glyph-name="hacy" unicode="&#x445;" horiz-adv-x="508" 
d="M503 508l-163 -247l174 -261h-163l-96 172h-2l-96 -172h-163l174 261l-163 247h161l87 -149h2l87 149h161z" />
    <glyph glyph-name="tsecy" unicode="&#x446;" horiz-adv-x="615" 
d="M537 508v-404h70v-264h-140v160h-399v508h140v-404h189v404h140z" />
    <glyph glyph-name="checy" unicode="&#x447;" horiz-adv-x="558" 
d="M490 508v-508h-140v184q-64 -18 -141 -18q-87 0 -133.5 40.5t-46.5 115.5v186h140v-157q0 -81 91 -81q48 0 90 14v224h140z" />
    <glyph glyph-name="shacy" unicode="&#x448;" horiz-adv-x="854" 
d="M786 508v-508h-718v508h140v-404h149v404h140v-404h149v404h140z" />
    <glyph glyph-name="shchacy" unicode="&#x449;" horiz-adv-x="864" 
d="M786 508v-404h70v-264h-140v160h-648v508h140v-404h149v404h140v-404h149v404h140z" />
    <glyph glyph-name="hardsigncy" unicode="&#x44a;" horiz-adv-x="625" 
d="M277 508v-164h112q100 0 152.5 -44.5t52.5 -127.5q0 -84 -52.5 -128t-152.5 -44h-252v404h-131v104h271zM370 243h-93v-142h93q84 0 84 71t-84 71z" />
    <glyph glyph-name="yerucy" unicode="&#x44b;" horiz-adv-x="802" 
d="M208 508v-164h112q100 0 152.5 -44.5t52.5 -127.5q0 -84 -52.5 -128t-152.5 -44h-252v508h140zM301 243h-93v-142h93q84 0 84 71t-84 71zM734 508v-508h-140v508h140z" />
    <glyph glyph-name="softsigncy" unicode="&#x44c;" horiz-adv-x="556" 
d="M208 508v-164h112q100 0 152.5 -44.5t52.5 -127.5q0 -84 -52.5 -128t-152.5 -44h-252v508h140zM301 243h-93v-142h93q84 0 84 71t-84 71z" />
    <glyph glyph-name="ereversedcy" unicode="&#x44d;" horiz-adv-x="562" 
d="M271 524q116 0 186 -73.5t70 -196.5t-70 -196.5t-186 -73.5q-102 0 -167 57t-73 152h143q3 -48 29.5 -76.5t68.5 -28.5q44 0 73 32t37 89h-168v100h166q-9 52 -37.5 81.5t-70.5 29.5t-68.5 -25.5t-30.5 -69.5h-142q8 88 73.5 143.5t166.5 55.5z" />
    <glyph glyph-name="iucy" unicode="&#x44e;" horiz-adv-x="846" 
d="M551 524q119 0 189.5 -73t70.5 -197t-70.5 -197t-189.5 -73q-106 0 -174 58t-82 160h-87v-202h-140v508h140v-202h87q14 102 82 160t174 58zM551 92q52 0 82.5 44t30.5 118t-30.5 118t-82.5 44t-82.5 -44t-30.5 -118t30.5 -118t82.5 -44z" />
    <glyph glyph-name="iacy" unicode="&#x44f;" horiz-adv-x="563" 
d="M258 508h237v-508h-135v166h-116l-90 -166h-146l114 192q-84 42 -84 148q0 168 220 168zM360 265v140h-85q-103 0 -103 -69q0 -71 97 -71h91z" />
    <glyph glyph-name="iegravecy" unicode="&#x450;" horiz-adv-x="573" 
d="M288 83q41 0 68 19.5t32 51.5h143q-16 -73 -81 -121.5t-162 -48.5q-118 0 -185.5 75t-67.5 199q0 116 68 191t184 75q87 0 149 -45.5t86 -123.5q16 -51 16 -130h-365q3 -74 34.5 -108t80.5 -34zM287 425q-44 0 -73.5 -28t-37.5 -84h222q-6 55 -36.5 83.5t-74.5 28.5z
M371 566h-110l-140 146h173z" />
    <glyph glyph-name="iocy" unicode="&#x451;" horiz-adv-x="573" 
d="M288 83q41 0 68 19.5t32 51.5h143q-16 -73 -81 -121.5t-162 -48.5q-118 0 -185.5 75t-67.5 199q0 116 68 191t184 75q87 0 149 -45.5t86 -123.5q16 -51 16 -130h-365q3 -74 34.5 -108t80.5 -34zM287 425q-44 0 -73.5 -28t-37.5 -84h222q-6 55 -36.5 83.5t-74.5 28.5z
M239 712v-120h-123v120h123zM456 712v-120h-123v120h123z" />
    <glyph glyph-name="djecy" unicode="&#x452;" 
d="M350 466q87 0 137 -53.5t50 -154.5v-269q0 -92 -46.5 -135.5t-126.5 -43.5q-37 0 -69 8v101q12 -3 27 -3q39 0 57 20.5t18 73.5v234q0 112 -89 112q-45 0 -72.5 -35.5t-27.5 -102.5v-218h-140v544h-74v88h74v80h140v-80h212v-88h-212v-146h2q53 68 140 68z" />
    <glyph glyph-name="gjecy" unicode="&#x453;" horiz-adv-x="441" 
d="M431 508v-104h-223v-404h-140v508h363zM415 712l-140 -146h-110l77 146h173z" />
    <glyph glyph-name="ecy" unicode="&#x454;" horiz-adv-x="562" 
d="M290 88q42 0 68.5 28.5t29.5 76.5h143q-8 -95 -73 -152t-167 -57q-116 0 -186 73.5t-70 196.5t70 196.5t186 73.5q101 0 166.5 -55.5t73.5 -143.5h-142q-4 44 -30.5 69.5t-68.5 25.5t-70.5 -29.5t-37.5 -81.5h166v-100h-168q8 -57 37 -89t73 -32z" />
    <glyph glyph-name="dzecy" unicode="&#x455;" horiz-adv-x="524" 
d="M257 524q101 0 157 -44t56 -128h-134q0 74 -80 74q-69 0 -69 -47q0 -25 22 -36.5t87 -28.5q40 -11 56.5 -15.5t48.5 -19t46.5 -30t27 -43t12.5 -63.5q0 -72 -60.5 -115.5t-163.5 -43.5q-108 0 -168 45.5t-60 135.5h142q0 -38 23 -59t66 -21q74 0 74 49q0 34 -39 50
q-18 8 -78 24q-24 6 -29 7.5t-27 8t-28 10t-23.5 11.5t-23.5 15t-17.5 18.5t-15.5 24t-8 29.5t-4 36q0 69 58 112.5t152 43.5z" />
    <glyph glyph-name="icy" unicode="&#x456;" horiz-adv-x="276" 
d="M208 508v-508h-140v508h140zM208 712v-120h-140v120h140z" />
    <glyph glyph-name="yicy" unicode="&#x457;" horiz-adv-x="276" 
d="M208 508v-508h-140v508h140zM113 712v-120h-123v120h123zM286 712v-120h-123v120h123z" />
    <glyph glyph-name="jecy" unicode="&#x458;" horiz-adv-x="278" 
d="M70 508h140v-519q0 -92 -46.5 -135.5t-126.5 -43.5q-37 0 -69 8v101q12 -3 27 -3q39 0 57 20.5t18 73.5v498zM210 712v-120h-140v120h140z" />
    <glyph glyph-name="ljecy" unicode="&#x459;" horiz-adv-x="854" 
d="M506 508v-164h112q100 0 152.5 -44.5t52.5 -127.5q0 -84 -52.5 -128t-152.5 -44h-252v404h-119q-4 -170 -27 -260.5t-60.5 -120t-103.5 -29.5q-28 0 -50 6v99q10 -2 19 -2q33 0 50.5 29t28 118.5t13.5 263.5h389zM599 243h-93v-142h93q84 0 84 71t-84 71z" />
    <glyph glyph-name="njecy" unicode="&#x45a;" horiz-adv-x="893" 
d="M545 508v-164h112q100 0 152.5 -44.5t52.5 -127.5q0 -84 -52.5 -128t-152.5 -44h-252v206h-197v-206h-140v508h140v-198h197v198h140zM638 243h-93v-142h93q84 0 84 71t-84 71z" />
    <glyph glyph-name="tshecy" unicode="&#x45b;" 
d="M350 466q87 0 137 -53.5t50 -154.5v-258h-140v244q0 112 -89 112q-45 0 -72.5 -35.5t-27.5 -102.5v-218h-140v544h-74v88h74v80h140v-80h212v-88h-212v-146h2q53 68 140 68z" />
    <glyph glyph-name="kjecy" unicode="&#x45c;" horiz-adv-x="560" 
d="M339 274l214 -274h-173l-170 238h-2v-238h-140v508h140v-205h2l164 205h158zM456 712l-140 -146h-110l77 146h173z" />
    <glyph glyph-name="iigravecy" unicode="&#x45d;" horiz-adv-x="670" 
d="M602 508v-508h-140v189q0 93 8 199h-2q-37 -97 -87 -188l-109 -200h-204v508h140v-190q0 -92 -8 -198h2q37 97 87 188l109 200h204zM171 712h173l77 -146h-110z" />
    <glyph glyph-name="ushortcy" unicode="&#x45e;" horiz-adv-x="504" 
d="M367 508h144l-182 -511q-38 -106 -92 -147t-150 -41q-39 0 -73 8v112q22 -8 54 -8q42 0 67.5 22.5t25.5 59.5q0 24 -24 92l-144 413h150l52 -170q32 -107 56 -213h2q30 123 59 213zM332 712h95q-4 -72 -50.5 -111.5t-124.5 -39.5t-124.5 39.5t-50.5 111.5h95
q2 -30 23.5 -47t56.5 -17t56.5 17t23.5 47z" />
    <glyph glyph-name="dzhecy" unicode="&#x45f;" horiz-adv-x="605" 
d="M537 508v-508h-167v-160h-140v160h-162v508h140v-404h189v404h140z" />
    <glyph glyph-name="Gheupturncy" unicode="&#x490;" horiz-adv-x="508" 
d="M498 850v-264h-269v-586h-147v712h276v138h140z" />
    <glyph glyph-name="gheupturncy" unicode="&#x491;" horiz-adv-x="441" 
d="M431 668v-264h-223v-404h-140v508h233v160h130z" />
    <glyph glyph-name="Ghestrokecy" unicode="&#x492;" horiz-adv-x="508" 
d="M498 586h-269v-208h145v-106h-145v-272h-147v272h-64v106h64v334h416v-126z" />
    <glyph glyph-name="ghestrokecy" unicode="&#x493;" horiz-adv-x="446" 
d="M436 404h-223v-126h126v-96h-126v-182h-140v182h-60v96h60v230h363v-104z" />
    <glyph glyph-name="Zhedescendercy" unicode="&#x496;" horiz-adv-x="918" 
d="M831 126h83v-286h-140v160h-34l-207 356h-2v-356h-144v356h-2l-207 -356h-174l245 374l-220 338h169l187 -333h2v333h144v-333h2l187 333h169l-220 -338z" />
    <glyph glyph-name="zhedescendercy" unicode="&#x497;" horiz-adv-x="760" 
d="M701 104h71v-264h-140v160h-28l-154 259h-2v-259h-136v259h-2l-154 -259h-168l188 274l-168 234h153l149 -226h2v226h136v-226h2l149 226h153l-168 -234z" />
    <glyph glyph-name="Kadescendercy" unicode="&#x49a;" horiz-adv-x="663" 
d="M560 126h99v-286h-140v160h-47l-241 336h-2v-336h-147v712h147v-313h2l233 313h172l-271 -338z" />
    <glyph glyph-name="kadescendercy" unicode="&#x49b;" horiz-adv-x="560" 
d="M472 104h81v-264h-140v160h-33l-170 238h-2v-238h-140v508h140v-205h2l164 205h158l-193 -234z" />
    <glyph glyph-name="Kaverticalstrokecy" unicode="&#x49c;" horiz-adv-x="737" 
d="M559 0l-177 307h-2v-155h-110v155h-44v-307h-144v712h144v-279h44v155h110v-155h2l157 279h169l-219 -337l244 -375h-174z" />
    <glyph glyph-name="kaverticalstrokecy" unicode="&#x49d;" horiz-adv-x="618" 
d="M460 0l-130 219h-2v-119h-87v119h-37v-219h-136v508h136v-185h37v119h87v-119h5l122 185h153l-168 -234l188 -274h-168z" />
    <glyph glyph-name="Endescendercy" unicode="&#x4a2;" horiz-adv-x="780" 
d="M758 126v-286h-140v160h-97v307h-292v-307h-147v712h147v-279h292v279h147v-586h90z" />
    <glyph glyph-name="endescendercy" unicode="&#x4a3;" horiz-adv-x="623" 
d="M615 104v-264h-140v160h-70v206h-197v-206h-140v508h140v-198h197v198h140v-404h70z" />
    <glyph glyph-name="Ustraitcy" unicode="&#x4ae;" horiz-adv-x="638" 
d="M635 712l-243 -435v-277h-147v277l-243 435h165l68 -134q45 -89 83 -181h2q38 92 83 181l68 134h164z" />
    <glyph glyph-name="ustraitcy" unicode="&#x4af;" horiz-adv-x="510" 
d="M371 508h146l-192 -521v-172h-140v172l-192 521h146l59 -176q29 -84 56 -196h2q27 112 56 196z" />
    <glyph glyph-name="Hadescendercy" unicode="&#x4b2;" horiz-adv-x="630" 
d="M549 126h78v-286h-140v160h-31l-140 252h-2l-140 -252h-171l223 362l-212 350h168l132 -246h2l132 246h168l-212 -350z" />
    <glyph glyph-name="hadescendercy" unicode="&#x4b3;" horiz-adv-x="508" 
d="M445 104h69v-264h-140v160h-23l-96 172h-2l-96 -172h-163l174 261l-163 247h161l87 -149h2l87 149h161l-163 -247z" />
    <glyph glyph-name="Cheverticalstrokecy" unicode="&#x4b8;" horiz-adv-x="679" 
d="M450 712h147v-712h-147v269q-31 -9 -75 -15v-134h-120v127q-108 5 -165 61.5t-57 157.5v246h147v-217q0 -89 75 -113v186h120v-191q40 4 75 14v321z" />
    <glyph glyph-name="cheverticalstrokecy" unicode="&#x4b9;" horiz-adv-x="558" 
d="M350 508h140v-508h-140v184q-29 -8 -47 -10v-95h-87v87h-7q-87 0 -133.5 40.5t-46.5 115.5v186h140v-157q0 -62 47 -76v146h87v-148q26 5 47 11v224z" />
    <glyph glyph-name="Shhacy" unicode="&#x4ba;" horiz-adv-x="679" 
d="M82 0v712h147v-269q81 22 174 22q118 0 180.5 -56.5t62.5 -162.5v-246h-147v217q0 59 -34.5 90.5t-100.5 31.5q-73 0 -135 -18v-321h-147z" />
    <glyph glyph-name="shhacy" unicode="&#x4bb;" 
d="M208 712v-260h2q53 68 140 68t137 -53.5t50 -154.5v-312h-140v298q0 112 -89 112q-45 0 -72.5 -35.5t-27.5 -102.5v-272h-140v712h140z" />
    <glyph glyph-name="Palochkacy" unicode="&#x4c0;" horiz-adv-x="311" 
d="M229 712v-712h-147v712h147z" />
    <glyph glyph-name="palochkacy" unicode="&#x4cf;" horiz-adv-x="276" 
d="M208 712v-712h-140v712h140z" />
    <glyph glyph-name="Schwacy" unicode="&#x4d8;" horiz-adv-x="764" 
d="M372 728q165 0 260 -100.5t95 -270.5q0 -162 -94.5 -267.5t-254.5 -105.5q-157 0 -249 100.5t-92 270.5q0 33 3 51h534q-6 99 -62.5 147t-141.5 48q-65 0 -106 -29.5t-51 -76.5h-157q23 100 104 166.5t212 66.5zM378 114q77 0 127.5 44t63.5 126h-378q12 -83 63 -126.5
t124 -43.5z" />
    <glyph glyph-name="schwacy" unicode="&#x4d9;" horiz-adv-x="573" 
d="M281 524q120 0 188.5 -74t68.5 -196q0 -117 -68 -193.5t-184 -76.5q-115 0 -183 73t-68 197q0 18 2 34h363q-3 71 -35.5 104t-83.5 33q-37 0 -61 -18.5t-29 -47.5h-143q16 71 77.5 118t155.5 47zM286 83q44 0 73.5 29.5t37.5 87.5h-222q6 -58 36 -87.5t75 -29.5z" />
    <glyph glyph-name="Obarredcy" unicode="&#x4e8;" horiz-adv-x="748" 
d="M374 728q157 0 247 -99.5t90 -272.5t-90 -272.5t-247 -99.5t-247 99.5t-90 272.5t90 272.5t247 99.5zM374 106q78 0 127.5 49.5t63.5 137.5h-381q14 -88 63.5 -137.5t126.5 -49.5zM374 606q-77 0 -126.5 -49.5t-63.5 -137.5h381q-14 88 -63.5 137.5t-127.5 49.5z" />
    <glyph glyph-name="obarredcy" unicode="&#x4e9;" horiz-adv-x="590" 
d="M295 524q119 0 189.5 -73t70.5 -197t-70.5 -197t-189.5 -73t-189.5 73t-70.5 197t70.5 197t189.5 73zM295 86q46 0 77 32.5t40 90.5h-235q9 -58 40 -90.5t78 -32.5zM295 422q-47 0 -78 -33t-40 -90h235q-9 57 -40 90t-77 33z" />
    <glyph glyph-name="Wgrave" unicode="&#x1e80;" horiz-adv-x="956" 
d="M947 712l-149 -712h-191l-66 282q-37 157 -62 305h-2q-25 -148 -62 -305l-66 -282h-191l-149 712h144l51 -259q32 -162 52 -308h2q27 151 65 308l62 259h186l62 -259q38 -157 65 -308h2q20 146 52 308l51 259h144zM311 906h173l77 -146h-110z" />
    <glyph glyph-name="wgrave" unicode="&#x1e81;" horiz-adv-x="810" 
d="M805 508l-112 -508h-200l-45 200q-23 104 -42 217h-2q-19 -113 -42 -217l-45 -200h-200l-112 508h139l38 -196q24 -123 37 -221h2q18 112 43 219l45 198h192l45 -198q25 -107 43 -219h2q13 98 37 221l38 196h139zM240 712h173l77 -146h-110z" />
    <glyph glyph-name="Wacute" unicode="&#x1e82;" horiz-adv-x="956" 
d="M947 712l-149 -712h-191l-66 282q-37 157 -62 305h-2q-25 -148 -62 -305l-66 -282h-191l-149 712h144l51 -259q32 -162 52 -308h2q27 151 65 308l62 259h186l62 -259q38 -157 65 -308h2q20 146 52 308l51 259h144zM641 906l-140 -146h-110l77 146h173z" />
    <glyph glyph-name="wacute" unicode="&#x1e83;" horiz-adv-x="810" 
d="M805 508l-112 -508h-200l-45 200q-23 104 -42 217h-2q-19 -113 -42 -217l-45 -200h-200l-112 508h139l38 -196q24 -123 37 -221h2q18 112 43 219l45 198h192l45 -198q25 -107 43 -219h2q13 98 37 221l38 196h139zM570 712l-140 -146h-110l77 146h173z" />
    <glyph glyph-name="Wdieresis" unicode="&#x1e84;" horiz-adv-x="956" 
d="M947 712l-149 -712h-191l-66 282q-37 157 -62 305h-2q-25 -148 -62 -305l-66 -282h-191l-149 712h144l51 -259q32 -162 52 -308h2q27 151 65 308l62 259h186l62 -259q38 -157 65 -308h2q20 146 52 308l51 259h144zM429 889v-120h-123v120h123zM646 889v-120h-123v120h123
z" />
    <glyph glyph-name="wdieresis" unicode="&#x1e85;" horiz-adv-x="810" 
d="M805 508l-112 -508h-200l-45 200q-23 104 -42 217h-2q-19 -113 -42 -217l-45 -200h-200l-112 508h139l38 -196q24 -123 37 -221h2q18 112 43 219l45 198h192l45 -198q25 -107 43 -219h2q13 98 37 221l38 196h139zM358 712v-120h-123v120h123zM575 712v-120h-123v120h123z
" />
    <glyph glyph-name="Germandbls" unicode="&#x1e9e;" horiz-adv-x="801" 
d="M709 589l-149 -163q203 -52 203 -231q0 -100 -66.5 -154.5t-179.5 -54.5q-115 0 -175.5 52t-60.5 154h141q0 -86 92 -86q45 0 70 23.5t25 67.5q0 63 -51.5 95t-153.5 39v100l121 133q-48 42 -124 42q-182 0 -182 -194v-412h-147v409q0 156 87 236.5t252 80.5
q93 0 170.5 -37t127.5 -100z" />
    <glyph glyph-name="Ygrave" unicode="&#x1ef2;" horiz-adv-x="638" 
d="M635 712l-243 -435v-277h-147v277l-243 435h165l68 -134q45 -89 83 -181h2q38 92 83 181l68 134h164zM154 906h173l77 -146h-110z" />
    <glyph glyph-name="ygrave" unicode="&#x1ef3;" horiz-adv-x="504" 
d="M367 508h144l-182 -511q-38 -106 -92 -147t-150 -41q-39 0 -73 8v112q22 -8 54 -8q42 0 67.5 22.5t25.5 59.5q0 24 -24 92l-144 413h150l52 -170q32 -107 56 -213h2q30 123 59 213zM87 712h173l77 -146h-110z" />
    <glyph glyph-name="hyphentwo" unicode="&#x2010;" horiz-adv-x="320" 
d="M290 347v-110h-260v110h260z" />
    <glyph glyph-name="endash" unicode="&#x2013;" horiz-adv-x="500" 
d="M480 347v-110h-460v110h460z" />
    <glyph glyph-name="emdash" unicode="&#x2014;" horiz-adv-x="1000" 
d="M980 347v-110h-960v110h960z" />
    <glyph glyph-name="horizontalbar" unicode="&#x2015;" horiz-adv-x="1000" 
d="M980 347v-110h-960v110h960z" />
    <glyph glyph-name="underscoredbl" unicode="&#x2017;" horiz-adv-x="500" 
d="M500 -50v-71h-500v71h500zM500 -195v-71h-500v71h500z" />
    <glyph glyph-name="quoteleft" unicode="&#x2018;" horiz-adv-x="254" 
d="M62 424v142l63 146h71l-47 -146h44v-142h-131z" />
    <glyph glyph-name="quoteright" unicode="&#x2019;" horiz-adv-x="254" 
d="M192 712v-142l-63 -146h-71l47 146h-44v142h131z" />
    <glyph glyph-name="quotesinglbase" unicode="&#x201a;" horiz-adv-x="254" 
d="M192 142v-142l-63 -146h-71l47 146h-44v142h131z" />
    <glyph glyph-name="quotereversed" unicode="&#x201b;" horiz-adv-x="254" 
d="M62 712h131v-142h-44l47 -146h-71l-63 146v142z" />
    <glyph glyph-name="quotedblleft" unicode="&#x201c;" horiz-adv-x="436" 
d="M62 424v142l63 146h71l-47 -146h44v-142h-131zM244 424v142l63 146h71l-47 -146h44v-142h-131z" />
    <glyph glyph-name="quotedblright" unicode="&#x201d;" horiz-adv-x="436" 
d="M192 712v-142l-63 -146h-71l47 146h-44v142h131zM374 712v-142l-63 -146h-71l47 146h-44v142h131z" />
    <glyph glyph-name="quotedblbase" unicode="&#x201e;" horiz-adv-x="436" 
d="M192 142v-142l-63 -146h-71l47 146h-44v142h131zM374 142v-142l-63 -146h-71l47 146h-44v142h131z" />
    <glyph glyph-name="dagger" unicode="&#x2020;" horiz-adv-x="564" 
d="M352 712v-176h158v-111h-158v-545h-140v545h-158v111h158v176h140z" />
    <glyph glyph-name="daggerdbl" unicode="&#x2021;" horiz-adv-x="564" 
d="M352 712v-176h158v-111h-158v-258h158v-111h-158v-176h-140v176h-158v111h158v258h-158v111h158v176h140z" />
    <glyph glyph-name="bullet" unicode="&#x2022;" horiz-adv-x="360" 
d="M180 216q-58 0 -99 41t-41 99t41 99t99 41t99 -41t41 -99t-41 -99t-99 -41z" />
    <glyph glyph-name="ellipsis" unicode="&#x2026;" horiz-adv-x="898" 
d="M206 167v-167h-154v167h154zM526 167v-167h-154v167h154zM846 167v-167h-154v167h154z" />
    <glyph glyph-name="perthousand" unicode="&#x2030;" horiz-adv-x="1091" 
d="M566 326q70 0 108 -44.5t38 -126.5t-38 -126.5t-108 -44.5t-108 44.5t-38 126.5t38 126.5t108 44.5zM566 251q-50 0 -50 -96t50 -96t50 96t-50 96zM915 326q70 0 108 -44.5t38 -126.5t-38 -126.5t-108 -44.5t-108 44.5t-38 126.5t38 126.5t108 44.5zM915 251
q-50 0 -50 -96t50 -96t50 96t-50 96zM176 690q70 0 108 -44.5t38 -126.5t-38 -126.5t-108 -44.5t-108 44.5t-38 126.5t38 126.5t108 44.5zM176 615q-50 0 -50 -96t50 -96t50 96t-50 96zM623 704l-420 -734h-84l420 734h84z" />
    <glyph glyph-name="minute" unicode="&#x2032;" horiz-adv-x="215" 
d="M185 674l-67 -235h-88l30 235h125z" />
    <glyph glyph-name="second" unicode="&#x2033;" horiz-adv-x="399" 
d="M185 674l-67 -235h-88l30 235h125zM369 674l-67 -235h-88l30 235h125z" />
    <glyph glyph-name="guilsinglleft" unicode="&#x2039;" horiz-adv-x="324" 
d="M280 454l-108 -200l108 -200h-122l-114 200l114 200h122z" />
    <glyph glyph-name="guilsinglright" unicode="&#x203a;" horiz-adv-x="324" 
d="M44 454h122l114 -200l-114 -200h-122l108 200z" />
    <glyph glyph-name="exclamdouble" unicode="&#x203c;" horiz-adv-x="574" 
d="M239 132v-132h-154v132h154zM489 132v-132h-154v132h154zM247 712l-31 -514h-108l-31 514h170zM497 712l-31 -514h-108l-31 514h170z" />
    <glyph glyph-name="interrobang" unicode="&#x203d;" horiz-adv-x="547" 
d="M185 0v132h154v-132h-154zM191 712h162l-4 -61q77 -16 119 -65t42 -123q0 -60 -22.5 -98.5t-85.5 -79.5q-48 -32 -63.5 -50t-15.5 -49h-119q-1 9 -1 25q0 54 18 82.5t77 71.5q41 30 53.5 49t12.5 49q0 34 -22.5 54t-64.5 20q-97 0 -101 -92h-146q4 169 164 205z" />
    <glyph glyph-name="overline" unicode="&#x203e;" horiz-adv-x="500" 
d="M500 869v-91h-500v91h500z" />
    <glyph glyph-name="fraction" unicode="&#x2044;" horiz-adv-x="148" 
d="M304 674l-369 -674h-91l369 674h91z" />
    <glyph glyph-name="zerosuperior" unicode="&#x2070;" horiz-adv-x="469" 
d="M235 813q97 0 150 -64.5t53 -182.5q0 -119 -53 -183t-150 -64q-99 0 -151.5 64t-52.5 183q0 118 52.5 182.5t151.5 64.5zM235 718q-38 0 -58 -39.5t-20 -112.5t20 -113t58 -40q76 0 76 153q0 152 -76 152z" />
    <glyph glyph-name="foursuperior" unicode="&#x2074;" horiz-adv-x="449" 
d="M438 519v-92h-76v-97h-121v97h-230v97l190 278h161v-283h76zM165 585l-46 -66h126v52q0 64 5 144h-1q-37 -63 -84 -130z" />
    <glyph glyph-name="fivesuperior" unicode="&#x2075;" horiz-adv-x="452" 
d="M390 802v-99h-224l-9 -92h2q37 35 96 35q72 0 117.5 -43.5t45.5 -112.5q0 -78 -53.5 -124.5t-140.5 -46.5t-138.5 39t-51.5 107h124q1 -25 19 -39t46 -14q33 0 51 18.5t18 53.5q0 34 -18.5 53t-49.5 19q-51 0 -63 -45l-121 7l27 284h323z" />
    <glyph glyph-name="sixsuperior" unicode="&#x2076;" horiz-adv-x="448" 
d="M239 813q77 0 123.5 -38t51.5 -107h-125q-6 53 -56 53q-80 0 -84 -129h2q41 45 110 45q70 0 114.5 -42t44.5 -109q0 -74 -53 -120.5t-138 -46.5q-95 0 -146.5 60t-51.5 176q0 122 55 190t153 68zM230 550q-29 0 -47 -19t-18 -51q0 -30 18 -48.5t47 -18.5t47 18.5t18 49.5
t-17.5 50t-47.5 19z" />
    <glyph glyph-name="sevensuperior" unicode="&#x2077;" horiz-adv-x="400" 
d="M11 802h378v-99q-114 -155 -153 -373h-134q24 110 69.5 208.5t96.5 160.5h-257v103z" />
    <glyph glyph-name="eightsuperior" unicode="&#x2078;" horiz-adv-x="451" 
d="M225 813q82 0 133 -36t51 -96q0 -38 -24 -66t-65 -39v-2q45 -10 72.5 -41t27.5 -75q0 -65 -52.5 -102t-142.5 -37t-142 37t-52 102q0 44 27 75t72 41v2q-41 11 -65 39t-24 66q0 60 51 96t133 36zM225 721q-31 0 -49 -14t-18 -37q0 -25 18 -39.5t49 -14.5t49 14.5t18 39.5
q0 23 -18 37t-49 14zM225 526q-32 0 -51.5 -15.5t-19.5 -41.5t19.5 -41.5t51.5 -15.5q33 0 52 15.5t19 41.5t-19 41.5t-52 15.5z" />
    <glyph glyph-name="ninesuperior" unicode="&#x2079;" horiz-adv-x="448" 
d="M209 319q-77 0 -123.5 38t-51.5 107h125q6 -53 56 -53q80 0 84 129h-2q-41 -45 -110 -45q-70 0 -114.5 42t-44.5 109q0 74 53 120.5t138 46.5q95 0 146.5 -60t51.5 -176q0 -122 -55 -190t-153 -68zM218 582q29 0 47 19t18 51q0 30 -18 48.5t-47 18.5t-47 -18.5t-18 -49.5
t17.5 -50t47.5 -19z" />
    <glyph glyph-name="plussuperior" unicode="&#x207a;" horiz-adv-x="413" 
d="M254 709v-111h114v-93h-114v-111h-95v111h-114v93h114v111h95z" />
    <glyph glyph-name="minussuperior" unicode="&#x207b;" horiz-adv-x="413" 
d="M368 598v-93h-323v93h323z" />
    <glyph glyph-name="equalsuperior" unicode="&#x207c;" horiz-adv-x="413" 
d="M368 668v-89h-323v89h323zM368 524v-89h-323v89h323z" />
    <glyph glyph-name="parenleftsuperior" unicode="&#x207d;" horiz-adv-x="251" 
d="M133 849h97q-73 -154 -73 -311q0 -155 73 -311h-97q-104 144 -104 311q0 169 104 311z" />
    <glyph glyph-name="parenrightsuperior" unicode="&#x207e;" horiz-adv-x="251" 
d="M118 227h-97q73 154 73 311q0 155 -73 311h97q104 -144 104 -311q0 -169 -104 -311z" />
    <glyph glyph-name="zeroinferior" unicode="&#x2080;" horiz-adv-x="469" 
d="M235 311q97 0 150 -64.5t53 -182.5q0 -119 -53 -183t-150 -64q-99 0 -151.5 64t-52.5 183q0 118 52.5 182.5t151.5 64.5zM235 216q-38 0 -58 -39.5t-20 -112.5t20 -113t58 -40q76 0 76 153q0 152 -76 152z" />
    <glyph glyph-name="oneinferior" unicode="&#x2081;" horiz-adv-x="326" 
d="M262 300v-472h-124v301h-128v89q67 0 100 19t41 63h111z" />
    <glyph glyph-name="twoinferior" unicode="&#x2082;" horiz-adv-x="458" 
d="M230 311q83 0 133 -39t50 -102q0 -57 -32 -92t-95 -66q-62 -30 -82.5 -47.5t-22.5 -37.5h244v-99h-389q-1 7 -1 23q0 75 30 123.5t110 90.5q60 31 85 52.5t25 51.5q0 21 -14.5 34t-40.5 13q-63 0 -65 -69h-124q1 79 51 121.5t138 42.5z" />
    <glyph glyph-name="threeinferior" unicode="&#x2083;" horiz-adv-x="452" 
d="M228 311q85 0 134.5 -36t49.5 -98q0 -74 -85 -104v-2q47 -15 69 -42t22 -70q0 -65 -51.5 -103.5t-137.5 -38.5q-97 0 -148.5 43t-51.5 125h125q0 -73 75 -73q29 0 47 14t18 37q0 56 -87 56h-14v92h16q37 0 58.5 14.5t21.5 39.5q0 23 -17 37t-46 14q-67 0 -67 -70h-123
q0 78 50.5 121.5t141.5 43.5z" />
    <glyph glyph-name="fourinferior" unicode="&#x2084;" horiz-adv-x="449" 
d="M437 17v-92h-76v-97h-121v97h-230v97l190 278h161v-283h76zM164 83l-46 -66h126v52q0 64 5 144h-1q-37 -63 -84 -130z" />
    <glyph glyph-name="fiveinferior" unicode="&#x2085;" horiz-adv-x="452" 
d="M390 300v-99h-224l-9 -92h2q37 35 96 35q72 0 117.5 -43.5t45.5 -112.5q0 -78 -53.5 -124.5t-140.5 -46.5t-138.5 39t-51.5 107h124q1 -25 19 -39t46 -14q33 0 51 18.5t18 53.5q0 34 -18.5 53t-49.5 19q-51 0 -63 -45l-121 7l27 284h323z" />
    <glyph glyph-name="sixinferior" unicode="&#x2086;" horiz-adv-x="448" 
d="M239 311q77 0 123.5 -38t51.5 -107h-125q-6 53 -56 53q-80 0 -84 -129h2q41 45 110 45q70 0 114.5 -42t44.5 -109q0 -74 -53 -120.5t-138 -46.5q-95 0 -146.5 60t-51.5 176q0 122 55 190t153 68zM230 48q-29 0 -47 -19t-18 -51q0 -30 18 -48.5t47 -18.5t47 18.5t18 49.5
t-17.5 50t-47.5 19z" />
    <glyph glyph-name="seveninferior" unicode="&#x2087;" horiz-adv-x="400" 
d="M10 300h378v-99q-114 -155 -153 -373h-134q24 110 69.5 208.5t96.5 160.5h-257v103z" />
    <glyph glyph-name="eightinferior" unicode="&#x2088;" horiz-adv-x="451" 
d="M225 311q82 0 133 -36t51 -96q0 -38 -24 -66t-65 -39v-2q45 -10 72.5 -41t27.5 -75q0 -65 -52.5 -102t-142.5 -37t-142 37t-52 102q0 44 27 75t72 41v2q-41 11 -65 39t-24 66q0 60 51 96t133 36zM225 219q-31 0 -49 -14t-18 -37q0 -25 18 -39.5t49 -14.5t49 14.5t18 39.5
q0 23 -18 37t-49 14zM225 24q-32 0 -51.5 -15.5t-19.5 -41.5t19.5 -41.5t51.5 -15.5q33 0 52 15.5t19 41.5t-19 41.5t-52 15.5z" />
    <glyph glyph-name="nineinferior" unicode="&#x2089;" horiz-adv-x="448" 
d="M209 -183q-77 0 -123.5 38t-51.5 107h125q6 -53 56 -53q80 0 84 129h-2q-41 -45 -110 -45q-70 0 -114.5 42t-44.5 109q0 74 53 120.5t138 46.5q95 0 146.5 -60t51.5 -176q0 -122 -55 -190t-153 -68zM218 80q29 0 47 19t18 51q0 30 -18 48.5t-47 18.5t-47 -18.5t-18 -49.5
t17.5 -50t47.5 -19z" />
    <glyph glyph-name="plusinferior" unicode="&#x208a;" horiz-adv-x="413" 
d="M254 207v-111h114v-93h-114v-111h-95v111h-114v93h114v111h95z" />
    <glyph glyph-name="minusinferior" unicode="&#x208b;" horiz-adv-x="413" 
d="M368 96v-93h-323v93h323z" />
    <glyph glyph-name="equalinferior" unicode="&#x208c;" horiz-adv-x="413" 
d="M368 166v-89h-323v89h323zM368 22v-89h-323v89h323z" />
    <glyph glyph-name="parenleftinferior" unicode="&#x208d;" horiz-adv-x="251" 
d="M133 347h97q-73 -154 -73 -311q0 -155 73 -311h-97q-104 144 -104 311q0 169 104 311z" />
    <glyph glyph-name="parenrightinferior" unicode="&#x208e;" horiz-adv-x="251" 
d="M118 -275h-97q73 154 73 311q0 155 -73 311h97q104 -144 104 -311q0 -169 -104 -311z" />
    <glyph glyph-name="ninferior" unicode="&#x2099;" horiz-adv-x="446" 
d="M268 193q63 0 98.5 -37.5t35.5 -108.5v-219h-120v205q0 67 -53 67q-61 0 -61 -89v-183h-120v356h112v-43h1q40 52 107 52z" />
    <glyph glyph-name="franc" unicode="&#x20a3;" 
d="M573 548h-324v-126h299v-126h-299v-92h164v-107h-164v-97h-147v97h-78v107h78v470h471v-126z" />
    <glyph glyph-name="lira" unicode="&#x20a4;" 
d="M199 118v-2h366v-116h-541v118q43 0 65.5 27t24.5 90h-90v70h90v40h-90v70h90v36q0 239 236 239q104 0 163 -58t59 -159h-141q0 47 -21 72t-60 25q-89 0 -89 -119v-36h122v-70h-122v-40h122v-70h-122q-2 -46 -16 -73t-46 -44z" />
    <glyph glyph-name="peseta" unicode="&#x20a7;" horiz-adv-x="895" 
d="M834 105q21 0 36 5v-107q-32 -10 -74 -10q-88 0 -128 38.5t-40 126.5v246h-49q-12 -89 -78 -139.5t-180 -50.5h-92v-214h-147v674h239q106 0 171 -44t83 -122h53v132h140v-132h97v-104h-97v-221q0 -42 15 -60t51 -18zM229 552v-216h72q131 0 131 108t-131 108h-72z" />
    <glyph glyph-name="euro" unicode="&#x20ac;" 
d="M445 210h141q-9 -105 -77 -165.5t-177 -60.5q-114 0 -183.5 66.5t-87.5 192.5h-60l13 70h40v40h-53l13 70h45q18 129 88.5 198t187.5 69q110 0 175.5 -59.5t72.5 -163.5h-138q-8 49 -36 76.5t-74 27.5q-109 0 -133 -148h219l-13 -70h-212v-40h204l-13 -70h-183
q24 -140 128 -140q46 0 75.5 28.5t37.5 78.5z" />
    <glyph glyph-name="rupeeIndian" unicode="&#x20b9;" 
d="M549 588h-150v-2q46 -20 60 -66h114l-24 -86h-88q-25 -104 -158 -129v-2q64 -24 113 -123l88 -180h-168l-78 170q-25 55 -57.5 79t-79.5 24h-16v93h47q109 0 141 68h-265l24 86h247q-22 68 -138 68h-133l24 86h521z" />
    <glyph glyph-name="liraTurkish" unicode="&#x20ba;" 
d="M431 322h152q0 -162 -89 -246t-254 -84q-70 0 -140 8v243l-87 -47v90l87 47v67l-87 -47v90l87 47v184h147v-113l166 90v-90l-166 -90v-67l166 90v-90l-166 -90v-193q89 0 136.5 51t47.5 150z" />
    <glyph glyph-name="uni20BC" unicode="&#x20bc;" horiz-adv-x="716" 
d="M172 0h-132v298q0 156 61.5 233t190.5 88v93h132v-93q129 -11 190.5 -88t61.5 -233v-298h-132v294q0 100 -27 145.5t-93 52.5v-492h-132v492q-65 -7 -92.5 -53t-27.5 -145v-294z" />
    <glyph glyph-name="ruble" unicode="&#x20bd;" 
d="M88 367v307h251q117 0 178.5 -56t61.5 -153q0 -98 -61.5 -154t-178.5 -56h-104v-54h181v-106h-181v-95h-147v95h-79v106h79v54h-79v112h79zM318 562h-83v-195h83q110 0 110 98q0 97 -110 97z" />
    <glyph glyph-name="careof" unicode="&#x2105;" horiz-adv-x="946" 
d="M728 362q89 0 141.5 -51.5t52.5 -137.5q0 -87 -52.5 -138t-141.5 -51t-141.5 51t-52.5 138q0 86 52.5 137.5t141.5 51.5zM728 271q-32 0 -50 -26t-18 -72t18.5 -72.5t49.5 -26.5t49.5 26.5t18.5 72.5t-18 72t-50 26zM215 690q77 0 127 -40.5t56 -107.5h-124
q-2 26 -18 41.5t-40 15.5q-30 0 -48 -26t-18 -71q0 -47 18 -73.5t49 -26.5q23 0 39 18t17 47h125q-5 -71 -54.5 -113t-128.5 -42q-87 0 -139 51.5t-52 138.5q0 86 52 137t139 51zM695 674l-369 -674h-91l369 674h91z" />
    <glyph glyph-name="literSign" unicode="&#x2113;" horiz-adv-x="450" 
d="M223 204v-36q0 -41 16 -60t52 -19q23 0 47 7v-95q-39 -11 -83 -11q-88 0 -129.5 42.5t-41.5 132.5v22q-29 2 -49 6v77q22 -4 49 -6v203q0 125 37 174t118 49q71 0 114.5 -47.5t43.5 -149.5q0 -231 -174 -289zM265 601q-23 0 -32.5 -21.5t-9.5 -82.5v-206q91 55 91 202
q0 108 -49 108z" />
    <glyph glyph-name="numero" unicode="&#x2116;" horiz-adv-x="1183" 
d="M1139 194v-105h-351v105h351zM694 712v-712h-209l-138 289q-76 161 -130 294h-2q8 -165 8 -309v-274h-141v712h209l138 -289q76 -161 130 -294h2q-8 165 -8 309v274h141zM965 621q89 0 141.5 -51.5t52.5 -137.5q0 -87 -52.5 -138t-141.5 -51t-141.5 51t-52.5 138
q0 86 52.5 137.5t141.5 51.5zM965 530q-32 0 -50 -26t-18 -72t18.5 -72.5t49.5 -26.5t49.5 26.5t18.5 72.5t-18 72t-50 26z" />
    <glyph glyph-name="published" unicode="&#x2117;" horiz-adv-x="802" 
d="M401 726q162 0 261 -102t99 -268t-99 -268t-261 -102t-261 102t-99 268t99 268t261 102zM401 671q-138 0 -222 -86.5t-84 -228.5t84 -228.5t222 -86.5t222.5 86.5t84.5 228.5t-84.5 228.5t-222.5 86.5zM258 126v451h178q84 0 127 -39.5t43 -108.5t-43 -108.5t-127 -39.5
h-84v-155h-94zM423 499h-71v-139h71q86 0 86 69q0 70 -86 70z" />
    <glyph glyph-name="trademark" unicode="&#x2122;" horiz-adv-x="829" 
d="M316 712v-83h-106v-273h-99v273h-106v83h311zM788 712v-356h-90v163q0 65 3 129h-2l-30 -127l-41 -165h-114l-41 165l-30 127h-2q3 -64 3 -129v-163h-90v356h152l36 -141q18 -72 28 -131h2q10 59 28 131l36 141h152z" />
    <glyph glyph-name="Ohm" unicode="&#x2126;" horiz-adv-x="734" 
d="M367 728q148 0 236.5 -80t88.5 -234q0 -87 -36.5 -154.5t-102.5 -133.5v-2h150v-124h-286v130q59 60 91 121t32 141q0 100 -47 153t-126 53t-126 -53t-47 -153q0 -80 32 -141t91 -121v-130h-286v124h150v2q-66 66 -102.5 133.5t-36.5 154.5q0 154 88.5 234t236.5 80z" />
    <glyph glyph-name="estimated" unicode="&#x212e;" horiz-adv-x="863" 
d="M432 690q176 0 279.5 -105t103.5 -257h-612q-14 0 -14 -13v-167q0 -29 16 -44q93 -91 227 -91q72 0 135.5 30.5t103.5 79.5h69q-40 -56 -118 -95.5t-190 -39.5q-173 0 -279 98t-106 251t104.5 253t280.5 100zM432 664q-133 0 -227 -94q-16 -14 -16 -41v-167q0 -12 14 -12
h456q13 0 13 12v167q0 27 -15 41q-95 94 -225 94z" />
    <glyph glyph-name="oneeighth" unicode="&#x215b;" horiz-adv-x="822" 
d="M623 414q74 0 118.5 -32t44.5 -84q0 -32 -20.5 -55.5t-56.5 -31.5v-2q40 -7 63.5 -33.5t23.5 -63.5q0 -57 -46 -89.5t-127 -32.5t-126.5 32t-45.5 90q0 37 24 63t64 34v2q-36 8 -57 31.5t-21 55.5q0 52 45 84t117 32zM623 332q-25 0 -40 -11.5t-15 -30.5t15 -31t40 -12
q26 0 41.5 11.5t15.5 31.5q0 19 -15.5 30.5t-41.5 11.5zM623 166q-26 0 -42 -12.5t-16 -33.5t15.5 -33.5t42.5 -12.5q28 0 44 12.5t16 33.5t-16.5 33.5t-43.5 12.5zM229 674v-404h-117v252h-103v81q95 0 114 71h106zM581 674l-369 -674h-91l369 674h91z" />
    <glyph glyph-name="threeeighths" unicode="&#x215c;" horiz-adv-x="945" 
d="M746 414q74 0 118.5 -32t44.5 -84q0 -32 -20.5 -55.5t-56.5 -31.5v-2q40 -7 63.5 -33.5t23.5 -63.5q0 -57 -46 -89.5t-127 -32.5t-126.5 32t-45.5 90q0 37 24 63t64 34v2q-36 8 -57 31.5t-21 55.5q0 52 45 84t117 32zM746 332q-25 0 -40 -11.5t-15 -30.5t15 -31t40 -12
q26 0 41.5 11.5t15.5 31.5q0 19 -15.5 30.5t-41.5 11.5zM746 166q-26 0 -42 -12.5t-16 -33.5t15.5 -33.5t42.5 -12.5q28 0 44 12.5t16 33.5t-16.5 33.5t-43.5 12.5zM200 684q76 0 121 -31.5t45 -84.5q0 -33 -17.5 -53.5t-56.5 -34.5v-1q79 -24 79 -98q0 -57 -44.5 -89
t-123.5 -32q-85 0 -131.5 37t-46.5 107h114q0 -58 64 -58q25 0 40.5 11t15.5 30q0 45 -72 45h-14v82h13q32 0 50.5 12.5t18.5 33.5q0 17 -15 28t-40 11q-58 0 -58 -55h-111q0 66 45 103t124 37zM704 674l-369 -674h-91l369 674h91z" />
    <glyph glyph-name="fiveeighths" unicode="&#x215d;" horiz-adv-x="944" 
d="M745 414q74 0 118.5 -32t44.5 -84q0 -32 -20.5 -55.5t-56.5 -31.5v-2q40 -7 63.5 -33.5t23.5 -63.5q0 -57 -46 -89.5t-127 -32.5t-126.5 32t-45.5 90q0 37 24 63t64 34v2q-36 8 -57 31.5t-21 55.5q0 52 45 84t117 32zM745 332q-25 0 -40 -11.5t-15 -30.5t15 -31t40 -12
q26 0 41.5 11.5t15.5 31.5q0 19 -15.5 30.5t-41.5 11.5zM745 166q-26 0 -42 -12.5t-16 -33.5t15.5 -33.5t42.5 -12.5q28 0 44 12.5t16 33.5t-16.5 33.5t-43.5 12.5zM346 674v-90h-196l-8 -71h2q32 28 85 28q63 0 102.5 -38t39.5 -99q0 -65 -47 -104.5t-124 -39.5
q-78 0 -124 34t-46 93h115q1 -21 15.5 -32.5t38.5 -11.5q28 0 43.5 16t15.5 44q0 27 -15.5 42.5t-41.5 15.5q-47 0 -55 -38l-111 7l24 244h287zM703 674l-369 -674h-91l369 674h91z" />
    <glyph glyph-name="seveneighths" unicode="&#x215e;" horiz-adv-x="848" 
d="M649 414q74 0 118.5 -32t44.5 -84q0 -32 -20.5 -55.5t-56.5 -31.5v-2q40 -7 63.5 -33.5t23.5 -63.5q0 -57 -46 -89.5t-127 -32.5t-126.5 32t-45.5 90q0 37 24 63t64 34v2q-36 8 -57 31.5t-21 55.5q0 52 45 84t117 32zM649 332q-25 0 -40 -11.5t-15 -30.5t15 -31t40 -12
q26 0 41.5 11.5t15.5 31.5q0 19 -15.5 30.5t-41.5 11.5zM649 166q-26 0 -42 -12.5t-16 -33.5t15.5 -33.5t42.5 -12.5q28 0 44 12.5t16 33.5t-16.5 33.5t-43.5 12.5zM9 674h334v-89q-95 -126 -133 -315h-122q20 92 59.5 175t84.5 138h-223v91zM607 674l-369 -674h-91l369 674
h91z" />
    <glyph glyph-name="Sevenroman" unicode="&#x2166;" horiz-adv-x="1240" 
d="M632 712l-221 -712h-184l-221 712h150l85 -277q46 -146 77 -291h2q28 127 77 291l85 277h150zM847 712v-712h-147v712h147zM1158 712v-712h-147v712h147z" />
    <glyph glyph-name="partialdiff" unicode="&#x2202;" horiz-adv-x="625" 
d="M285 728q135 0 204.5 -89t69.5 -259q0 -200 -75.5 -298t-198.5 -98q-119 0 -183 66t-64 175q0 111 66 182.5t180 71.5q87 0 134 -52h2q1 7 1 23q0 72 -37 116.5t-91 44.5q-76 0 -87 -75h-145q9 89 65.5 140.5t158.5 51.5zM299 374q-53 0 -84.5 -42t-31.5 -108
q0 -58 27.5 -90.5t79.5 -32.5q54 0 86 39.5t32 104.5q0 60 -29 94.5t-80 34.5z" />
    <glyph glyph-name="increment" unicode="&#x2206;" horiz-adv-x="698" 
d="M450 712l245 -712h-692l249 712h198zM195 126h304l-70 221q-43 138 -80 278h-2q-32 -122 -81 -278z" />
    <glyph glyph-name="product" unicode="&#x220f;" horiz-adv-x="679" 
d="M597 712v-832h-146v706h-222v-706h-147v832h515z" />
    <glyph glyph-name="summation" unicode="&#x2211;" horiz-adv-x="515" 
d="M480 712v-128h-283l173 -289l-173 -286h283v-129h-445v129l176 286l-176 289v128h445z" />
    <glyph glyph-name="minus" unicode="&#x2212;" horiz-adv-x="566" 
d="M502 371v-109h-438v109h438z" />
    <glyph glyph-name="divisionslash" unicode="&#x2215;" horiz-adv-x="488" 
d="M437 745l-298 -834h-109l298 834h109z" />
    <glyph glyph-name="bulletoperator" unicode="&#x2219;" horiz-adv-x="362" 
d="M258 389v-167h-154v167h154z" />
    <glyph glyph-name="radical" unicode="&#x221a;" horiz-adv-x="641" 
d="M621 712l-238 -832h-185l-90 385h-83v112h177l91 -380h2l204 715h122z" />
    <glyph glyph-name="infinity" unicode="&#x221e;" horiz-adv-x="674" 
d="M502 478q71 0 114 -46.5t43 -123.5t-43 -123.5t-114 -46.5q-94 0 -165 91q-72 -91 -165 -91q-71 0 -114 46.5t-43 123.5t43 123.5t114 46.5q93 0 165 -91q71 91 165 91zM184 240q46 0 96 68q-50 68 -96 68q-30 0 -47 -18.5t-17 -49.5t17 -49.5t47 -18.5zM490 240
q30 0 47 18.5t17 49.5t-17 49.5t-47 18.5q-47 0 -97 -68q50 -68 97 -68z" />
    <glyph glyph-name="integral" unicode="&#x222b;" horiz-adv-x="352" 
d="M275 720q35 0 69 -8v-99q-9 3 -25 3q-38 0 -56 -18.5t-18 -60.5v-564q0 -166 -168 -166q-35 0 -69 8v99q9 -3 25 -3q38 0 56 18.5t18 60.5v564q0 166 168 166z" />
    <glyph glyph-name="approxequal" unicode="&#x2248;" horiz-adv-x="566" 
d="M194 302q43 0 97 -38.5t77 -38.5q25 0 38.5 17t13.5 47h86q0 -75 -36.5 -120.5t-97.5 -45.5q-42 0 -96.5 38.5t-77.5 38.5q-24 0 -38 -17.5t-14 -46.5h-86q0 75 36.5 120.5t97.5 45.5zM194 511q43 0 97 -38.5t77 -38.5q24 0 38 17.5t14 46.5h86q0 -75 -36.5 -120.5
t-97.5 -45.5q-42 0 -96.5 38.5t-77.5 38.5q-25 0 -38.5 -17t-13.5 -47h-86q0 75 36.5 120.5t97.5 45.5z" />
    <glyph glyph-name="notequal" unicode="&#x2260;" horiz-adv-x="566" 
d="M502 357h-147l-46 -81h193v-109h-255l-67 -117h-98l67 117h-85v109h146l47 81h-193v109h254l67 117h99l-67 -117h85v-109z" />
    <glyph glyph-name="lessequal" unicode="&#x2264;" horiz-adv-x="566" 
d="M64 105h438v-105h-438v105zM502 559v-110l-309 -104v-2l309 -104v-110l-438 148v134z" />
    <glyph glyph-name="greaterequal" unicode="&#x2265;" horiz-adv-x="566" 
d="M502 105v-105h-438v105h438zM64 559l438 -148v-134l-438 -148v110l309 104v2l-309 104v110z" />
    <glyph glyph-name="lozenge" unicode="&#x25ca;" horiz-adv-x="644" 
d="M415 712l189 -356l-189 -356h-186l-189 356l189 356h186zM322 612l-138 -256l138 -256l138 256z" />
    <glyph glyph-name="apple" unicode="&#xf8ff;" horiz-adv-x="642" 
d="M151 777h340q62 0 98.5 -36.5t36.5 -98.5v-572q0 -62 -36.5 -98.5t-98.5 -36.5h-340q-62 0 -98.5 36.5t-36.5 98.5v572q0 62 36.5 98.5t98.5 36.5zM491 713h-340q-33 0 -52 -19t-19 -52v-572q0 -33 19 -52t52 -19h340q33 0 52 19t19 52v572q0 33 -19 52t-52 19zM379 177
v-112h-128v112h128zM323 647q84 0 132 -40.5t48 -110.5q0 -41 -15 -69.5t-57 -67.5q-40 -37 -52.5 -64t-12.5 -76h-102q-1 11 -1 31q0 55 13 85t54 72q30 30 38.5 46.5t8.5 40.5t-14 38t-40 14q-63 0 -64 -80h-125q1 88 50.5 134.5t138.5 46.5z" />
    <glyph glyph-name="ff" unicode="&#xfb00;" horiz-adv-x="652" 
d="M617 616q-38 0 -56 -18.5t-18 -60.5v-29h96v-104h-96v-404h-138v404h-173v-404h-138v404h-84v104h84v46q0 166 168 166q35 0 69 -8v-99q-9 3 -25 3q-38 0 -56 -18.5t-18 -60.5v-29h173v46q0 166 168 166q35 0 69 -8v-99q-9 3 -25 3z" />
    <glyph glyph-name="fi" unicode="&#xfb01;" horiz-adv-x="617" 
d="M10 508h84v46q0 166 168 166q35 0 69 -8v-99q-9 3 -25 3q-38 0 -56 -18.5t-18 -60.5v-29h96v-104h-96v-404h-138v404h-84v104zM409 0v508h140v-508h-140zM409 712h140v-120h-140v120z" />
    <glyph glyph-name="fl" unicode="&#xfb02;" horiz-adv-x="617" 
d="M10 508h84v46q0 166 168 166q35 0 69 -8v-99q-9 3 -25 3q-38 0 -56 -18.5t-18 -60.5v-29h96v-104h-96v-404h-138v404h-84v104zM409 712h140v-712h-140v712z" />
    <glyph glyph-name="ffi" unicode="&#xfb03;" horiz-adv-x="928" 
d="M232 508h173v46q0 166 168 166q35 0 69 -8v-99q-9 3 -25 3q-38 0 -56 -18.5t-18 -60.5v-29h96v-104h-96v-404h-138v404h-173v-404h-138v404h-84v104h84v46q0 166 168 166q35 0 69 -8v-99q-9 3 -25 3q-38 0 -56 -18.5t-18 -60.5v-29zM720 0v508h140v-508h-140zM720 712
h140v-120h-140v120z" />
    <glyph glyph-name="ffl" unicode="&#xfb04;" horiz-adv-x="928" 
d="M232 508h173v46q0 166 168 166q35 0 69 -8v-99q-9 3 -25 3q-38 0 -56 -18.5t-18 -60.5v-29h96v-104h-96v-404h-138v404h-173v-404h-138v404h-84v104h84v46q0 166 168 166q35 0 69 -8v-99q-9 3 -25 3q-38 0 -56 -18.5t-18 -60.5v-29zM720 712h140v-712h-140v712z" />
    <glyph glyph-name="uniFEFF" unicode="&#xfeff;" horiz-adv-x="0" 
 />
    <glyph glyph-name="J.acute.loclNLD" horiz-adv-x="392" 
d="M168 712h147v-485q0 -121 -56.5 -177.5t-178.5 -56.5q-38 0 -65 8v125q27 -5 47 -5q57 0 81.5 28.5t24.5 108.5v454zM407 916l-140 -146h-110l77 146h173z" />
    <glyph glyph-name="Ccedilla.ss01" horiz-adv-x="701" 
d="M363 728q130 0 210 -72.5t85 -190.5h-148q-7 62 -46 97.5t-101 35.5q-81 0 -127.5 -64.5t-46.5 -177.5t45.5 -177.5t125.5 -64.5q63 0 102.5 35.5t47.5 100.5h151q-10 -126 -90 -196t-211 -70q-150 0 -236.5 99.5t-86.5 272.5t87.5 272.5t238.5 99.5zM436 -49l-97 -168
h-163l140 168h120z" />
    <glyph glyph-name="Scedilla.ss01" horiz-adv-x="630" 
d="M301 728q133 0 201.5 -59.5t68.5 -174.5h-149q0 56 -32 86.5t-92 30.5q-49 0 -79 -21.5t-30 -56.5q0 -39 32.5 -59t122.5 -42q49 -12 78.5 -21t66.5 -27t57 -39.5t34 -56t14 -79.5q0 -101 -76.5 -163t-201.5 -62q-135 0 -211.5 65t-76.5 185h152q0 -131 138 -131
q56 0 89.5 24.5t33.5 66.5q0 44 -30 61.5t-117 39.5q-52 13 -79.5 21.5t-67 26.5t-59.5 38.5t-35 55.5t-15 80q0 94 73 152.5t190 58.5zM381 -49l-97 -168h-163l140 168h120z" />
    <glyph glyph-name="Tcedilla.ss01" horiz-adv-x="615" 
d="M605 712v-126h-224v-586h-147v586h-224v126h595zM381 -49l-97 -168h-163l140 168h120z" />
    <glyph glyph-name="idotaccent" horiz-adv-x="276" 
d="M208 508v-508h-140v508h140zM208 712v-120h-140v120h140z" />
    <glyph glyph-name="j.acute.loclNLD" horiz-adv-x="278" 
d="M70 508h140v-519q0 -92 -46.5 -135.5t-126.5 -43.5q-37 0 -69 8v101q12 -3 27 -3q39 0 57 20.5t18 73.5v498zM305 712l-140 -146h-110l77 146h173z" />
    <glyph glyph-name="ccedilla.ss01" horiz-adv-x="562" 
d="M291 524q101 0 166.5 -57t73.5 -148h-146q-4 45 -29.5 71t-65.5 26q-51 0 -80 -43.5t-29 -118.5t29 -118.5t80 -43.5q40 0 65.5 28.5t28.5 78.5h147q-8 -97 -73 -156t-167 -59q-116 0 -186 73.5t-70 196.5t70 196.5t186 73.5zM364 -49l-97 -168h-163l140 168h120z" />
    <glyph glyph-name="scedilla.ss01" horiz-adv-x="524" 
d="M257 524q101 0 157 -44t56 -128h-134q0 74 -80 74q-69 0 -69 -47q0 -25 22 -36.5t87 -28.5q40 -11 56.5 -15.5t48.5 -19t46.5 -30t27 -43t12.5 -63.5q0 -72 -60.5 -115.5t-163.5 -43.5q-108 0 -168 45.5t-60 135.5h142q0 -38 23 -59t66 -21q74 0 74 49q0 34 -39 50
q-18 8 -78 24q-24 6 -29 7.5t-27 8t-28 10t-23.5 11.5t-23.5 15t-17.5 18.5t-15.5 24t-8 29.5t-4 36q0 69 58 112.5t152 43.5zM334 -49l-97 -168h-163l140 168h120z" />
    <glyph glyph-name="tcedilla.ss01" horiz-adv-x="357" 
d="M296 105q21 0 36 5v-107q-32 -10 -74 -10q-88 0 -128 38.5t-40 126.5v246h-82v104h82v132h140v-132h97v-104h-97v-221q0 -42 15 -60t51 -18zM12 -217l140 168h120l-97 -168h-163z" />
    <glyph glyph-name="a.sups" horiz-adv-x="412" 
d="M201 697q166 0 166 -145v-121q0 -62 11 -101h-108q-6 21 -6 46h-1q-42 -55 -119 -55q-58 0 -92 31t-34 79q0 47 34 75t112 40q49 7 87 9v13q0 54 -51 54q-49 0 -51 -49h-116q3 54 45 89t123 35zM251 478v13q-35 -2 -64 -8q-50 -10 -50 -44q0 -40 46 -40q68 0 68 79z" />
    <glyph glyph-name="b.sups" horiz-adv-x="447" 
d="M168 828v-180h2q34 48 99 48q70 0 111.5 -51t41.5 -137t-42.5 -137t-112.5 -51q-69 0 -102 53h-1v-43h-116v498h120zM228 605q-30 0 -48 -26t-18 -71t18 -71t48 -26q31 0 50 26.5t19 70.5t-19 70.5t-50 26.5z" />
    <glyph glyph-name="c.sups" horiz-adv-x="420" 
d="M215 697q77 0 127 -40.5t56 -107.5h-124q-2 26 -18 41.5t-40 15.5q-30 0 -48 -26t-18 -71q0 -47 18 -73.5t49 -26.5q23 0 39 18t17 47h125q-5 -71 -54.5 -113t-128.5 -42q-87 0 -139 51.5t-52 138.5q0 86 52 137t139 51z" />
    <glyph glyph-name="d.sups" horiz-adv-x="447" 
d="M279 828h120v-498h-116v43h-1q-33 -53 -102 -53q-70 0 -112.5 51t-42.5 137t41.5 137t111.5 51q65 0 99 -48h2v180zM219 605q-31 0 -50 -26.5t-19 -70.5t19 -70.5t50 -26.5q30 0 48 26t18 71t-18 71t-48 26z" />
    <glyph glyph-name="e.sups" horiz-adv-x="426" 
d="M213 399q25 0 41.5 11t19.5 29h122q-12 -52 -61 -86t-121 -34q-89 0 -139.5 53t-50.5 138q0 81 50.5 134t138.5 53q64 0 109.5 -30t65.5 -83q13 -35 13 -101h-259q4 -84 71 -84zM213 619q-58 0 -69 -69h137q-4 35 -22.5 52t-45.5 17z" />
    <glyph glyph-name="egrave.sups" horiz-adv-x="426" 
d="M213 399q25 0 41.5 11t19.5 29h122q-12 -52 -61 -86t-121 -34q-89 0 -139.5 53t-50.5 138q0 81 50.5 134t138.5 53q64 0 109.5 -30t65.5 -83q13 -35 13 -101h-259q4 -84 71 -84zM213 619q-58 0 -69 -69h137q-4 35 -22.5 52t-45.5 17zM284 724h-106l-117 104h151z" />
    <glyph glyph-name="f.sups" horiz-adv-x="262" 
d="M237 748q-52 0 -52 -51v-11h67v-87h-67v-269h-120v269h-58v87h58v24q0 125 133 125q31 0 57 -7v-82q-8 2 -18 2z" />
    <glyph glyph-name="g.sups" horiz-adv-x="440" 
d="M175 696q64 0 104 -57h1v47h112v-332q0 -161 -184 -161q-76 0 -119.5 30t-48.5 85h116q3 -38 54 -38q33 0 49.5 19t16.5 64v38h-2q-37 -51 -101 -51q-68 0 -108.5 48t-40.5 130t41 130t110 48zM213 604q-30 0 -47.5 -23t-17.5 -63t17.5 -63t47.5 -23q31 0 48.5 23.5
t17.5 62.5t-17.5 62.5t-48.5 23.5z" />
    <glyph glyph-name="h.sups" horiz-adv-x="446" 
d="M168 828v-177h2q36 44 98 44q63 0 98.5 -37.5t35.5 -108.5v-219h-120v205q0 67 -53 67q-61 0 -61 -89v-183h-120v498h120z" />
    <glyph glyph-name="i.sups" horiz-adv-x="216" 
d="M168 686v-356h-120v356h120zM168 828v-93h-120v93h120z" />
    <glyph glyph-name="j.sups" horiz-adv-x="219" 
d="M51 686h120v-353q0 -70 -36.5 -103t-98.5 -33q-34 0 -58 6v84q12 -2 19 -2q28 0 41 15t13 53v333zM171 828v-93h-120v93h120z" />
    <glyph glyph-name="k.sups" horiz-adv-x="412" 
d="M276 519l143 -189h-147l-102 160h-2v-160h-120v499h120v-282h2l97 139h139z" />
    <glyph glyph-name="l.sups" horiz-adv-x="216" 
d="M168 828v-498h-120v498h120z" />
    <glyph glyph-name="m.sups" horiz-adv-x="662" 
d="M490 695q60 0 94 -37.5t34 -108.5v-219h-120v205q0 67 -48 67q-57 0 -57 -92v-180h-120v210q0 62 -48 62q-57 0 -57 -92v-180h-120v356h112v-41h2q39 50 103 50q77 0 108 -61q43 61 117 61z" />
    <glyph glyph-name="n.sups" horiz-adv-x="446" 
d="M268 695q63 0 98.5 -37.5t35.5 -108.5v-219h-120v205q0 67 -53 67q-61 0 -61 -89v-183h-120v356h112v-43h1q40 52 107 52z" />
    <glyph glyph-name="o.sups" horiz-adv-x="438" 
d="M219 697q89 0 141.5 -51.5t52.5 -137.5q0 -87 -52.5 -138t-141.5 -51t-141.5 51t-52.5 138q0 86 52.5 137.5t141.5 51.5zM219 606q-32 0 -50 -26t-18 -72t18.5 -72.5t49.5 -26.5t49.5 26.5t18.5 72.5t-18 72t-50 26z" />
    <glyph glyph-name="p.sups" horiz-adv-x="447" 
d="M267 696q70 0 112.5 -51t42.5 -137t-41.5 -137t-111.5 -51q-66 0 -99 47h-2v-166h-120v485h116v-44h1q33 54 102 54zM228 605q-30 0 -48 -26t-18 -71t18 -71t48 -26q31 0 50 26.5t19 70.5t-19 70.5t-50 26.5z" />
    <glyph glyph-name="q.sups" horiz-adv-x="447" 
d="M180 696q69 0 102 -54h1v44h116v-485h-120v166h-2q-33 -47 -99 -47q-70 0 -111.5 51t-41.5 137t42.5 137t112.5 51zM219 605q-31 0 -50 -26.5t-19 -70.5t19 -70.5t50 -26.5q30 0 48 26t18 71t-18 71t-48 26z" />
    <glyph glyph-name="r.sups" horiz-adv-x="305" 
d="M264 691q20 0 35 -4v-103q-16 4 -37 4q-46 0 -70 -27t-24 -78v-153h-120v356h111v-49h2q36 54 103 54z" />
    <glyph glyph-name="s.sups" horiz-adv-x="396" 
d="M196 697q77 0 119.5 -30t42.5 -89h-115q0 44 -48 44q-42 0 -42 -27q0 -15 14.5 -22.5t60.5 -18.5q27 -7 42 -11.5t37 -14.5t33.5 -21.5t20.5 -30.5t9 -43q0 -52 -45 -83t-124 -31q-176 0 -176 127h121q0 -49 56 -49q46 0 46 28q0 18 -17 26.5t-67 20.5q-33 8 -48.5 13.5
t-38.5 18t-33 32.5t-10 49q0 50 42.5 81t119.5 31z" />
    <glyph glyph-name="t.sups" horiz-adv-x="274" 
d="M229 419q17 0 27 3v-90q-32 -8 -61 -8q-69 0 -100 28t-31 91v156h-58v87h58v96h119v-96h69v-87h-69v-127q0 -29 10.5 -41t35.5 -12z" />
    <glyph glyph-name="u.sups" horiz-adv-x="446" 
d="M178 321q-63 0 -98.5 37.5t-35.5 108.5v219h120v-205q0 -67 53 -67q61 0 61 89v183h120v-356h-112v43h-1q-40 -52 -107 -52z" />
    <glyph glyph-name="v.sups" horiz-adv-x="386" 
d="M391 686l-118 -356h-160l-118 356h128l35 -128q23 -88 34 -151h2q11 63 34 151l35 128h128z" />
    <glyph glyph-name="w.sups" horiz-adv-x="613" 
d="M609 686l-81 -356h-164l-29 132q-14 65 -28 149h-1q-12 -77 -27 -149l-30 -132h-164l-81 356h117l24 -130q16 -88 22 -150h2q14 91 29 151l30 129h157l30 -129q18 -73 30 -151h1q8 67 23 150l23 130h117z" />
    <glyph glyph-name="x.sups" horiz-adv-x="386" 
d="M382 686l-114 -173l122 -183h-137l-59 113h-2l-59 -113h-137l122 183l-114 173h136l52 -101h2l52 101h136z" />
    <glyph glyph-name="y.sups" horiz-adv-x="385" 
d="M267 686h123l-120 -344q-29 -83 -68 -114.5t-110 -31.5q-36 0 -61 6v90q17 -5 36 -5q26 0 41 11.5t15 32.5q0 17 -20 69l-108 286h130l34 -119q24 -83 37 -148h2q16 77 36 148z" />
    <glyph glyph-name="z.sups" horiz-adv-x="360" 
d="M334 686v-95l-166 -167v-2h172v-92h-320v95l166 167v2h-160v92h308z" />
    <glyph glyph-name="a.smcp" horiz-adv-x="586" 
d="M430 0l-33 107h-208l-33 -107h-153l194 548h192l194 -548h-153zM226 226h134l-10 34q-35 111 -56 194h-2q-24 -98 -55 -194z" />
    <glyph glyph-name="aacute.smcp" horiz-adv-x="586" 
d="M430 0l-33 107h-208l-33 -107h-153l194 548h192l194 -548h-153zM226 226h134l-10 34q-35 111 -56 194h-2q-24 -98 -55 -194zM458 752l-140 -146h-110l77 146h173z" />
    <glyph glyph-name="abreve.smcp" horiz-adv-x="586" 
d="M430 0l-33 107h-208l-33 -107h-153l194 548h192l194 -548h-153zM226 226h134l-10 34q-35 111 -56 194h-2q-24 -98 -55 -194zM293 601q-78 0 -124.5 39.5t-50.5 111.5h95q2 -30 23.5 -47t56.5 -17t56.5 17t23.5 47h95q-4 -72 -50.5 -111.5t-124.5 -39.5z" />
    <glyph glyph-name="acircumflex.smcp" horiz-adv-x="586" 
d="M430 0l-33 107h-208l-33 -107h-153l194 548h192l194 -548h-153zM226 226h134l-10 34q-35 111 -56 194h-2q-24 -98 -55 -194zM293 682l-61 -76h-128l114 146h149l114 -146h-128z" />
    <glyph glyph-name="adieresis.smcp" horiz-adv-x="586" 
d="M430 0l-33 107h-208l-33 -107h-153l194 548h192l194 -548h-153zM226 226h134l-10 34q-35 111 -56 194h-2q-24 -98 -55 -194zM246 752v-120h-123v120h123zM463 752v-120h-123v120h123z" />
    <glyph glyph-name="agrave.smcp" horiz-adv-x="586" 
d="M430 0l-33 107h-208l-33 -107h-153l194 548h192l194 -548h-153zM226 226h134l-10 34q-35 111 -56 194h-2q-24 -98 -55 -194zM378 606h-110l-140 146h173z" />
    <glyph glyph-name="amacron.smcp" horiz-adv-x="586" 
d="M430 0l-33 107h-208l-33 -107h-153l194 548h192l194 -548h-153zM226 226h134l-10 34q-35 111 -56 194h-2q-24 -98 -55 -194zM456 729v-91h-326v91h326z" />
    <glyph glyph-name="aogonek.smcp" horiz-adv-x="586" 
d="M550 -119q21 0 36 6v-71q-33 -13 -78 -13q-56 0 -84.5 23t-28.5 64q0 32 19 57.5t59 52.5h-43l-33 107h-208l-33 -107h-153l194 548h192l194 -548q-68 -47 -68 -88q0 -31 35 -31zM226 226h134l-10 34q-35 111 -56 194h-2q-24 -98 -55 -194z" />
    <glyph glyph-name="aring.smcp" horiz-adv-x="586" 
d="M430 0l-33 107h-208l-33 -107h-153l194 548h192l194 -548h-153zM226 226h134l-10 34q-35 111 -56 194h-2q-24 -98 -55 -194zM293 596q-45 0 -76.5 31.5t-31.5 76.5t31.5 76.5t76.5 31.5t76.5 -31.5t31.5 -76.5t-31.5 -76.5t-76.5 -31.5zM293 758q-23 0 -38.5 -16
t-15.5 -38t15.5 -38t38.5 -16t38.5 16t15.5 38t-15.5 38t-38.5 16z" />
    <glyph glyph-name="atilde.smcp" horiz-adv-x="586" 
d="M430 0l-33 107h-208l-33 -107h-153l194 548h192l194 -548h-153zM226 226h134l-10 34q-35 111 -56 194h-2q-24 -98 -55 -194zM229 663q-40 0 -46 -46h-78q3 63 34 99t84 36q35 0 76 -23t58 -23q40 0 46 46h78q-3 -63 -34 -99t-84 -36q-35 0 -75.5 23t-58.5 23z" />
    <glyph glyph-name="ae.smcp" horiz-adv-x="804" 
d="M544 120h215v-120h-339l-18 115h-199l-50 -115h-158l258 548h501v-120h-258l14 -92h224v-118h-205zM255 233h129l-31 199h-11z" />
    <glyph glyph-name="b.smcp" horiz-adv-x="566" 
d="M74 0v548h224q105 0 158.5 -38t53.5 -103q0 -100 -103 -125v-2q117 -20 117 -128q0 -70 -56.5 -111t-154.5 -41h-239zM282 224h-65v-112h66q52 0 72 11.5t20 42.5q0 32 -21 45t-72 13zM287 437h-70v-107h63q90 0 90 54q0 28 -20 40.5t-63 12.5z" />
    <glyph glyph-name="c.smcp" horiz-adv-x="608" 
d="M304 564q112 0 180 -57t72 -156h-149q-5 42 -32 65t-71 23q-55 0 -87 -44.5t-32 -120.5q0 -77 32 -121t87 -44q43 0 70 23.5t33 66.5h152q-9 -103 -76.5 -159t-178.5 -56q-126 0 -198 77t-72 213q0 135 72.5 212.5t197.5 77.5z" />
    <glyph glyph-name="cacute.smcp" horiz-adv-x="608" 
d="M304 564q112 0 180 -57t72 -156h-149q-5 42 -32 65t-71 23q-55 0 -87 -44.5t-32 -120.5q0 -77 32 -121t87 -44q43 0 70 23.5t33 66.5h152q-9 -103 -76.5 -159t-178.5 -56q-126 0 -198 77t-72 213q0 135 72.5 212.5t197.5 77.5zM468 752l-140 -146h-110l77 146h173z" />
    <glyph glyph-name="ccaron.smcp" horiz-adv-x="608" 
d="M304 564q112 0 180 -57t72 -156h-149q-5 42 -32 65t-71 23q-55 0 -87 -44.5t-32 -120.5q0 -77 32 -121t87 -44q43 0 70 23.5t33 66.5h152q-9 -103 -76.5 -159t-178.5 -56q-126 0 -198 77t-72 213q0 135 72.5 212.5t197.5 77.5zM491 752l-114 -146h-149l-114 146h128
l61 -76l60 76h128z" />
    <glyph glyph-name="ccedilla.smcp" horiz-adv-x="608" 
d="M407 199h152q-8 -96 -67.5 -151t-157.5 -63l-29 -46q13 5 32 5q35 0 60 -20.5t25 -55.5q0 -41 -32 -67.5t-90 -26.5q-60 0 -114 30l22 45q41 -22 80 -22q49 0 49 35q0 17 -13 27.5t-35 10.5q-17 0 -32 -6l-21 23l43 68q-115 8 -180 84t-65 205q0 135 72.5 212.5
t197.5 77.5q112 0 180 -57t72 -156h-149q-5 42 -32 65t-71 23q-55 0 -87 -44.5t-32 -120.5q0 -77 32 -121t87 -44q43 0 70 23.5t33 66.5z" />
    <glyph glyph-name="ccircumflex.smcp" horiz-adv-x="608" 
d="M304 564q112 0 180 -57t72 -156h-149q-5 42 -32 65t-71 23q-55 0 -87 -44.5t-32 -120.5q0 -77 32 -121t87 -44q43 0 70 23.5t33 66.5h152q-9 -103 -76.5 -159t-178.5 -56q-126 0 -198 77t-72 213q0 135 72.5 212.5t197.5 77.5zM491 606h-128l-60 76l-61 -76h-128l114 146
h149z" />
    <glyph glyph-name="cdotaccent.smcp" horiz-adv-x="608" 
d="M304 564q112 0 180 -57t72 -156h-149q-5 42 -32 65t-71 23q-55 0 -87 -44.5t-32 -120.5q0 -77 32 -121t87 -44q43 0 70 23.5t33 66.5h152q-9 -103 -76.5 -159t-178.5 -56q-126 0 -198 77t-72 213q0 135 72.5 212.5t197.5 77.5zM373 752v-120h-140v120h140z" />
    <glyph glyph-name="d.smcp" horiz-adv-x="621" 
d="M74 0v548h205q149 0 229 -71t80 -203t-80 -203t-229 -71h-205zM277 425h-59v-302h59q160 0 160 151t-160 151z" />
    <glyph glyph-name="eth.smcp" horiz-adv-x="625" 
d="M78 323v225h205q149 0 229 -71t80 -203t-80 -203t-229 -71h-205v231h-62v92h62zM222 231v-108h59q160 0 160 151t-160 151h-59v-102h109v-92h-109z" />
    <glyph glyph-name="dcaron.smcp" horiz-adv-x="621" 
d="M74 0v548h205q149 0 229 -71t80 -203t-80 -203t-229 -71h-205zM277 425h-59v-302h59q160 0 160 151t-160 151zM474 752l-114 -146h-149l-114 146h128l61 -76l60 76h128z" />
    <glyph glyph-name="dcroat.smcp" horiz-adv-x="625" 
d="M78 323v225h205q149 0 229 -71t80 -203t-80 -203t-229 -71h-205v231h-62v92h62zM222 231v-108h59q160 0 160 151t-160 151h-59v-102h109v-92h-109z" />
    <glyph glyph-name="e.smcp" horiz-adv-x="536" 
d="M486 548v-120h-268v-92h248v-118h-248v-98h273v-120h-417v548h412z" />
    <glyph glyph-name="eacute.smcp" horiz-adv-x="536" 
d="M486 548v-120h-268v-92h248v-118h-248v-98h273v-120h-417v548h412zM445 752l-140 -146h-110l77 146h173z" />
    <glyph glyph-name="ebreve.smcp" horiz-adv-x="536" 
d="M486 548v-120h-268v-92h248v-118h-248v-98h273v-120h-417v548h412zM360 752h95q-4 -72 -50.5 -111.5t-124.5 -39.5t-124.5 39.5t-50.5 111.5h95q2 -30 23.5 -47t56.5 -17t56.5 17t23.5 47z" />
    <glyph glyph-name="ecaron.smcp" horiz-adv-x="536" 
d="M486 548v-120h-268v-92h248v-118h-248v-98h273v-120h-417v548h412zM468 752l-114 -146h-149l-114 146h128l61 -76l60 76h128z" />
    <glyph glyph-name="ecircumflex.smcp" horiz-adv-x="536" 
d="M486 548v-120h-268v-92h248v-118h-248v-98h273v-120h-417v548h412zM468 606h-128l-60 76l-61 -76h-128l114 146h149z" />
    <glyph glyph-name="edieresis.smcp" horiz-adv-x="536" 
d="M486 548v-120h-268v-92h248v-118h-248v-98h273v-120h-417v548h412zM233 752v-120h-123v120h123zM450 752v-120h-123v120h123z" />
    <glyph glyph-name="edotaccent.smcp" horiz-adv-x="536" 
d="M486 548v-120h-268v-92h248v-118h-248v-98h273v-120h-417v548h412zM350 752v-120h-140v120h140z" />
    <glyph glyph-name="egrave.smcp" horiz-adv-x="536" 
d="M486 548v-120h-268v-92h248v-118h-248v-98h273v-120h-417v548h412zM115 752h173l77 -146h-110z" />
    <glyph glyph-name="emacron.smcp" horiz-adv-x="536" 
d="M486 548v-120h-268v-92h248v-118h-248v-98h273v-120h-417v548h412zM443 729v-91h-326v91h326z" />
    <glyph glyph-name="eogonek.smcp" horiz-adv-x="536" 
d="M458 -119q21 0 36 6v-71q-32 -13 -78 -13q-56 0 -84.5 23t-28.5 64q0 32 19 57.5t59 52.5h-307v548h412v-120h-268v-92h248v-118h-248v-98h273v-120q-68 -47 -68 -88q0 -31 35 -31z" />
    <glyph glyph-name="f.smcp" horiz-adv-x="491" 
d="M472 548v-122h-254v-116h235v-122h-235v-188h-144v548h398z" />
    <glyph glyph-name="fi.smcp" horiz-adv-x="783" 
d="M472 548v-122h-254v-116h235v-122h-235v-188h-144v548h398zM709 548v-548h-144v548h144z" />
    <glyph glyph-name="fl.smcp" horiz-adv-x="978" 
d="M472 548v-122h-254v-116h235v-122h-235v-188h-144v548h398zM709 548v-426h259v-122h-403v548h144z" />
    <glyph glyph-name="g.smcp" horiz-adv-x="629" 
d="M316 564q105 0 170 -50t78 -139h-153q-16 68 -95 68q-60 0 -95.5 -45.5t-35.5 -125.5q0 -82 34.5 -128.5t94.5 -46.5q53 0 81.5 27.5t30.5 76.5h-122v110h258v-311h-123v48h-2q-53 -61 -159 -61q-113 0 -178.5 76.5t-65.5 208.5q0 135 76 213.5t206 78.5z" />
    <glyph glyph-name="gbreve.smcp" horiz-adv-x="629" 
d="M316 564q105 0 170 -50t78 -139h-153q-16 68 -95 68q-60 0 -95.5 -45.5t-35.5 -125.5q0 -82 34.5 -128.5t94.5 -46.5q53 0 81.5 27.5t30.5 76.5h-122v110h258v-311h-123v48h-2q-53 -61 -159 -61q-113 0 -178.5 76.5t-65.5 208.5q0 135 76 213.5t206 78.5zM389 752h95
q-4 -72 -50.5 -111.5t-124.5 -39.5t-124.5 39.5t-50.5 111.5h95q2 -30 23.5 -47t56.5 -17t56.5 17t23.5 47z" />
    <glyph glyph-name="gcircumflex.smcp" horiz-adv-x="629" 
d="M316 564q105 0 170 -50t78 -139h-153q-16 68 -95 68q-60 0 -95.5 -45.5t-35.5 -125.5q0 -82 34.5 -128.5t94.5 -46.5q53 0 81.5 27.5t30.5 76.5h-122v110h258v-311h-123v48h-2q-53 -61 -159 -61q-113 0 -178.5 76.5t-65.5 208.5q0 135 76 213.5t206 78.5zM497 606h-128
l-60 76l-61 -76h-128l114 146h149z" />
    <glyph glyph-name="gcommaaccent.smcp" horiz-adv-x="629" 
d="M316 564q105 0 170 -50t78 -139h-153q-16 68 -95 68q-60 0 -95.5 -45.5t-35.5 -125.5q0 -82 34.5 -128.5t94.5 -46.5q53 0 81.5 27.5t30.5 76.5h-122v110h258v-311h-123v48h-2q-53 -61 -159 -61q-113 0 -178.5 76.5t-65.5 208.5q0 135 76 213.5t206 78.5zM372 -59v-104
l-68 -107h-56l45 107h-45v104h124z" />
    <glyph glyph-name="gdotaccent.smcp" horiz-adv-x="629" 
d="M316 564q105 0 170 -50t78 -139h-153q-16 68 -95 68q-60 0 -95.5 -45.5t-35.5 -125.5q0 -82 34.5 -128.5t94.5 -46.5q53 0 81.5 27.5t30.5 76.5h-122v110h258v-311h-123v48h-2q-53 -61 -159 -61q-113 0 -178.5 76.5t-65.5 208.5q0 135 76 213.5t206 78.5zM379 752v-120
h-140v120h140z" />
    <glyph glyph-name="h.smcp" horiz-adv-x="642" 
d="M568 548v-548h-144v222h-206v-222h-144v548h144v-204h206v204h144z" />
    <glyph glyph-name="hbar.smcp" horiz-adv-x="642" 
d="M608 496v-62h-40v-434h-144v222h-206v-222h-144v434h-40v62h40v52h144v-52h206v52h144v-52h40zM424 344v90h-206v-90h206z" />
    <glyph glyph-name="hcircumflex.smcp" horiz-adv-x="642" 
d="M568 548v-548h-144v222h-206v-222h-144v548h144v-204h206v204h144zM509 606h-128l-60 76l-61 -76h-128l114 146h149z" />
    <glyph glyph-name="i.smcp" horiz-adv-x="292" 
d="M218 548v-548h-144v548h144z" />
    <glyph glyph-name="iacute.smcp" horiz-adv-x="292" 
d="M218 548v-548h-144v548h144zM311 752l-140 -146h-110l77 146h173z" />
    <glyph glyph-name="ibreve.smcp" horiz-adv-x="292" 
d="M218 548v-548h-144v548h144zM217 752h88q-4 -71 -45.5 -111t-113.5 -40t-113.5 39.5t-45.5 111.5h88q2 -32 21 -50t50 -18t50 18t21 50z" />
    <glyph glyph-name="icircumflex.smcp" horiz-adv-x="292" 
d="M218 548v-548h-144v548h144zM216 752l103 -145h-120l-53 77l-53 -77h-121l103 145h141z" />
    <glyph glyph-name="idieresis.smcp" horiz-adv-x="292" 
d="M218 548v-548h-144v548h144zM121 752v-120h-123v120h123zM294 752v-120h-123v120h123z" />
    <glyph glyph-name="idotaccent.smcp" horiz-adv-x="292" 
d="M218 548v-548h-144v548h144zM216 752v-120h-140v120h140z" />
    <glyph glyph-name="igrave.smcp" horiz-adv-x="292" 
d="M218 548v-548h-144v548h144zM-19 752h173l77 -146h-110z" />
    <glyph glyph-name="ij.smcp" horiz-adv-x="634" 
d="M218 548v-548h-144v548h144zM422 548h143v-359q0 -101 -47.5 -148t-150.5 -47q-33 0 -61 7l-1 118q18 -3 37 -3q44 0 62 22t18 84v326z" />
    <glyph glyph-name="imacron.smcp" horiz-adv-x="292" 
d="M218 548v-548h-144v548h144zM289 734v-91h-286v91h286z" />
    <glyph glyph-name="iogonek.smcp" horiz-adv-x="292" 
d="M185 -119q21 0 36 6v-71q-33 -13 -78 -13q-56 0 -84.5 23t-28.5 64q0 32 19 57.5t59 52.5h-34v548h144v-548q-68 -47 -68 -88q0 -31 35 -31z" />
    <glyph glyph-name="itilde.smcp" horiz-adv-x="292" 
d="M218 548v-548h-144v548h144zM244 752h68q-3 -63 -31 -99t-77 -36q-32 0 -66 24t-50 24q-36 0 -40 -48h-67q3 64 30.5 99.5t76.5 35.5q32 0 66 -24t50 -24q36 0 40 48z" />
    <glyph glyph-name="j.smcp" horiz-adv-x="342" 
d="M130 548h143v-359q0 -101 -47.5 -148t-150.5 -47q-33 0 -61 7l-1 118q18 -3 37 -3q44 0 62 22t18 84v326z" />
    <glyph glyph-name="jcircumflex.smcp" horiz-adv-x="342" 
d="M130 548h143v-359q0 -101 -47.5 -148t-150.5 -47q-33 0 -61 7l-1 118q18 -3 37 -3q44 0 62 22t18 84v326zM273 752l103 -145h-120l-53 77l-53 -77h-121l103 145h141z" />
    <glyph glyph-name="k.smcp" horiz-adv-x="571" 
d="M551 548l-200 -259l216 -289h-182l-164 250h-3v-250h-144v548h144v-234h3l160 234h170z" />
    <glyph glyph-name="kcommaaccent.smcp" horiz-adv-x="571" 
d="M551 548l-200 -259l216 -289h-182l-164 250h-3v-250h-144v548h144v-234h3l160 234h170zM351 -59v-104l-68 -107h-56l45 107h-45v104h124z" />
    <glyph glyph-name="l.smcp" horiz-adv-x="487" 
d="M218 548v-426h259v-122h-403v548h144z" />
    <glyph glyph-name="lacute.smcp" horiz-adv-x="487" 
d="M218 548v-426h259v-122h-403v548h144zM338 752l-140 -146h-110l77 146h173z" />
    <glyph glyph-name="lcaron.smcp" horiz-adv-x="487" 
d="M218 548v-426h259v-122h-403v548h144zM396 548l-58 -177h-79l26 177h111z" />
    <glyph glyph-name="lcommaaccent.smcp" horiz-adv-x="487" 
d="M218 548v-426h259v-122h-403v548h144zM329 -59v-104l-68 -107h-56l45 107h-45v104h124z" />
    <glyph glyph-name="ldot.smcp" horiz-adv-x="547" 
d="M218 548v-426h259v-122h-403v548h144zM497 439v-167h-154v167h154z" />
    <glyph glyph-name="j.acute.loclNLD.smcp" horiz-adv-x="342" 
d="M130 548h143v-359q0 -101 -47.5 -148t-150.5 -47q-33 0 -61 7l-1 118q18 -3 37 -3q44 0 62 22t18 84v326zM368 752l-140 -146h-110l77 146h173z" />
    <glyph glyph-name="lslash.smcp" horiz-adv-x="488" 
d="M219 122h259v-122h-403v217l-64 -36v104l64 36v227h144v-152l102 57v-104l-102 -57v-170z" />
    <glyph glyph-name="m.smcp" horiz-adv-x="850" 
d="M776 548v-548h-138v265q0 101 6 200h-2q-30 -121 -52 -197l-79 -268h-172l-79 268q-22 76 -52 197h-2q6 -99 6 -200v-265h-138v548h233l69 -238q32 -109 48 -199h2q16 90 48 199l69 238h233z" />
    <glyph glyph-name="n.smcp" horiz-adv-x="672" 
d="M598 548v-548h-208l-95 213q-48 102 -88 213h-2q7 -104 7 -225v-201h-138v548h208l96 -213q49 -108 87 -213h2q-7 104 -7 225v201h138z" />
    <glyph glyph-name="nacute.smcp" horiz-adv-x="672" 
d="M598 548v-548h-208l-95 213q-48 102 -88 213h-2q7 -104 7 -225v-201h-138v548h208l96 -213q49 -108 87 -213h2q-7 104 -7 225v201h138zM501 752l-140 -146h-110l77 146h173z" />
    <glyph glyph-name="ncaron.smcp" horiz-adv-x="672" 
d="M598 548v-548h-208l-95 213q-48 102 -88 213h-2q7 -104 7 -225v-201h-138v548h208l96 -213q49 -108 87 -213h2q-7 104 -7 225v201h138zM524 752l-114 -146h-149l-114 146h128l61 -76l60 76h128z" />
    <glyph glyph-name="ncommaaccent.smcp" horiz-adv-x="672" 
d="M598 548v-548h-208l-95 213q-48 102 -88 213h-2q7 -104 7 -225v-201h-138v548h208l96 -213q49 -108 87 -213h2q-7 104 -7 225v201h138zM398 -59v-104l-68 -107h-56l45 107h-45v104h124z" />
    <glyph glyph-name="eng.smcp" horiz-adv-x="649" 
d="M437 548h138v-564q0 -76 -42 -112.5t-113 -36.5q-41 0 -66 7v94q14 -2 24 -2q56 0 56 49q0 13 -8 28.5t-36 62.5l-94 157q-48 80 -90 168h-2q8 -99 8 -187v-212h-138v548h179l100 -167q55 -94 90 -168h2q-8 84 -8 187v148z" />
    <glyph glyph-name="ntilde.smcp" horiz-adv-x="672" 
d="M598 548v-548h-208l-95 213q-48 102 -88 213h-2q7 -104 7 -225v-201h-138v548h208l96 -213q49 -108 87 -213h2q-7 104 -7 225v201h138zM446 752h78q-3 -63 -34 -99t-84 -36q-35 0 -75.5 23t-58.5 23q-40 0 -46 -46h-78q3 63 34 99t84 36q36 0 76 -23t58 -23q40 0 46 46z
" />
    <glyph glyph-name="o.smcp" horiz-adv-x="628" 
d="M314 564q130 0 205.5 -78t75.5 -212t-75.5 -212t-205.5 -78t-205.5 78t-75.5 212t75.5 212t205.5 78zM314 441q-61 0 -95.5 -44t-34.5 -123t34.5 -123t95.5 -44t95.5 44t34.5 123t-34.5 123t-95.5 44z" />
    <glyph glyph-name="oacute.smcp" horiz-adv-x="628" 
d="M314 564q130 0 205.5 -78t75.5 -212t-75.5 -212t-205.5 -78t-205.5 78t-75.5 212t75.5 212t205.5 78zM314 441q-61 0 -95.5 -44t-34.5 -123t34.5 -123t95.5 -44t95.5 44t34.5 123t-34.5 123t-95.5 44zM479 752l-140 -146h-110l77 146h173z" />
    <glyph glyph-name="obreve.smcp" horiz-adv-x="628" 
d="M314 564q130 0 205.5 -78t75.5 -212t-75.5 -212t-205.5 -78t-205.5 78t-75.5 212t75.5 212t205.5 78zM314 441q-61 0 -95.5 -44t-34.5 -123t34.5 -123t95.5 -44t95.5 44t34.5 123t-34.5 123t-95.5 44zM394 752h95q-4 -72 -50.5 -111.5t-124.5 -39.5t-124.5 39.5
t-50.5 111.5h95q2 -30 23.5 -47t56.5 -17t56.5 17t23.5 47z" />
    <glyph glyph-name="ocircumflex.smcp" horiz-adv-x="628" 
d="M314 564q130 0 205.5 -78t75.5 -212t-75.5 -212t-205.5 -78t-205.5 78t-75.5 212t75.5 212t205.5 78zM314 441q-61 0 -95.5 -44t-34.5 -123t34.5 -123t95.5 -44t95.5 44t34.5 123t-34.5 123t-95.5 44zM502 606h-128l-60 76l-61 -76h-128l114 146h149z" />
    <glyph glyph-name="odieresis.smcp" horiz-adv-x="628" 
d="M314 564q130 0 205.5 -78t75.5 -212t-75.5 -212t-205.5 -78t-205.5 78t-75.5 212t75.5 212t205.5 78zM314 441q-61 0 -95.5 -44t-34.5 -123t34.5 -123t95.5 -44t95.5 44t34.5 123t-34.5 123t-95.5 44zM267 752v-120h-123v120h123zM484 752v-120h-123v120h123z" />
    <glyph glyph-name="ograve.smcp" horiz-adv-x="628" 
d="M314 564q130 0 205.5 -78t75.5 -212t-75.5 -212t-205.5 -78t-205.5 78t-75.5 212t75.5 212t205.5 78zM314 441q-61 0 -95.5 -44t-34.5 -123t34.5 -123t95.5 -44t95.5 44t34.5 123t-34.5 123t-95.5 44zM149 752h173l77 -146h-110z" />
    <glyph glyph-name="ohungarumlaut.smcp" horiz-adv-x="628" 
d="M314 564q130 0 205.5 -78t75.5 -212t-75.5 -212t-205.5 -78t-205.5 78t-75.5 212t75.5 212t205.5 78zM314 441q-61 0 -95.5 -44t-34.5 -123t34.5 -123t95.5 -44t95.5 44t34.5 123t-34.5 123t-95.5 44zM391 752l-140 -146h-110l97 146h153zM581 752l-140 -146h-110l97 146
h153z" />
    <glyph glyph-name="omacron.smcp" horiz-adv-x="628" 
d="M314 564q130 0 205.5 -78t75.5 -212t-75.5 -212t-205.5 -78t-205.5 78t-75.5 212t75.5 212t205.5 78zM314 441q-61 0 -95.5 -44t-34.5 -123t34.5 -123t95.5 -44t95.5 44t34.5 123t-34.5 123t-95.5 44zM477 729v-91h-326v91h326z" />
    <glyph glyph-name="oslash.smcp" horiz-adv-x="628" 
d="M512 588l58 -45l-47 -60q72 -78 72 -209q0 -134 -75.5 -212t-205.5 -78q-86 0 -152 36l-48 -62l-58 45l49 62q-72 77 -72 209q0 134 75.5 212t205.5 78q87 0 151 -36zM314 447q-65 0 -101 -45.5t-36 -127.5q0 -55 17 -95l193 248q-31 20 -73 20zM314 101q65 0 101 45.5
t36 127.5q0 57 -16 95l-194 -248q31 -20 73 -20z" />
    <glyph glyph-name="otilde.smcp" horiz-adv-x="628" 
d="M314 564q130 0 205.5 -78t75.5 -212t-75.5 -212t-205.5 -78t-205.5 78t-75.5 212t75.5 212t205.5 78zM314 441q-61 0 -95.5 -44t-34.5 -123t34.5 -123t95.5 -44t95.5 44t34.5 123t-34.5 123t-95.5 44zM424 752h78q-3 -63 -34 -99t-84 -36q-35 0 -75.5 23t-58.5 23
q-40 0 -46 -46h-78q3 63 34 99t84 36q36 0 76 -23t58 -23q40 0 46 46z" />
    <glyph glyph-name="oe.smcp" horiz-adv-x="846" 
d="M796 548v-120h-268v-92h248v-118h-248v-98h273v-120h-456q-146 0 -229 73t-83 201t83 201t229 73h451zM384 120v308h-36q-79 0 -121.5 -40.5t-42.5 -113.5t42.5 -113.5t121.5 -40.5h36z" />
    <glyph glyph-name="p.smcp" horiz-adv-x="547" 
d="M74 0v548h230q108 0 164 -51t56 -139t-56 -138t-164 -50h-86v-170h-144zM284 431h-66v-145h67q92 0 92 73q0 72 -93 72z" />
    <glyph glyph-name="thorn.smcp" horiz-adv-x="547" 
d="M218 548v-80h86q108 0 164 -51t56 -139t-56 -138t-164 -50h-86v-90h-144v548h144zM284 351h-66v-145h67q92 0 92 73q0 72 -93 72z" />
    <glyph glyph-name="q.smcp" horiz-adv-x="628" 
d="M595 274q0 -128 -68 -204l61 -65l-74 -69l-69 74q-58 -26 -131 -26q-130 0 -205.5 78t-75.5 212t75.5 212t205.5 78t205.5 -78t75.5 -212zM184 272q0 -80 35 -125.5t97 -45.5q20 0 38 5l-72 76l73 70l75 -80q19 43 19 100q0 80 -35 124.5t-98 44.5q-62 0 -97 -44.5
t-35 -124.5z" />
    <glyph glyph-name="r.smcp" horiz-adv-x="569" 
d="M74 0v548h233q212 0 212 -157q0 -49 -27.5 -84.5t-75.5 -49.5v-2q30 -11 47.5 -33.5t37.5 -76.5l55 -145h-154l-42 120q-14 42 -35 58.5t-60 16.5h-47v-195h-144zM285 438h-67v-135h72q85 0 85 68q0 67 -90 67z" />
    <glyph glyph-name="racute.smcp" horiz-adv-x="569" 
d="M74 0v548h233q212 0 212 -157q0 -49 -27.5 -84.5t-75.5 -49.5v-2q30 -11 47.5 -33.5t37.5 -76.5l55 -145h-154l-42 120q-14 42 -35 58.5t-60 16.5h-47v-195h-144zM285 438h-67v-135h72q85 0 85 68q0 67 -90 67zM447 752l-140 -146h-110l77 146h173z" />
    <glyph glyph-name="rcaron.smcp" horiz-adv-x="569" 
d="M74 0v548h233q212 0 212 -157q0 -49 -27.5 -84.5t-75.5 -49.5v-2q30 -11 47.5 -33.5t37.5 -76.5l55 -145h-154l-42 120q-14 42 -35 58.5t-60 16.5h-47v-195h-144zM285 438h-67v-135h72q85 0 85 68q0 67 -90 67zM470 752l-114 -146h-149l-114 146h128l61 -76l60 76h128z
" />
    <glyph glyph-name="rcommaaccent.smcp" horiz-adv-x="569" 
d="M74 0v548h233q212 0 212 -157q0 -49 -27.5 -84.5t-75.5 -49.5v-2q30 -11 47.5 -33.5t37.5 -76.5l55 -145h-154l-42 120q-14 42 -35 58.5t-60 16.5h-47v-195h-144zM285 438h-67v-135h72q85 0 85 68q0 67 -90 67zM360 -59v-104l-68 -107h-56l45 107h-45v104h124z" />
    <glyph glyph-name="s.smcp" horiz-adv-x="534" 
d="M259 564q111 0 169 -46.5t58 -136.5h-143q0 76 -89 76q-35 0 -56 -14t-21 -37q0 -26 24 -38.5t93 -28.5q51 -12 81 -22t63 -29.5t48.5 -50t15.5 -73.5q0 -82 -64 -131t-171 -49q-113 0 -177.5 51t-64.5 144h146q0 -86 99 -86q40 0 63.5 16t23.5 43q0 28 -22.5 40
t-88.5 28q-43 11 -65.5 17.5t-55.5 20.5t-49.5 30t-29 43t-12.5 61q0 78 61.5 125t163.5 47z" />
    <glyph glyph-name="sacute.smcp" horiz-adv-x="534" 
d="M259 564q111 0 169 -46.5t58 -136.5h-143q0 76 -89 76q-35 0 -56 -14t-21 -37q0 -26 24 -38.5t93 -28.5q51 -12 81 -22t63 -29.5t48.5 -50t15.5 -73.5q0 -82 -64 -131t-171 -49q-113 0 -177.5 51t-64.5 144h146q0 -86 99 -86q40 0 63.5 16t23.5 43q0 28 -22.5 40
t-88.5 28q-43 11 -65.5 17.5t-55.5 20.5t-49.5 30t-29 43t-12.5 61q0 78 61.5 125t163.5 47zM424 752l-140 -146h-110l77 146h173z" />
    <glyph glyph-name="scaron.smcp" horiz-adv-x="534" 
d="M259 564q111 0 169 -46.5t58 -136.5h-143q0 76 -89 76q-35 0 -56 -14t-21 -37q0 -26 24 -38.5t93 -28.5q51 -12 81 -22t63 -29.5t48.5 -50t15.5 -73.5q0 -82 -64 -131t-171 -49q-113 0 -177.5 51t-64.5 144h146q0 -86 99 -86q40 0 63.5 16t23.5 43q0 28 -22.5 40
t-88.5 28q-43 11 -65.5 17.5t-55.5 20.5t-49.5 30t-29 43t-12.5 61q0 78 61.5 125t163.5 47zM447 752l-114 -146h-149l-114 146h128l61 -76l60 76h128z" />
    <glyph glyph-name="scedilla.smcp" horiz-adv-x="534" 
d="M502 164q0 -76 -55 -124t-150 -55l-29 -46q13 5 32 5q35 0 60 -20.5t25 -55.5q0 -41 -32 -67.5t-90 -26.5q-60 0 -114 30l22 45q41 -22 80 -22q49 0 49 35q0 17 -13 27.5t-35 10.5q-17 0 -32 -6l-21 23l42 68q-102 5 -159 55.5t-57 138.5h146q0 -86 99 -86q40 0 63.5 16
t23.5 43q0 28 -22.5 40t-88.5 28q-43 11 -65.5 17.5t-55.5 20.5t-49.5 30t-29 43t-12.5 61q0 78 61.5 125t163.5 47q111 0 169 -46.5t58 -136.5h-143q0 76 -89 76q-35 0 -56 -14t-21 -37q0 -26 24 -38.5t93 -28.5q51 -12 81 -22t63 -29.5t48.5 -50t15.5 -73.5z" />
    <glyph glyph-name="scircumflex.smcp" horiz-adv-x="534" 
d="M259 564q111 0 169 -46.5t58 -136.5h-143q0 76 -89 76q-35 0 -56 -14t-21 -37q0 -26 24 -38.5t93 -28.5q51 -12 81 -22t63 -29.5t48.5 -50t15.5 -73.5q0 -82 -64 -131t-171 -49q-113 0 -177.5 51t-64.5 144h146q0 -86 99 -86q40 0 63.5 16t23.5 43q0 28 -22.5 40
t-88.5 28q-43 11 -65.5 17.5t-55.5 20.5t-49.5 30t-29 43t-12.5 61q0 78 61.5 125t163.5 47zM447 606h-128l-60 76l-61 -76h-128l114 146h149z" />
    <glyph glyph-name="scommaaccent.smcp" horiz-adv-x="534" 
d="M259 564q111 0 169 -46.5t58 -136.5h-143q0 76 -89 76q-35 0 -56 -14t-21 -37q0 -26 24 -38.5t93 -28.5q51 -12 81 -22t63 -29.5t48.5 -50t15.5 -73.5q0 -82 -64 -131t-171 -49q-113 0 -177.5 51t-64.5 144h146q0 -86 99 -86q40 0 63.5 16t23.5 43q0 28 -22.5 40
t-88.5 28q-43 11 -65.5 17.5t-55.5 20.5t-49.5 30t-29 43t-12.5 61q0 78 61.5 125t163.5 47zM329 -59v-104l-68 -107h-56l45 107h-45v104h124z" />
    <glyph glyph-name="germandbls.smcp" horiz-adv-x="692" 
d="M609 449l-113 -121q154 -44 154 -177q0 -80 -55.5 -123.5t-149.5 -43.5q-195 0 -195 171h132q0 -59 60 -59q59 0 59 58q0 41 -38.5 62t-115.5 26v95l84 88q-35 25 -83 25q-135 0 -135 -146v-304h-144v307q0 126 72.5 191.5t210.5 65.5q80 0 147.5 -31t109.5 -84z" />
    <glyph glyph-name="t.smcp" horiz-adv-x="516" 
d="M506 548v-121h-176v-427h-144v427h-176v121h496z" />
    <glyph glyph-name="tbar.smcp" horiz-adv-x="516" 
d="M506 427h-176v-123h100v-92h-100v-212h-144v212h-100v92h100v123h-176v121h496v-121z" />
    <glyph glyph-name="tcaron.smcp" horiz-adv-x="516" 
d="M506 548v-121h-176v-427h-144v427h-176v121h496zM446 752l-114 -146h-149l-114 146h128l61 -76l60 76h128z" />
    <glyph glyph-name="tcedilla.smcp" horiz-adv-x="516" 
d="M506 548v-121h-176v-427h-144v427h-176v121h496zM320 -59v-104l-68 -107h-56l45 107h-45v104h124z" />
    <glyph glyph-name="tcommaaccent.smcp" horiz-adv-x="516" 
d="M506 548v-121h-176v-427h-144v427h-176v121h496zM320 -59v-104l-68 -107h-56l45 107h-45v104h124z" />
    <glyph glyph-name="u.smcp" horiz-adv-x="612" 
d="M400 548h144v-338q0 -109 -62 -167.5t-176 -58.5t-176 58.5t-62 167.5v338h144v-335q0 -50 24 -77t70 -27t70 27t24 77v335z" />
    <glyph glyph-name="uacute.smcp" horiz-adv-x="612" 
d="M400 548h144v-338q0 -109 -62 -167.5t-176 -58.5t-176 58.5t-62 167.5v338h144v-335q0 -50 24 -77t70 -27t70 27t24 77v335zM471 752l-140 -146h-110l77 146h173z" />
    </font>
</defs>
</svg>
